<?xml version="1.0" encoding="utf-8" standalone="no"?>
<!DOCTYPE svg PUBLIC "-//W3C//DTD SVG 1.1//EN"
  "http://www.w3.org/Graphics/SVG/1.1/DTD/svg11.dtd">
<svg xmlns:xlink="http://www.w3.org/1999/xlink" width="555.92pt" height="364.619825pt" viewBox="0 0 555.92 364.619825" xmlns="http://www.w3.org/2000/svg" version="1.1">
 <metadata>
  <rdf:RDF xmlns:dc="http://purl.org/dc/elements/1.1/" xmlns:cc="http://creativecommons.org/ns#" xmlns:rdf="http://www.w3.org/1999/02/22-rdf-syntax-ns#">
   <cc:Work>
    <dc:type rdf:resource="http://purl.org/dc/dcmitype/StillImage"/>
    <dc:date>2024-04-20T20:58:01.373322</dc:date>
    <dc:format>image/svg+xml</dc:format>
    <dc:creator>
     <cc:Agent>
      <dc:title>Matplotlib v3.7.1, https://matplotlib.org/</dc:title>
     </cc:Agent>
    </dc:creator>
   </cc:Work>
  </rdf:RDF>
 </metadata>
 <defs>
  <style type="text/css">*{stroke-linejoin: round; stroke-linecap: butt}</style>
 </defs>
 <g id="figure_1">
  <g id="patch_1">
   <path d="M 0 364.619825 
L 555.92 364.619825 
L 555.92 0 
L 0 0 
z
" style="fill: #ffffff"/>
  </g>
  <g id="axes_1">
   <g id="patch_2">
    <path d="M 53.72 349.170312 
L 555.92 349.170312 
L 555.92 12.210312 
L 53.72 12.210312 
z
" style="fill: #ffffff"/>
   </g>
   <g id="patch_3">
    <path d="M 53.72 349.170312 
L 555.92 349.170312 
L 555.92 12.210312 
L 53.72 12.210312 
z
" clip-path="url(#p307151589b)" style="fill: #d3d3d3; stroke: #d3d3d3; stroke-linejoin: miter"/>
   </g>
   <g id="patch_4">
    <path d="M 53.72 134.741222 
L 89.591429 134.741222 
L 89.591429 104.108494 
L 53.72 104.108494 
z
" clip-path="url(#p307151589b)" style="fill: #99cc80; stroke: #99cc80; stroke-linejoin: miter"/>
   </g>
   <g id="patch_5">
    <path d="M 53.72 104.108494 
L 89.591429 104.108494 
L 89.591429 134.741222 
L 53.72 134.741222 
L 53.72 104.108494 
z
" clip-path="url(#p307151589b)" style="fill: none; stroke: #d3d3d3; stroke-linejoin: miter"/>
   </g>
   <g id="patch_6">
    <path d="M 89.591429 42.84304 
L 125.462857 42.84304 
L 125.462857 12.210312 
L 89.591429 12.210312 
z
" clip-path="url(#p307151589b)" style="fill: #99cc80; stroke: #99cc80; stroke-linejoin: miter"/>
   </g>
   <g id="patch_7">
    <path d="M 89.591429 12.210312 
L 125.462857 12.210312 
L 125.462857 42.84304 
L 89.591429 42.84304 
L 89.591429 12.210312 
z
" clip-path="url(#p307151589b)" style="fill: none; stroke: #d3d3d3; stroke-linejoin: miter"/>
   </g>
   <g id="patch_8">
    <path d="M 125.462857 42.84304 
L 161.334286 42.84304 
L 161.334286 12.210312 
L 125.462857 12.210312 
z
" clip-path="url(#p307151589b)" style="fill: #99cc80; stroke: #99cc80; stroke-linejoin: miter"/>
   </g>
   <g id="patch_9">
    <path d="M 125.462857 12.210312 
L 161.334286 12.210312 
L 161.334286 42.84304 
L 125.462857 42.84304 
L 125.462857 12.210312 
z
" clip-path="url(#p307151589b)" style="fill: none; stroke: #d3d3d3; stroke-linejoin: miter"/>
   </g>
   <g id="patch_10">
    <path d="M 125.462857 165.373949 
L 161.334286 165.373949 
L 161.334286 134.741222 
L 125.462857 134.741222 
z
" clip-path="url(#p307151589b)" style="fill: #99cc80; stroke: #99cc80; stroke-linejoin: miter"/>
   </g>
   <g id="patch_11">
    <path d="M 125.462857 134.741222 
L 161.334286 134.741222 
L 161.334286 165.373949 
L 125.462857 165.373949 
L 125.462857 134.741222 
z
" clip-path="url(#p307151589b)" style="fill: none; stroke: #d3d3d3; stroke-linejoin: miter"/>
   </g>
   <g id="patch_12">
    <path d="M 161.334286 42.84304 
L 197.205714 42.84304 
L 197.205714 12.210312 
L 161.334286 12.210312 
z
" clip-path="url(#p307151589b)" style="fill: #99cc80; stroke: #99cc80; stroke-linejoin: miter"/>
   </g>
   <g id="patch_13">
    <path d="M 161.334286 73.475767 
L 197.205714 73.475767 
L 197.205714 42.84304 
L 161.334286 42.84304 
z
" clip-path="url(#p307151589b)" style="fill: #99cc80; stroke: #99cc80; stroke-linejoin: miter"/>
   </g>
   <g id="patch_14">
    <path d="M 161.334286 12.210312 
L 197.205714 12.210312 
L 197.205714 73.475767 
L 161.334286 73.475767 
L 161.334286 12.210312 
z
" clip-path="url(#p307151589b)" style="fill: none; stroke: #d3d3d3; stroke-linejoin: miter"/>
   </g>
   <g id="patch_15">
    <path d="M 161.334286 134.741222 
L 197.205714 134.741222 
L 197.205714 104.108494 
L 161.334286 104.108494 
z
" clip-path="url(#p307151589b)" style="fill: #99cc80; stroke: #99cc80; stroke-linejoin: miter"/>
   </g>
   <g id="patch_16">
    <path d="M 161.334286 165.373949 
L 197.205714 165.373949 
L 197.205714 134.741222 
L 161.334286 134.741222 
z
" clip-path="url(#p307151589b)" style="fill: #99cc80; stroke: #99cc80; stroke-linejoin: miter"/>
   </g>
   <g id="patch_17">
    <path d="M 161.334286 104.108494 
L 197.205714 104.108494 
L 197.205714 165.373949 
L 161.334286 165.373949 
L 161.334286 104.108494 
z
" clip-path="url(#p307151589b)" style="fill: none; stroke: #d3d3d3; stroke-linejoin: miter"/>
   </g>
   <g id="patch_18">
    <path d="M 197.205714 73.475767 
L 233.077143 73.475767 
L 233.077143 42.84304 
L 197.205714 42.84304 
z
" clip-path="url(#p307151589b)" style="fill: #99cc80; stroke: #99cc80; stroke-linejoin: miter"/>
   </g>
   <g id="patch_19">
    <path d="M 197.205714 42.84304 
L 233.077143 42.84304 
L 233.077143 73.475767 
L 197.205714 73.475767 
L 197.205714 42.84304 
z
" clip-path="url(#p307151589b)" style="fill: none; stroke: #d3d3d3; stroke-linejoin: miter"/>
   </g>
   <g id="patch_20">
    <path d="M 197.205714 165.373949 
L 233.077143 165.373949 
L 233.077143 134.741222 
L 197.205714 134.741222 
z
" clip-path="url(#p307151589b)" style="fill: #99cc80; stroke: #99cc80; stroke-linejoin: miter"/>
   </g>
   <g id="patch_21">
    <path d="M 197.205714 134.741222 
L 233.077143 134.741222 
L 233.077143 165.373949 
L 197.205714 165.373949 
L 197.205714 134.741222 
z
" clip-path="url(#p307151589b)" style="fill: none; stroke: #d3d3d3; stroke-linejoin: miter"/>
   </g>
   <g id="patch_22">
    <path d="M 233.077143 42.84304 
L 268.948571 42.84304 
L 268.948571 12.210312 
L 233.077143 12.210312 
z
" clip-path="url(#p307151589b)" style="fill: #99cc80; stroke: #99cc80; stroke-linejoin: miter"/>
   </g>
   <g id="patch_23">
    <path d="M 233.077143 12.210312 
L 268.948571 12.210312 
L 268.948571 42.84304 
L 233.077143 42.84304 
L 233.077143 12.210312 
z
" clip-path="url(#p307151589b)" style="fill: none; stroke: #d3d3d3; stroke-linejoin: miter"/>
   </g>
   <g id="patch_24">
    <path d="M 233.077143 134.741222 
L 268.948571 134.741222 
L 268.948571 104.108494 
L 233.077143 104.108494 
z
" clip-path="url(#p307151589b)" style="fill: #99cc80; stroke: #99cc80; stroke-linejoin: miter"/>
   </g>
   <g id="patch_25">
    <path d="M 233.077143 165.373949 
L 268.948571 165.373949 
L 268.948571 134.741222 
L 233.077143 134.741222 
z
" clip-path="url(#p307151589b)" style="fill: #99cc80; stroke: #99cc80; stroke-linejoin: miter"/>
   </g>
   <g id="patch_26">
    <path d="M 233.077143 104.108494 
L 268.948571 104.108494 
L 268.948571 165.373949 
L 233.077143 165.373949 
L 233.077143 104.108494 
z
" clip-path="url(#p307151589b)" style="fill: none; stroke: #d3d3d3; stroke-linejoin: miter"/>
   </g>
   <g id="patch_27">
    <path d="M 233.077143 226.639403 
L 268.948571 226.639403 
L 268.948571 196.006676 
L 233.077143 196.006676 
z
" clip-path="url(#p307151589b)" style="fill: #99cc80; stroke: #99cc80; stroke-linejoin: miter"/>
   </g>
   <g id="patch_28">
    <path d="M 233.077143 196.006676 
L 268.948571 196.006676 
L 268.948571 226.639403 
L 233.077143 226.639403 
L 233.077143 196.006676 
z
" clip-path="url(#p307151589b)" style="fill: none; stroke: #d3d3d3; stroke-linejoin: miter"/>
   </g>
   <g id="patch_29">
    <path d="M 233.077143 287.904858 
L 268.948571 287.904858 
L 268.948571 257.272131 
L 233.077143 257.272131 
z
" clip-path="url(#p307151589b)" style="fill: #99cc80; stroke: #99cc80; stroke-linejoin: miter"/>
   </g>
   <g id="patch_30">
    <path d="M 233.077143 257.272131 
L 268.948571 257.272131 
L 268.948571 287.904858 
L 233.077143 287.904858 
L 233.077143 257.272131 
z
" clip-path="url(#p307151589b)" style="fill: none; stroke: #d3d3d3; stroke-linejoin: miter"/>
   </g>
   <g id="patch_31">
    <path d="M 268.948571 73.475767 
L 304.82 73.475767 
L 304.82 42.84304 
L 268.948571 42.84304 
z
" clip-path="url(#p307151589b)" style="fill: #99cc80; stroke: #99cc80; stroke-linejoin: miter"/>
   </g>
   <g id="patch_32">
    <path d="M 268.948571 42.84304 
L 304.82 42.84304 
L 304.82 73.475767 
L 268.948571 73.475767 
L 268.948571 42.84304 
z
" clip-path="url(#p307151589b)" style="fill: none; stroke: #d3d3d3; stroke-linejoin: miter"/>
   </g>
   <g id="patch_33">
    <path d="M 268.948571 134.741222 
L 304.82 134.741222 
L 304.82 104.108494 
L 268.948571 104.108494 
z
" clip-path="url(#p307151589b)" style="fill: #99cc80; stroke: #99cc80; stroke-linejoin: miter"/>
   </g>
   <g id="patch_34">
    <path d="M 268.948571 165.373949 
L 304.82 165.373949 
L 304.82 134.741222 
L 268.948571 134.741222 
z
" clip-path="url(#p307151589b)" style="fill: #99cc80; stroke: #99cc80; stroke-linejoin: miter"/>
   </g>
   <g id="patch_35">
    <path d="M 268.948571 104.108494 
L 304.82 104.108494 
L 304.82 165.373949 
L 268.948571 165.373949 
L 268.948571 104.108494 
z
" clip-path="url(#p307151589b)" style="fill: none; stroke: #d3d3d3; stroke-linejoin: miter"/>
   </g>
   <g id="patch_36">
    <path d="M 268.948571 257.272131 
L 304.82 257.272131 
L 304.82 226.639403 
L 268.948571 226.639403 
z
" clip-path="url(#p307151589b)" style="fill: #99cc80; stroke: #99cc80; stroke-linejoin: miter"/>
   </g>
   <g id="patch_37">
    <path d="M 268.948571 226.639403 
L 304.82 226.639403 
L 304.82 257.272131 
L 268.948571 257.272131 
L 268.948571 226.639403 
z
" clip-path="url(#p307151589b)" style="fill: none; stroke: #d3d3d3; stroke-linejoin: miter"/>
   </g>
   <g id="patch_38">
    <path d="M 268.948571 318.537585 
L 304.82 318.537585 
L 304.82 287.904858 
L 268.948571 287.904858 
z
" clip-path="url(#p307151589b)" style="fill: #99cc80; stroke: #99cc80; stroke-linejoin: miter"/>
   </g>
   <g id="patch_39">
    <path d="M 268.948571 349.170312 
L 304.82 349.170312 
L 304.82 318.537585 
L 268.948571 318.537585 
z
" clip-path="url(#p307151589b)" style="fill: #99cc80; stroke: #99cc80; stroke-linejoin: miter"/>
   </g>
   <g id="patch_40">
    <path d="M 268.948571 287.904858 
L 304.82 287.904858 
L 304.82 349.170312 
L 268.948571 349.170312 
L 268.948571 287.904858 
z
" clip-path="url(#p307151589b)" style="fill: none; stroke: #d3d3d3; stroke-linejoin: miter"/>
   </g>
   <g id="patch_41">
    <path d="M 304.82 42.84304 
L 340.691429 42.84304 
L 340.691429 12.210312 
L 304.82 12.210312 
z
" clip-path="url(#p307151589b)" style="fill: #99cc80; stroke: #99cc80; stroke-linejoin: miter"/>
   </g>
   <g id="patch_42">
    <path d="M 304.82 73.475767 
L 340.691429 73.475767 
L 340.691429 42.84304 
L 304.82 42.84304 
z
" clip-path="url(#p307151589b)" style="fill: #99cc80; stroke: #99cc80; stroke-linejoin: miter"/>
   </g>
   <g id="patch_43">
    <path d="M 304.82 12.210312 
L 340.691429 12.210312 
L 340.691429 73.475767 
L 304.82 73.475767 
L 304.82 12.210312 
z
" clip-path="url(#p307151589b)" style="fill: none; stroke: #d3d3d3; stroke-linejoin: miter"/>
   </g>
   <g id="patch_44">
    <path d="M 304.82 165.373949 
L 340.691429 165.373949 
L 340.691429 134.741222 
L 304.82 134.741222 
z
" clip-path="url(#p307151589b)" style="fill: #99cc80; stroke: #99cc80; stroke-linejoin: miter"/>
   </g>
   <g id="patch_45">
    <path d="M 304.82 134.741222 
L 340.691429 134.741222 
L 340.691429 165.373949 
L 304.82 165.373949 
L 304.82 134.741222 
z
" clip-path="url(#p307151589b)" style="fill: none; stroke: #d3d3d3; stroke-linejoin: miter"/>
   </g>
   <g id="patch_46">
    <path d="M 340.691429 73.475767 
L 376.562857 73.475767 
L 376.562857 42.84304 
L 340.691429 42.84304 
z
" clip-path="url(#p307151589b)" style="fill: #99cc80; stroke: #99cc80; stroke-linejoin: miter"/>
   </g>
   <g id="patch_47">
    <path d="M 340.691429 104.108494 
L 376.562857 104.108494 
L 376.562857 73.475767 
L 340.691429 73.475767 
z
" clip-path="url(#p307151589b)" style="fill: #99cc80; stroke: #99cc80; stroke-linejoin: miter"/>
   </g>
   <g id="patch_48">
    <path d="M 340.691429 42.84304 
L 376.562857 42.84304 
L 376.562857 104.108494 
L 340.691429 104.108494 
L 340.691429 42.84304 
z
" clip-path="url(#p307151589b)" style="fill: none; stroke: #d3d3d3; stroke-linejoin: miter"/>
   </g>
   <g id="patch_49">
    <path d="M 340.691429 165.373949 
L 376.562857 165.373949 
L 376.562857 134.741222 
L 340.691429 134.741222 
z
" clip-path="url(#p307151589b)" style="fill: #99cc80; stroke: #99cc80; stroke-linejoin: miter"/>
   </g>
   <g id="patch_50">
    <path d="M 340.691429 134.741222 
L 376.562857 134.741222 
L 376.562857 165.373949 
L 340.691429 165.373949 
L 340.691429 134.741222 
z
" clip-path="url(#p307151589b)" style="fill: none; stroke: #d3d3d3; stroke-linejoin: miter"/>
   </g>
   <g id="patch_51">
    <path d="M 376.562857 73.475767 
L 412.434286 73.475767 
L 412.434286 42.84304 
L 376.562857 42.84304 
z
" clip-path="url(#p307151589b)" style="fill: #99cc80; stroke: #99cc80; stroke-linejoin: miter"/>
   </g>
   <g id="patch_52">
    <path d="M 376.562857 104.108494 
L 412.434286 104.108494 
L 412.434286 73.475767 
L 376.562857 73.475767 
z
" clip-path="url(#p307151589b)" style="fill: #99cc80; stroke: #99cc80; stroke-linejoin: miter"/>
   </g>
   <g id="patch_53">
    <path d="M 376.562857 134.741222 
L 412.434286 134.741222 
L 412.434286 104.108494 
L 376.562857 104.108494 
z
" clip-path="url(#p307151589b)" style="fill: #99cc80; stroke: #99cc80; stroke-linejoin: miter"/>
   </g>
   <g id="patch_54">
    <path d="M 376.562857 165.373949 
L 412.434286 165.373949 
L 412.434286 134.741222 
L 376.562857 134.741222 
z
" clip-path="url(#p307151589b)" style="fill: #99cc80; stroke: #99cc80; stroke-linejoin: miter"/>
   </g>
   <g id="patch_55">
    <path d="M 376.562857 42.84304 
L 412.434286 42.84304 
L 412.434286 165.373949 
L 376.562857 165.373949 
L 376.562857 42.84304 
z
" clip-path="url(#p307151589b)" style="fill: none; stroke: #d3d3d3; stroke-linejoin: miter"/>
   </g>
   <g id="patch_56">
    <path d="M 376.562857 318.537585 
L 412.434286 318.537585 
L 412.434286 287.904858 
L 376.562857 287.904858 
z
" clip-path="url(#p307151589b)" style="fill: #99cc80; stroke: #99cc80; stroke-linejoin: miter"/>
   </g>
   <g id="patch_57">
    <path d="M 376.562857 287.904858 
L 412.434286 287.904858 
L 412.434286 318.537585 
L 376.562857 318.537585 
L 376.562857 287.904858 
z
" clip-path="url(#p307151589b)" style="fill: none; stroke: #d3d3d3; stroke-linejoin: miter"/>
   </g>
   <g id="patch_58">
    <path d="M 412.434286 73.475767 
L 448.305714 73.475767 
L 448.305714 42.84304 
L 412.434286 42.84304 
z
" clip-path="url(#p307151589b)" style="fill: #99cc80; stroke: #99cc80; stroke-linejoin: miter"/>
   </g>
   <g id="patch_59">
    <path d="M 412.434286 104.108494 
L 448.305714 104.108494 
L 448.305714 73.475767 
L 412.434286 73.475767 
z
" clip-path="url(#p307151589b)" style="fill: #99cc80; stroke: #99cc80; stroke-linejoin: miter"/>
   </g>
   <g id="patch_60">
    <path d="M 412.434286 134.741222 
L 448.305714 134.741222 
L 448.305714 104.108494 
L 412.434286 104.108494 
z
" clip-path="url(#p307151589b)" style="fill: #99cc80; stroke: #99cc80; stroke-linejoin: miter"/>
   </g>
   <g id="patch_61">
    <path d="M 412.434286 165.373949 
L 448.305714 165.373949 
L 448.305714 134.741222 
L 412.434286 134.741222 
z
" clip-path="url(#p307151589b)" style="fill: #99cc80; stroke: #99cc80; stroke-linejoin: miter"/>
   </g>
   <g id="patch_62">
    <path d="M 412.434286 42.84304 
L 448.305714 42.84304 
L 448.305714 165.373949 
L 412.434286 165.373949 
L 412.434286 42.84304 
z
" clip-path="url(#p307151589b)" style="fill: none; stroke: #d3d3d3; stroke-linejoin: miter"/>
   </g>
   <g id="patch_63">
    <path d="M 412.434286 318.537585 
L 448.305714 318.537585 
L 448.305714 287.904858 
L 412.434286 287.904858 
z
" clip-path="url(#p307151589b)" style="fill: #99cc80; stroke: #99cc80; stroke-linejoin: miter"/>
   </g>
   <g id="patch_64">
    <path d="M 412.434286 287.904858 
L 448.305714 287.904858 
L 448.305714 318.537585 
L 412.434286 318.537585 
L 412.434286 287.904858 
z
" clip-path="url(#p307151589b)" style="fill: none; stroke: #d3d3d3; stroke-linejoin: miter"/>
   </g>
   <g id="patch_65">
    <path d="M 448.305714 73.475767 
L 484.177143 73.475767 
L 484.177143 42.84304 
L 448.305714 42.84304 
z
" clip-path="url(#p307151589b)" style="fill: #99cc80; stroke: #99cc80; stroke-linejoin: miter"/>
   </g>
   <g id="patch_66">
    <path d="M 448.305714 104.108494 
L 484.177143 104.108494 
L 484.177143 73.475767 
L 448.305714 73.475767 
z
" clip-path="url(#p307151589b)" style="fill: #99cc80; stroke: #99cc80; stroke-linejoin: miter"/>
   </g>
   <g id="patch_67">
    <path d="M 448.305714 134.741222 
L 484.177143 134.741222 
L 484.177143 104.108494 
L 448.305714 104.108494 
z
" clip-path="url(#p307151589b)" style="fill: #99cc80; stroke: #99cc80; stroke-linejoin: miter"/>
   </g>
   <g id="patch_68">
    <path d="M 448.305714 165.373949 
L 484.177143 165.373949 
L 484.177143 134.741222 
L 448.305714 134.741222 
z
" clip-path="url(#p307151589b)" style="fill: #99cc80; stroke: #99cc80; stroke-linejoin: miter"/>
   </g>
   <g id="patch_69">
    <path d="M 448.305714 196.006676 
L 484.177143 196.006676 
L 484.177143 165.373949 
L 448.305714 165.373949 
z
" clip-path="url(#p307151589b)" style="fill: #cce680; stroke: #cce680; stroke-linejoin: miter"/>
   </g>
   <g id="patch_70">
    <path d="M 448.305714 42.84304 
L 484.177143 42.84304 
L 484.177143 165.373949 
L 448.305714 165.373949 
L 448.305714 42.84304 
z
" clip-path="url(#p307151589b)" style="fill: none; stroke: #d3d3d3; stroke-linejoin: miter"/>
   </g>
   <g id="patch_71">
    <path d="M 448.305714 165.373949 
L 484.177143 165.373949 
L 484.177143 196.006676 
L 448.305714 196.006676 
L 448.305714 165.373949 
z
" clip-path="url(#p307151589b)" style="fill: none; stroke: #d3d3d3; stroke-linejoin: miter"/>
   </g>
   <g id="patch_72">
    <path d="M 448.305714 287.904858 
L 484.177143 287.904858 
L 484.177143 257.272131 
L 448.305714 257.272131 
z
" clip-path="url(#p307151589b)" style="fill: #b2d980; stroke: #b2d980; stroke-linejoin: miter"/>
   </g>
   <g id="patch_73">
    <path d="M 448.305714 257.272131 
L 484.177143 257.272131 
L 484.177143 287.904858 
L 448.305714 287.904858 
L 448.305714 257.272131 
z
" clip-path="url(#p307151589b)" style="fill: none; stroke: #d3d3d3; stroke-linejoin: miter"/>
   </g>
   <g id="patch_74">
    <path d="M 484.177143 73.475767 
L 520.048571 73.475767 
L 520.048571 42.84304 
L 484.177143 42.84304 
z
" clip-path="url(#p307151589b)" style="fill: #99cc80; stroke: #99cc80; stroke-linejoin: miter"/>
   </g>
   <g id="patch_75">
    <path d="M 484.177143 104.108494 
L 520.048571 104.108494 
L 520.048571 73.475767 
L 484.177143 73.475767 
z
" clip-path="url(#p307151589b)" style="fill: #99cc80; stroke: #99cc80; stroke-linejoin: miter"/>
   </g>
   <g id="patch_76">
    <path d="M 484.177143 134.741222 
L 520.048571 134.741222 
L 520.048571 104.108494 
L 484.177143 104.108494 
z
" clip-path="url(#p307151589b)" style="fill: #99cc80; stroke: #99cc80; stroke-linejoin: miter"/>
   </g>
   <g id="patch_77">
    <path d="M 484.177143 165.373949 
L 520.048571 165.373949 
L 520.048571 134.741222 
L 484.177143 134.741222 
z
" clip-path="url(#p307151589b)" style="fill: #99cc80; stroke: #99cc80; stroke-linejoin: miter"/>
   </g>
   <g id="patch_78">
    <path d="M 484.177143 42.84304 
L 520.048571 42.84304 
L 520.048571 165.373949 
L 484.177143 165.373949 
L 484.177143 42.84304 
z
" clip-path="url(#p307151589b)" style="fill: none; stroke: #d3d3d3; stroke-linejoin: miter"/>
   </g>
   <g id="patch_79">
    <path d="M 520.048571 42.84304 
L 555.92 42.84304 
L 555.92 12.210312 
L 520.048571 12.210312 
z
" clip-path="url(#p307151589b)" style="fill: #b2d980; stroke: #b2d980; stroke-linejoin: miter"/>
   </g>
   <g id="patch_80">
    <path d="M 520.048571 73.475767 
L 555.92 73.475767 
L 555.92 42.84304 
L 520.048571 42.84304 
z
" clip-path="url(#p307151589b)" style="fill: #99cc80; stroke: #99cc80; stroke-linejoin: miter"/>
   </g>
   <g id="patch_81">
    <path d="M 520.048571 12.210312 
L 555.92 12.210312 
L 555.92 42.84304 
L 520.048571 42.84304 
L 520.048571 12.210312 
z
" clip-path="url(#p307151589b)" style="fill: none; stroke: #d3d3d3; stroke-linejoin: miter"/>
   </g>
   <g id="patch_82">
    <path d="M 520.048571 104.108494 
L 555.92 104.108494 
L 555.92 73.475767 
L 520.048571 73.475767 
z
" clip-path="url(#p307151589b)" style="fill: #99cc80; stroke: #99cc80; stroke-linejoin: miter"/>
   </g>
   <g id="patch_83">
    <path d="M 520.048571 134.741222 
L 555.92 134.741222 
L 555.92 104.108494 
L 520.048571 104.108494 
z
" clip-path="url(#p307151589b)" style="fill: #99cc80; stroke: #99cc80; stroke-linejoin: miter"/>
   </g>
   <g id="patch_84">
    <path d="M 520.048571 165.373949 
L 555.92 165.373949 
L 555.92 134.741222 
L 520.048571 134.741222 
z
" clip-path="url(#p307151589b)" style="fill: #99cc80; stroke: #99cc80; stroke-linejoin: miter"/>
   </g>
   <g id="patch_85">
    <path d="M 520.048571 42.84304 
L 555.92 42.84304 
L 555.92 165.373949 
L 520.048571 165.373949 
L 520.048571 42.84304 
z
" clip-path="url(#p307151589b)" style="fill: none; stroke: #d3d3d3; stroke-linejoin: miter"/>
   </g>
   <g id="patch_86">
    <path d="M 520.048571 287.904858 
L 555.92 287.904858 
L 555.92 257.272131 
L 520.048571 257.272131 
z
" clip-path="url(#p307151589b)" style="fill: #b2d980; stroke: #b2d980; stroke-linejoin: miter"/>
   </g>
   <g id="patch_87">
    <path d="M 520.048571 257.272131 
L 555.92 257.272131 
L 555.92 287.904858 
L 520.048571 287.904858 
L 520.048571 257.272131 
z
" clip-path="url(#p307151589b)" style="fill: none; stroke: #d3d3d3; stroke-linejoin: miter"/>
   </g>
   <g id="matplotlib.axis_1">
    <g id="xtick_1">
     <g id="line2d_1"/>
     <g id="text_1">
      <!-- D5 -->
      <g transform="translate(65.327589 6.838594) scale(0.09 -0.09)">
       <defs>
        <path id="DejaVuSans-44" d="M 1259 4147 
L 1259 519 
L 2022 519 
Q 2988 519 3436 956 
Q 3884 1394 3884 2338 
Q 3884 3275 3436 3711 
Q 2988 4147 2022 4147 
L 1259 4147 
z
M 628 4666 
L 1925 4666 
Q 3281 4666 3915 4102 
Q 4550 3538 4550 2338 
Q 4550 1131 3912 565 
Q 3275 0 1925 0 
L 628 0 
L 628 4666 
z
" transform="scale(0.015625)"/>
        <path id="DejaVuSans-35" d="M 691 4666 
L 3169 4666 
L 3169 4134 
L 1269 4134 
L 1269 2991 
Q 1406 3038 1543 3061 
Q 1681 3084 1819 3084 
Q 2600 3084 3056 2656 
Q 3513 2228 3513 1497 
Q 3513 744 3044 326 
Q 2575 -91 1722 -91 
Q 1428 -91 1123 -41 
Q 819 9 494 109 
L 494 744 
Q 775 591 1075 516 
Q 1375 441 1709 441 
Q 2250 441 2565 725 
Q 2881 1009 2881 1497 
Q 2881 1984 2565 2268 
Q 2250 2553 1709 2553 
Q 1456 2553 1204 2497 
Q 953 2441 691 2322 
L 691 4666 
z
" transform="scale(0.015625)"/>
       </defs>
       <use xlink:href="#DejaVuSans-44"/>
       <use xlink:href="#DejaVuSans-35" x="77.001953"/>
      </g>
     </g>
    </g>
    <g id="xtick_2">
     <g id="line2d_2"/>
     <g id="text_2">
      <!-- OPR -->
      <g transform="translate(98.144643 6.838594) scale(0.09 -0.09)">
       <defs>
        <path id="DejaVuSans-4f" d="M 2522 4238 
Q 1834 4238 1429 3725 
Q 1025 3213 1025 2328 
Q 1025 1447 1429 934 
Q 1834 422 2522 422 
Q 3209 422 3611 934 
Q 4013 1447 4013 2328 
Q 4013 3213 3611 3725 
Q 3209 4238 2522 4238 
z
M 2522 4750 
Q 3503 4750 4090 4092 
Q 4678 3434 4678 2328 
Q 4678 1225 4090 567 
Q 3503 -91 2522 -91 
Q 1538 -91 948 565 
Q 359 1222 359 2328 
Q 359 3434 948 4092 
Q 1538 4750 2522 4750 
z
" transform="scale(0.015625)"/>
        <path id="DejaVuSans-50" d="M 1259 4147 
L 1259 2394 
L 2053 2394 
Q 2494 2394 2734 2622 
Q 2975 2850 2975 3272 
Q 2975 3691 2734 3919 
Q 2494 4147 2053 4147 
L 1259 4147 
z
M 628 4666 
L 2053 4666 
Q 2838 4666 3239 4311 
Q 3641 3956 3641 3272 
Q 3641 2581 3239 2228 
Q 2838 1875 2053 1875 
L 1259 1875 
L 1259 0 
L 628 0 
L 628 4666 
z
" transform="scale(0.015625)"/>
        <path id="DejaVuSans-52" d="M 2841 2188 
Q 3044 2119 3236 1894 
Q 3428 1669 3622 1275 
L 4263 0 
L 3584 0 
L 2988 1197 
Q 2756 1666 2539 1819 
Q 2322 1972 1947 1972 
L 1259 1972 
L 1259 0 
L 628 0 
L 628 4666 
L 2053 4666 
Q 2853 4666 3247 4331 
Q 3641 3997 3641 3322 
Q 3641 2881 3436 2590 
Q 3231 2300 2841 2188 
z
M 1259 4147 
L 1259 2491 
L 2053 2491 
Q 2509 2491 2742 2702 
Q 2975 2913 2975 3322 
Q 2975 3731 2742 3939 
Q 2509 4147 2053 4147 
L 1259 4147 
z
" transform="scale(0.015625)"/>
       </defs>
       <use xlink:href="#DejaVuSans-4f"/>
       <use xlink:href="#DejaVuSans-50" x="78.710938"/>
       <use xlink:href="#DejaVuSans-52" x="139.013672"/>
      </g>
     </g>
    </g>
    <g id="xtick_3">
     <g id="line2d_3"/>
     <g id="text_3">
      <!-- D'3 -->
      <g transform="translate(135.83365 6.838594) scale(0.09 -0.09)">
       <defs>
        <path id="DejaVuSans-27" d="M 1147 4666 
L 1147 2931 
L 616 2931 
L 616 4666 
L 1147 4666 
z
" transform="scale(0.015625)"/>
        <path id="DejaVuSans-33" d="M 2597 2516 
Q 3050 2419 3304 2112 
Q 3559 1806 3559 1356 
Q 3559 666 3084 287 
Q 2609 -91 1734 -91 
Q 1441 -91 1130 -33 
Q 819 25 488 141 
L 488 750 
Q 750 597 1062 519 
Q 1375 441 1716 441 
Q 2309 441 2620 675 
Q 2931 909 2931 1356 
Q 2931 1769 2642 2001 
Q 2353 2234 1838 2234 
L 1294 2234 
L 1294 2753 
L 1863 2753 
Q 2328 2753 2575 2939 
Q 2822 3125 2822 3475 
Q 2822 3834 2567 4026 
Q 2313 4219 1838 4219 
Q 1578 4219 1281 4162 
Q 984 4106 628 3988 
L 628 4550 
Q 988 4650 1302 4700 
Q 1616 4750 1894 4750 
Q 2613 4750 3031 4423 
Q 3450 4097 3450 3541 
Q 3450 3153 3228 2886 
Q 3006 2619 2597 2516 
z
" transform="scale(0.015625)"/>
       </defs>
       <use xlink:href="#DejaVuSans-44"/>
       <use xlink:href="#DejaVuSans-27" x="77.001953"/>
       <use xlink:href="#DejaVuSans-33" x="104.492188"/>
      </g>
     </g>
    </g>
    <g id="xtick_4">
     <g id="line2d_4"/>
     <g id="text_4">
      <!-- D'2 -->
      <g transform="translate(171.705078 6.838594) scale(0.09 -0.09)">
       <defs>
        <path id="DejaVuSans-32" d="M 1228 531 
L 3431 531 
L 3431 0 
L 469 0 
L 469 531 
Q 828 903 1448 1529 
Q 2069 2156 2228 2338 
Q 2531 2678 2651 2914 
Q 2772 3150 2772 3378 
Q 2772 3750 2511 3984 
Q 2250 4219 1831 4219 
Q 1534 4219 1204 4116 
Q 875 4013 500 3803 
L 500 4441 
Q 881 4594 1212 4672 
Q 1544 4750 1819 4750 
Q 2544 4750 2975 4387 
Q 3406 4025 3406 3419 
Q 3406 3131 3298 2873 
Q 3191 2616 2906 2266 
Q 2828 2175 2409 1742 
Q 1991 1309 1228 531 
z
" transform="scale(0.015625)"/>
       </defs>
       <use xlink:href="#DejaVuSans-44"/>
       <use xlink:href="#DejaVuSans-27" x="77.001953"/>
       <use xlink:href="#DejaVuSans-32" x="104.492188"/>
      </g>
     </g>
    </g>
    <g id="xtick_5">
     <g id="line2d_5"/>
     <g id="text_5">
      <!-- D'1 -->
      <g transform="translate(207.576507 6.838594) scale(0.09 -0.09)">
       <defs>
        <path id="DejaVuSans-31" d="M 794 531 
L 1825 531 
L 1825 4091 
L 703 3866 
L 703 4441 
L 1819 4666 
L 2450 4666 
L 2450 531 
L 3481 531 
L 3481 0 
L 794 0 
L 794 531 
z
" transform="scale(0.015625)"/>
       </defs>
       <use xlink:href="#DejaVuSans-44"/>
       <use xlink:href="#DejaVuSans-27" x="77.001953"/>
       <use xlink:href="#DejaVuSans-31" x="104.492188"/>
      </g>
     </g>
    </g>
    <g id="xtick_6">
     <g id="line2d_6"/>
     <g id="text_6">
      <!-- D'0 -->
      <g transform="translate(243.447935 6.838594) scale(0.09 -0.09)">
       <defs>
        <path id="DejaVuSans-30" d="M 2034 4250 
Q 1547 4250 1301 3770 
Q 1056 3291 1056 2328 
Q 1056 1369 1301 889 
Q 1547 409 2034 409 
Q 2525 409 2770 889 
Q 3016 1369 3016 2328 
Q 3016 3291 2770 3770 
Q 2525 4250 2034 4250 
z
M 2034 4750 
Q 2819 4750 3233 4129 
Q 3647 3509 3647 2328 
Q 3647 1150 3233 529 
Q 2819 -91 2034 -91 
Q 1250 -91 836 529 
Q 422 1150 422 2328 
Q 422 3509 836 4129 
Q 1250 4750 2034 4750 
z
" transform="scale(0.015625)"/>
       </defs>
       <use xlink:href="#DejaVuSans-44"/>
       <use xlink:href="#DejaVuSans-27" x="77.001953"/>
       <use xlink:href="#DejaVuSans-30" x="104.492188"/>
      </g>
     </g>
    </g>
    <g id="xtick_7">
     <g id="line2d_7"/>
     <g id="text_7">
      <!-- = -->
      <g transform="translate(283.113426 6.838594) scale(0.09 -0.09)">
       <defs>
        <path id="DejaVuSans-3d" d="M 678 2906 
L 4684 2906 
L 4684 2381 
L 678 2381 
L 678 2906 
z
M 678 1631 
L 4684 1631 
L 4684 1100 
L 678 1100 
L 678 1631 
z
" transform="scale(0.015625)"/>
       </defs>
       <use xlink:href="#DejaVuSans-3d"/>
      </g>
     </g>
    </g>
    <g id="xtick_8">
     <g id="line2d_8"/>
     <g id="text_8">
      <!-- A7 -->
      <g transform="translate(316.814308 6.838594) scale(0.09 -0.09)">
       <defs>
        <path id="DejaVuSans-41" d="M 2188 4044 
L 1331 1722 
L 3047 1722 
L 2188 4044 
z
M 1831 4666 
L 2547 4666 
L 4325 0 
L 3669 0 
L 3244 1197 
L 1141 1197 
L 716 0 
L 50 0 
L 1831 4666 
z
" transform="scale(0.015625)"/>
        <path id="DejaVuSans-37" d="M 525 4666 
L 3525 4666 
L 3525 4397 
L 1831 0 
L 1172 0 
L 2766 4134 
L 525 4134 
L 525 4666 
z
" transform="scale(0.015625)"/>
       </defs>
       <use xlink:href="#DejaVuSans-41"/>
       <use xlink:href="#DejaVuSans-37" x="68.408203"/>
      </g>
     </g>
    </g>
    <g id="xtick_9">
     <g id="line2d_9"/>
     <g id="text_9">
      <!-- A6 -->
      <g transform="translate(352.685737 6.838594) scale(0.09 -0.09)">
       <defs>
        <path id="DejaVuSans-36" d="M 2113 2584 
Q 1688 2584 1439 2293 
Q 1191 2003 1191 1497 
Q 1191 994 1439 701 
Q 1688 409 2113 409 
Q 2538 409 2786 701 
Q 3034 994 3034 1497 
Q 3034 2003 2786 2293 
Q 2538 2584 2113 2584 
z
M 3366 4563 
L 3366 3988 
Q 3128 4100 2886 4159 
Q 2644 4219 2406 4219 
Q 1781 4219 1451 3797 
Q 1122 3375 1075 2522 
Q 1259 2794 1537 2939 
Q 1816 3084 2150 3084 
Q 2853 3084 3261 2657 
Q 3669 2231 3669 1497 
Q 3669 778 3244 343 
Q 2819 -91 2113 -91 
Q 1303 -91 875 529 
Q 447 1150 447 2328 
Q 447 3434 972 4092 
Q 1497 4750 2381 4750 
Q 2619 4750 2861 4703 
Q 3103 4656 3366 4563 
z
" transform="scale(0.015625)"/>
       </defs>
       <use xlink:href="#DejaVuSans-41"/>
       <use xlink:href="#DejaVuSans-36" x="68.408203"/>
      </g>
     </g>
    </g>
    <g id="xtick_10">
     <g id="line2d_10"/>
     <g id="text_10">
      <!-- A5 -->
      <g transform="translate(388.557165 6.838594) scale(0.09 -0.09)">
       <use xlink:href="#DejaVuSans-41"/>
       <use xlink:href="#DejaVuSans-35" x="68.408203"/>
      </g>
     </g>
    </g>
    <g id="xtick_11">
     <g id="line2d_11"/>
     <g id="text_11">
      <!-- A4 -->
      <g transform="translate(424.428594 6.838594) scale(0.09 -0.09)">
       <defs>
        <path id="DejaVuSans-34" d="M 2419 4116 
L 825 1625 
L 2419 1625 
L 2419 4116 
z
M 2253 4666 
L 3047 4666 
L 3047 1625 
L 3713 1625 
L 3713 1100 
L 3047 1100 
L 3047 0 
L 2419 0 
L 2419 1100 
L 313 1100 
L 313 1709 
L 2253 4666 
z
" transform="scale(0.015625)"/>
       </defs>
       <use xlink:href="#DejaVuSans-41"/>
       <use xlink:href="#DejaVuSans-34" x="68.408203"/>
      </g>
     </g>
    </g>
    <g id="xtick_12">
     <g id="line2d_12"/>
     <g id="text_12">
      <!-- A3 -->
      <g transform="translate(460.300022 6.838594) scale(0.09 -0.09)">
       <use xlink:href="#DejaVuSans-41"/>
       <use xlink:href="#DejaVuSans-33" x="68.408203"/>
      </g>
     </g>
    </g>
    <g id="xtick_13">
     <g id="line2d_13"/>
     <g id="text_13">
      <!-- A2 -->
      <g transform="translate(496.171451 6.838594) scale(0.09 -0.09)">
       <use xlink:href="#DejaVuSans-41"/>
       <use xlink:href="#DejaVuSans-32" x="68.408203"/>
      </g>
     </g>
    </g>
    <g id="xtick_14">
     <g id="line2d_14"/>
     <g id="text_14">
      <!-- A1 -->
      <g transform="translate(532.042879 6.838594) scale(0.09 -0.09)">
       <use xlink:href="#DejaVuSans-41"/>
       <use xlink:href="#DejaVuSans-31" x="68.408203"/>
      </g>
     </g>
    </g>
   </g>
   <g id="matplotlib.axis_2">
    <g id="ytick_1">
     <g id="line2d_15"/>
     <g id="text_15">
      <!-- L2H2 -->
      <g transform="translate(0 337.653168) scale(0.1 -0.1)">
       <defs>
        <path id="DejaVuSans-4c" d="M 628 4666 
L 1259 4666 
L 1259 531 
L 3531 531 
L 3531 0 
L 628 0 
L 628 4666 
z
" transform="scale(0.015625)"/>
        <path id="DejaVuSans-48" d="M 628 4666 
L 1259 4666 
L 1259 2753 
L 3553 2753 
L 3553 4666 
L 4184 4666 
L 4184 0 
L 3553 0 
L 3553 2222 
L 1259 2222 
L 1259 0 
L 628 0 
L 628 4666 
z
" transform="scale(0.015625)"/>
       </defs>
       <use xlink:href="#DejaVuSans-4c"/>
       <use xlink:href="#DejaVuSans-32" x="55.712891"/>
       <use xlink:href="#DejaVuSans-48" x="119.335938"/>
       <use xlink:href="#DejaVuSans-32" x="194.53125"/>
      </g>
     </g>
    </g>
    <g id="ytick_2">
     <g id="line2d_16"/>
     <g id="text_16">
      <!-- L2H0 -->
      <g transform="translate(0 307.02044) scale(0.1 -0.1)">
       <use xlink:href="#DejaVuSans-4c"/>
       <use xlink:href="#DejaVuSans-32" x="55.712891"/>
       <use xlink:href="#DejaVuSans-48" x="119.335938"/>
       <use xlink:href="#DejaVuSans-30" x="194.53125"/>
      </g>
     </g>
    </g>
    <g id="ytick_3">
     <g id="line2d_17"/>
     <g id="text_17">
      <!-- L1MLP -->
      <g transform="translate(0 276.387713) scale(0.1 -0.1)">
       <defs>
        <path id="DejaVuSans-4d" d="M 628 4666 
L 1569 4666 
L 2759 1491 
L 3956 4666 
L 4897 4666 
L 4897 0 
L 4281 0 
L 4281 4097 
L 3078 897 
L 2444 897 
L 1241 4097 
L 1241 0 
L 628 0 
L 628 4666 
z
" transform="scale(0.015625)"/>
       </defs>
       <use xlink:href="#DejaVuSans-4c"/>
       <use xlink:href="#DejaVuSans-31" x="55.712891"/>
       <use xlink:href="#DejaVuSans-4d" x="119.335938"/>
       <use xlink:href="#DejaVuSans-4c" x="205.615234"/>
       <use xlink:href="#DejaVuSans-50" x="261.328125"/>
      </g>
     </g>
    </g>
    <g id="ytick_4">
     <g id="line2d_18"/>
     <g id="text_18">
      <!-- L1H3 -->
      <g transform="translate(0 245.754986) scale(0.1 -0.1)">
       <use xlink:href="#DejaVuSans-4c"/>
       <use xlink:href="#DejaVuSans-31" x="55.712891"/>
       <use xlink:href="#DejaVuSans-48" x="119.335938"/>
       <use xlink:href="#DejaVuSans-33" x="194.53125"/>
      </g>
     </g>
    </g>
    <g id="ytick_5">
     <g id="line2d_19"/>
     <g id="text_19">
      <!-- L1H2 -->
      <g transform="translate(0 215.122259) scale(0.1 -0.1)">
       <use xlink:href="#DejaVuSans-4c"/>
       <use xlink:href="#DejaVuSans-31" x="55.712891"/>
       <use xlink:href="#DejaVuSans-48" x="119.335938"/>
       <use xlink:href="#DejaVuSans-32" x="194.53125"/>
      </g>
     </g>
    </g>
    <g id="ytick_6">
     <g id="line2d_20"/>
     <g id="text_20">
      <!-- L1H1 -->
      <g transform="translate(0 184.489531) scale(0.1 -0.1)">
       <use xlink:href="#DejaVuSans-4c"/>
       <use xlink:href="#DejaVuSans-31" x="55.712891"/>
       <use xlink:href="#DejaVuSans-48" x="119.335938"/>
       <use xlink:href="#DejaVuSans-31" x="194.53125"/>
      </g>
     </g>
    </g>
    <g id="ytick_7">
     <g id="line2d_21"/>
     <g id="text_21">
      <!-- L0MLP -->
      <g transform="translate(0 153.856804) scale(0.1 -0.1)">
       <use xlink:href="#DejaVuSans-4c"/>
       <use xlink:href="#DejaVuSans-30" x="55.712891"/>
       <use xlink:href="#DejaVuSans-4d" x="119.335938"/>
       <use xlink:href="#DejaVuSans-4c" x="205.615234"/>
       <use xlink:href="#DejaVuSans-50" x="261.328125"/>
      </g>
     </g>
    </g>
    <g id="ytick_8">
     <g id="line2d_22"/>
     <g id="text_22">
      <!-- L0H3 -->
      <g transform="translate(0 123.224077) scale(0.1 -0.1)">
       <use xlink:href="#DejaVuSans-4c"/>
       <use xlink:href="#DejaVuSans-30" x="55.712891"/>
       <use xlink:href="#DejaVuSans-48" x="119.335938"/>
       <use xlink:href="#DejaVuSans-33" x="194.53125"/>
      </g>
     </g>
    </g>
    <g id="ytick_9">
     <g id="line2d_23"/>
     <g id="text_23">
      <!-- L0H2 -->
      <g transform="translate(0 92.591349) scale(0.1 -0.1)">
       <use xlink:href="#DejaVuSans-4c"/>
       <use xlink:href="#DejaVuSans-30" x="55.712891"/>
       <use xlink:href="#DejaVuSans-48" x="119.335938"/>
       <use xlink:href="#DejaVuSans-32" x="194.53125"/>
      </g>
     </g>
    </g>
    <g id="ytick_10">
     <g id="line2d_24"/>
     <g id="text_24">
      <!-- L0H1 -->
      <g transform="translate(0 61.958622) scale(0.1 -0.1)">
       <use xlink:href="#DejaVuSans-4c"/>
       <use xlink:href="#DejaVuSans-30" x="55.712891"/>
       <use xlink:href="#DejaVuSans-48" x="119.335938"/>
       <use xlink:href="#DejaVuSans-31" x="194.53125"/>
      </g>
     </g>
    </g>
    <g id="ytick_11">
     <g id="line2d_25"/>
     <g id="text_25">
      <!-- L0H0 -->
      <g transform="translate(0 31.325895) scale(0.1 -0.1)">
       <use xlink:href="#DejaVuSans-4c"/>
       <use xlink:href="#DejaVuSans-30" x="55.712891"/>
       <use xlink:href="#DejaVuSans-48" x="119.335938"/>
       <use xlink:href="#DejaVuSans-30" x="194.53125"/>
      </g>
     </g>
    </g>
   </g>
   <g id="patch_88">
    <path d="M 53.72 349.170312 
L 53.72 12.210312 
" style="fill: none; stroke: #000000; stroke-width: 0.8; stroke-linejoin: miter; stroke-linecap: square"/>
   </g>
   <g id="patch_89">
    <path d="M 555.92 349.170312 
L 555.92 12.210312 
" style="fill: none; stroke: #000000; stroke-width: 0.8; stroke-linejoin: miter; stroke-linecap: square"/>
   </g>
   <g id="patch_90">
    <path d="M 53.72 349.170312 
L 555.92 349.170312 
" style="fill: none; stroke: #000000; stroke-width: 0.8; stroke-linejoin: miter; stroke-linecap: square"/>
   </g>
   <g id="patch_91">
    <path d="M 53.72 12.210312 
L 555.92 12.210312 
" style="fill: none; stroke: #000000; stroke-width: 0.8; stroke-linejoin: miter; stroke-linecap: square"/>
   </g>
   <g id="text_26">
    <!-- N1 -->
    <g transform="translate(65.426027 121.908295) scale(0.09 -0.09)">
     <defs>
      <path id="DejaVuSans-4e" d="M 628 4666 
L 1478 4666 
L 3547 763 
L 3547 4666 
L 4159 4666 
L 4159 0 
L 3309 0 
L 1241 3903 
L 1241 0 
L 628 0 
L 628 4666 
z
" transform="scale(0.015625)"/>
     </defs>
     <use xlink:href="#DejaVuSans-4e"/>
     <use xlink:href="#DejaVuSans-31" x="74.804688"/>
    </g>
   </g>
   <g id="text_27">
    <!-- N1 -->
    <g transform="translate(101.297455 30.010114) scale(0.09 -0.09)">
     <use xlink:href="#DejaVuSans-4e"/>
     <use xlink:href="#DejaVuSans-31" x="74.804688"/>
    </g>
   </g>
   <g id="text_28">
    <!-- N1 -->
    <g transform="translate(137.168884 30.010114) scale(0.09 -0.09)">
     <use xlink:href="#DejaVuSans-4e"/>
     <use xlink:href="#DejaVuSans-31" x="74.804688"/>
    </g>
   </g>
   <g id="text_29">
    <!-- N1 -->
    <g transform="translate(137.168884 152.541023) scale(0.09 -0.09)">
     <use xlink:href="#DejaVuSans-4e"/>
     <use xlink:href="#DejaVuSans-31" x="74.804688"/>
    </g>
   </g>
   <g id="text_30">
    <!-- N1 -->
    <g transform="translate(173.040313 45.326477) scale(0.09 -0.09)">
     <use xlink:href="#DejaVuSans-4e"/>
     <use xlink:href="#DejaVuSans-31" x="74.804688"/>
    </g>
   </g>
   <g id="text_31">
    <!-- N1 -->
    <g transform="translate(173.040313 137.224659) scale(0.09 -0.09)">
     <use xlink:href="#DejaVuSans-4e"/>
     <use xlink:href="#DejaVuSans-31" x="74.804688"/>
    </g>
   </g>
   <g id="text_32">
    <!-- N1 -->
    <g transform="translate(208.911741 60.642841) scale(0.09 -0.09)">
     <use xlink:href="#DejaVuSans-4e"/>
     <use xlink:href="#DejaVuSans-31" x="74.804688"/>
    </g>
   </g>
   <g id="text_33">
    <!-- N1 -->
    <g transform="translate(208.911741 152.541023) scale(0.09 -0.09)">
     <use xlink:href="#DejaVuSans-4e"/>
     <use xlink:href="#DejaVuSans-31" x="74.804688"/>
    </g>
   </g>
   <g id="text_34">
    <!-- N1 -->
    <g transform="translate(244.78317 30.010114) scale(0.09 -0.09)">
     <use xlink:href="#DejaVuSans-4e"/>
     <use xlink:href="#DejaVuSans-31" x="74.804688"/>
    </g>
   </g>
   <g id="text_35">
    <!-- N1 -->
    <g transform="translate(244.78317 137.224659) scale(0.09 -0.09)">
     <use xlink:href="#DejaVuSans-4e"/>
     <use xlink:href="#DejaVuSans-31" x="74.804688"/>
    </g>
   </g>
   <g id="text_36">
    <!-- N1 -->
    <g transform="translate(244.78317 213.806477) scale(0.09 -0.09)">
     <use xlink:href="#DejaVuSans-4e"/>
     <use xlink:href="#DejaVuSans-31" x="74.804688"/>
    </g>
   </g>
   <g id="text_37">
    <!-- N1 -->
    <g transform="translate(244.78317 275.071932) scale(0.09 -0.09)">
     <use xlink:href="#DejaVuSans-4e"/>
     <use xlink:href="#DejaVuSans-31" x="74.804688"/>
    </g>
   </g>
   <g id="text_38">
    <!-- N1 -->
    <g transform="translate(280.654598 60.642841) scale(0.09 -0.09)">
     <use xlink:href="#DejaVuSans-4e"/>
     <use xlink:href="#DejaVuSans-31" x="74.804688"/>
    </g>
   </g>
   <g id="text_39">
    <!-- N1 -->
    <g transform="translate(280.654598 137.224659) scale(0.09 -0.09)">
     <use xlink:href="#DejaVuSans-4e"/>
     <use xlink:href="#DejaVuSans-31" x="74.804688"/>
    </g>
   </g>
   <g id="text_40">
    <!-- N1 -->
    <g transform="translate(280.654598 244.439205) scale(0.09 -0.09)">
     <use xlink:href="#DejaVuSans-4e"/>
     <use xlink:href="#DejaVuSans-31" x="74.804688"/>
    </g>
   </g>
   <g id="text_41">
    <!-- N1 -->
    <g transform="translate(280.654598 321.021023) scale(0.09 -0.09)">
     <use xlink:href="#DejaVuSans-4e"/>
     <use xlink:href="#DejaVuSans-31" x="74.804688"/>
    </g>
   </g>
   <g id="text_42">
    <!-- N1 -->
    <g transform="translate(316.526027 45.326477) scale(0.09 -0.09)">
     <use xlink:href="#DejaVuSans-4e"/>
     <use xlink:href="#DejaVuSans-31" x="74.804688"/>
    </g>
   </g>
   <g id="text_43">
    <!-- N1 -->
    <g transform="translate(316.526027 152.541023) scale(0.09 -0.09)">
     <use xlink:href="#DejaVuSans-4e"/>
     <use xlink:href="#DejaVuSans-31" x="74.804688"/>
    </g>
   </g>
   <g id="text_44">
    <!-- N1 -->
    <g transform="translate(352.397455 75.959205) scale(0.09 -0.09)">
     <use xlink:href="#DejaVuSans-4e"/>
     <use xlink:href="#DejaVuSans-31" x="74.804688"/>
    </g>
   </g>
   <g id="text_45">
    <!-- N1 -->
    <g transform="translate(352.397455 152.541023) scale(0.09 -0.09)">
     <use xlink:href="#DejaVuSans-4e"/>
     <use xlink:href="#DejaVuSans-31" x="74.804688"/>
    </g>
   </g>
   <g id="text_46">
    <!-- N1 -->
    <g transform="translate(388.268884 106.591932) scale(0.09 -0.09)">
     <use xlink:href="#DejaVuSans-4e"/>
     <use xlink:href="#DejaVuSans-31" x="74.804688"/>
    </g>
   </g>
   <g id="text_47">
    <!-- N1 -->
    <g transform="translate(388.268884 305.704659) scale(0.09 -0.09)">
     <use xlink:href="#DejaVuSans-4e"/>
     <use xlink:href="#DejaVuSans-31" x="74.804688"/>
    </g>
   </g>
   <g id="text_48">
    <!-- N1 -->
    <g transform="translate(424.140313 106.591932) scale(0.09 -0.09)">
     <use xlink:href="#DejaVuSans-4e"/>
     <use xlink:href="#DejaVuSans-31" x="74.804688"/>
    </g>
   </g>
   <g id="text_49">
    <!-- N1 -->
    <g transform="translate(424.140313 305.704659) scale(0.09 -0.09)">
     <use xlink:href="#DejaVuSans-4e"/>
     <use xlink:href="#DejaVuSans-31" x="74.804688"/>
    </g>
   </g>
   <g id="text_50">
    <!-- N1 -->
    <g transform="translate(460.011741 106.591932) scale(0.09 -0.09)">
     <use xlink:href="#DejaVuSans-4e"/>
     <use xlink:href="#DejaVuSans-31" x="74.804688"/>
    </g>
   </g>
   <g id="text_51">
    <!-- N3 -->
    <g transform="translate(460.011741 183.17375) scale(0.09 -0.09)">
     <use xlink:href="#DejaVuSans-4e"/>
     <use xlink:href="#DejaVuSans-33" x="74.804688"/>
    </g>
   </g>
   <g id="text_52">
    <!-- N2 -->
    <g transform="translate(460.011741 275.071932) scale(0.09 -0.09)">
     <use xlink:href="#DejaVuSans-4e"/>
     <use xlink:href="#DejaVuSans-32" x="74.804688"/>
    </g>
   </g>
   <g id="text_53">
    <!-- N1 -->
    <g transform="translate(495.88317 106.591932) scale(0.09 -0.09)">
     <use xlink:href="#DejaVuSans-4e"/>
     <use xlink:href="#DejaVuSans-31" x="74.804688"/>
    </g>
   </g>
   <g id="text_54">
    <!-- N2 -->
    <g transform="translate(531.754598 30.010114) scale(0.09 -0.09)">
     <use xlink:href="#DejaVuSans-4e"/>
     <use xlink:href="#DejaVuSans-32" x="74.804688"/>
    </g>
   </g>
   <g id="text_55">
    <!-- N1 -->
    <g transform="translate(531.754598 106.591932) scale(0.09 -0.09)">
     <use xlink:href="#DejaVuSans-4e"/>
     <use xlink:href="#DejaVuSans-31" x="74.804688"/>
    </g>
   </g>
   <g id="text_56">
    <!-- N2 -->
    <g transform="translate(531.754598 275.071932) scale(0.09 -0.09)">
     <use xlink:href="#DejaVuSans-4e"/>
     <use xlink:href="#DejaVuSans-32" x="74.804688"/>
    </g>
   </g>
   <g id="text_57">
    <!-- P0 -->
    <g transform="translate(66.07923 362.748106) scale(0.09 -0.09)">
     <use xlink:href="#DejaVuSans-50"/>
     <use xlink:href="#DejaVuSans-30" x="60.302734"/>
    </g>
   </g>
   <g id="text_58">
    <!-- P6 -->
    <g transform="translate(101.950658 362.748106) scale(0.09 -0.09)">
     <use xlink:href="#DejaVuSans-50"/>
     <use xlink:href="#DejaVuSans-36" x="60.302734"/>
    </g>
   </g>
   <g id="text_59">
    <!-- P9 -->
    <g transform="translate(137.822087 362.748106) scale(0.09 -0.09)">
     <defs>
      <path id="DejaVuSans-39" d="M 703 97 
L 703 672 
Q 941 559 1184 500 
Q 1428 441 1663 441 
Q 2288 441 2617 861 
Q 2947 1281 2994 2138 
Q 2813 1869 2534 1725 
Q 2256 1581 1919 1581 
Q 1219 1581 811 2004 
Q 403 2428 403 3163 
Q 403 3881 828 4315 
Q 1253 4750 1959 4750 
Q 2769 4750 3195 4129 
Q 3622 3509 3622 2328 
Q 3622 1225 3098 567 
Q 2575 -91 1691 -91 
Q 1453 -91 1209 -44 
Q 966 3 703 97 
z
M 1959 2075 
Q 2384 2075 2632 2365 
Q 2881 2656 2881 3163 
Q 2881 3666 2632 3958 
Q 2384 4250 1959 4250 
Q 1534 4250 1286 3958 
Q 1038 3666 1038 3163 
Q 1038 2656 1286 2365 
Q 1534 2075 1959 2075 
z
" transform="scale(0.015625)"/>
     </defs>
     <use xlink:href="#DejaVuSans-50"/>
     <use xlink:href="#DejaVuSans-39" x="60.302734"/>
    </g>
   </g>
   <g id="text_60">
    <!-- P10 -->
    <g transform="translate(170.830391 362.748106) scale(0.09 -0.09)">
     <use xlink:href="#DejaVuSans-50"/>
     <use xlink:href="#DejaVuSans-31" x="60.302734"/>
     <use xlink:href="#DejaVuSans-30" x="123.925781"/>
    </g>
   </g>
   <g id="text_61">
    <!-- P11 -->
    <g transform="translate(206.701819 362.748106) scale(0.09 -0.09)">
     <use xlink:href="#DejaVuSans-50"/>
     <use xlink:href="#DejaVuSans-31" x="60.302734"/>
     <use xlink:href="#DejaVuSans-31" x="123.925781"/>
    </g>
   </g>
   <g id="text_62">
    <!-- P12 -->
    <g transform="translate(242.573248 362.748106) scale(0.09 -0.09)">
     <use xlink:href="#DejaVuSans-50"/>
     <use xlink:href="#DejaVuSans-31" x="60.302734"/>
     <use xlink:href="#DejaVuSans-32" x="123.925781"/>
    </g>
   </g>
   <g id="text_63">
    <!-- P13 -->
    <g transform="translate(278.444676 362.748106) scale(0.09 -0.09)">
     <use xlink:href="#DejaVuSans-50"/>
     <use xlink:href="#DejaVuSans-31" x="60.302734"/>
     <use xlink:href="#DejaVuSans-33" x="123.925781"/>
    </g>
   </g>
   <g id="text_64">
    <!-- P14 -->
    <g transform="translate(314.316105 362.748106) scale(0.09 -0.09)">
     <use xlink:href="#DejaVuSans-50"/>
     <use xlink:href="#DejaVuSans-31" x="60.302734"/>
     <use xlink:href="#DejaVuSans-34" x="123.925781"/>
    </g>
   </g>
   <g id="text_65">
    <!-- P15 -->
    <g transform="translate(350.187533 362.748106) scale(0.09 -0.09)">
     <use xlink:href="#DejaVuSans-50"/>
     <use xlink:href="#DejaVuSans-31" x="60.302734"/>
     <use xlink:href="#DejaVuSans-35" x="123.925781"/>
    </g>
   </g>
   <g id="text_66">
    <!-- P16 -->
    <g transform="translate(386.058962 362.748106) scale(0.09 -0.09)">
     <use xlink:href="#DejaVuSans-50"/>
     <use xlink:href="#DejaVuSans-31" x="60.302734"/>
     <use xlink:href="#DejaVuSans-36" x="123.925781"/>
    </g>
   </g>
   <g id="text_67">
    <!-- P17 -->
    <g transform="translate(421.930391 362.748106) scale(0.09 -0.09)">
     <use xlink:href="#DejaVuSans-50"/>
     <use xlink:href="#DejaVuSans-31" x="60.302734"/>
     <use xlink:href="#DejaVuSans-37" x="123.925781"/>
    </g>
   </g>
   <g id="text_68">
    <!-- P18 -->
    <g transform="translate(457.801819 362.748106) scale(0.09 -0.09)">
     <defs>
      <path id="DejaVuSans-38" d="M 2034 2216 
Q 1584 2216 1326 1975 
Q 1069 1734 1069 1313 
Q 1069 891 1326 650 
Q 1584 409 2034 409 
Q 2484 409 2743 651 
Q 3003 894 3003 1313 
Q 3003 1734 2745 1975 
Q 2488 2216 2034 2216 
z
M 1403 2484 
Q 997 2584 770 2862 
Q 544 3141 544 3541 
Q 544 4100 942 4425 
Q 1341 4750 2034 4750 
Q 2731 4750 3128 4425 
Q 3525 4100 3525 3541 
Q 3525 3141 3298 2862 
Q 3072 2584 2669 2484 
Q 3125 2378 3379 2068 
Q 3634 1759 3634 1313 
Q 3634 634 3220 271 
Q 2806 -91 2034 -91 
Q 1263 -91 848 271 
Q 434 634 434 1313 
Q 434 1759 690 2068 
Q 947 2378 1403 2484 
z
M 1172 3481 
Q 1172 3119 1398 2916 
Q 1625 2713 2034 2713 
Q 2441 2713 2670 2916 
Q 2900 3119 2900 3481 
Q 2900 3844 2670 4047 
Q 2441 4250 2034 4250 
Q 1625 4250 1398 4047 
Q 1172 3844 1172 3481 
z
" transform="scale(0.015625)"/>
     </defs>
     <use xlink:href="#DejaVuSans-50"/>
     <use xlink:href="#DejaVuSans-31" x="60.302734"/>
     <use xlink:href="#DejaVuSans-38" x="123.925781"/>
    </g>
   </g>
   <g id="text_69">
    <!-- P19 -->
    <g transform="translate(493.673248 362.748106) scale(0.09 -0.09)">
     <use xlink:href="#DejaVuSans-50"/>
     <use xlink:href="#DejaVuSans-31" x="60.302734"/>
     <use xlink:href="#DejaVuSans-39" x="123.925781"/>
    </g>
   </g>
   <g id="text_70">
    <!-- P20 -->
    <g transform="translate(529.544676 362.748106) scale(0.09 -0.09)">
     <use xlink:href="#DejaVuSans-50"/>
     <use xlink:href="#DejaVuSans-32" x="60.302734"/>
     <use xlink:href="#DejaVuSans-30" x="123.925781"/>
    </g>
   </g>
  </g>
 </g>
 <defs>
  <clipPath id="p307151589b">
   <rect x="53.72" y="12.210312" width="502.2" height="336.96"/>
  </clipPath>
 </defs>
</svg>
