<?xml version="1.0" encoding="utf-8" standalone="no"?>
<!DOCTYPE svg PUBLIC "-//W3C//DTD SVG 1.1//EN"
  "http://www.w3.org/Graphics/SVG/1.1/DTD/svg11.dtd">
<svg xmlns:xlink="http://www.w3.org/1999/xlink" width="892.8pt" height="55.44pt" viewBox="0 0 892.8 55.44" xmlns="http://www.w3.org/2000/svg" version="1.1">
 <metadata>
  <rdf:RDF xmlns:dc="http://purl.org/dc/elements/1.1/" xmlns:cc="http://creativecommons.org/ns#" xmlns:rdf="http://www.w3.org/1999/02/22-rdf-syntax-ns#">
   <cc:Work>
    <dc:type rdf:resource="http://purl.org/dc/dcmitype/StillImage"/>
    <dc:date>2024-03-26T00:29:16.526474</dc:date>
    <dc:format>image/svg+xml</dc:format>
    <dc:creator>
     <cc:Agent>
      <dc:title>Matplotlib v3.7.1, https://matplotlib.org/</dc:title>
     </cc:Agent>
    </dc:creator>
   </cc:Work>
  </rdf:RDF>
 </metadata>
 <defs>
  <style type="text/css">*{stroke-linejoin: round; stroke-linecap: butt}</style>
 </defs>
 <g id="figure_1">
  <g id="patch_1">
   <path d="M 0 55.44 
L 892.8 55.44 
L 892.8 0 
L 0 0 
z
" style="fill: #ffffff"/>
  </g>
  <g id="axes_1">
   <g id="table_1">
    <g id="patch_2">
     <path d="M 0 18.72 
L 38.817391 18.72 
L 38.817391 0.72 
L 0 0.72 
z
" style="fill: #ffffff; stroke: #000000; stroke-linejoin: miter"/>
    </g>
    <g id="text_1">
     <!-- Posn -->
     <g transform="translate(7.742289 12.479375) scale(0.1 -0.1)">
      <defs>
       <path id="DejaVuSans-50" d="M 1259 4147 
L 1259 2394 
L 2053 2394 
Q 2494 2394 2734 2622 
Q 2975 2850 2975 3272 
Q 2975 3691 2734 3919 
Q 2494 4147 2053 4147 
L 1259 4147 
z
M 628 4666 
L 2053 4666 
Q 2838 4666 3239 4311 
Q 3641 3956 3641 3272 
Q 3641 2581 3239 2228 
Q 2838 1875 2053 1875 
L 1259 1875 
L 1259 0 
L 628 0 
L 628 4666 
z
" transform="scale(0.015625)"/>
       <path id="DejaVuSans-6f" d="M 1959 3097 
Q 1497 3097 1228 2736 
Q 959 2375 959 1747 
Q 959 1119 1226 758 
Q 1494 397 1959 397 
Q 2419 397 2687 759 
Q 2956 1122 2956 1747 
Q 2956 2369 2687 2733 
Q 2419 3097 1959 3097 
z
M 1959 3584 
Q 2709 3584 3137 3096 
Q 3566 2609 3566 1747 
Q 3566 888 3137 398 
Q 2709 -91 1959 -91 
Q 1206 -91 779 398 
Q 353 888 353 1747 
Q 353 2609 779 3096 
Q 1206 3584 1959 3584 
z
" transform="scale(0.015625)"/>
       <path id="DejaVuSans-73" d="M 2834 3397 
L 2834 2853 
Q 2591 2978 2328 3040 
Q 2066 3103 1784 3103 
Q 1356 3103 1142 2972 
Q 928 2841 928 2578 
Q 928 2378 1081 2264 
Q 1234 2150 1697 2047 
L 1894 2003 
Q 2506 1872 2764 1633 
Q 3022 1394 3022 966 
Q 3022 478 2636 193 
Q 2250 -91 1575 -91 
Q 1294 -91 989 -36 
Q 684 19 347 128 
L 347 722 
Q 666 556 975 473 
Q 1284 391 1588 391 
Q 1994 391 2212 530 
Q 2431 669 2431 922 
Q 2431 1156 2273 1281 
Q 2116 1406 1581 1522 
L 1381 1569 
Q 847 1681 609 1914 
Q 372 2147 372 2553 
Q 372 3047 722 3315 
Q 1072 3584 1716 3584 
Q 2034 3584 2315 3537 
Q 2597 3491 2834 3397 
z
" transform="scale(0.015625)"/>
       <path id="DejaVuSans-6e" d="M 3513 2113 
L 3513 0 
L 2938 0 
L 2938 2094 
Q 2938 2591 2744 2837 
Q 2550 3084 2163 3084 
Q 1697 3084 1428 2787 
Q 1159 2491 1159 1978 
L 1159 0 
L 581 0 
L 581 3500 
L 1159 3500 
L 1159 2956 
Q 1366 3272 1645 3428 
Q 1925 3584 2291 3584 
Q 2894 3584 3203 3211 
Q 3513 2838 3513 2113 
z
" transform="scale(0.015625)"/>
      </defs>
      <use xlink:href="#DejaVuSans-50"/>
      <use xlink:href="#DejaVuSans-6f" x="56.677734"/>
      <use xlink:href="#DejaVuSans-73" x="117.859375"/>
      <use xlink:href="#DejaVuSans-6e" x="169.958984"/>
     </g>
    </g>
    <g id="patch_3">
     <path d="M 38.817391 18.72 
L 77.634783 18.72 
L 77.634783 0.72 
L 38.817391 0.72 
z
" style="fill: #ffffff; stroke: #000000; stroke-linejoin: miter"/>
    </g>
    <g id="text_2">
     <!-- P0 -->
     <g transform="translate(52.029993 12.479375) scale(0.1 -0.1)">
      <defs>
       <path id="DejaVuSans-30" d="M 2034 4250 
Q 1547 4250 1301 3770 
Q 1056 3291 1056 2328 
Q 1056 1369 1301 889 
Q 1547 409 2034 409 
Q 2525 409 2770 889 
Q 3016 1369 3016 2328 
Q 3016 3291 2770 3770 
Q 2525 4250 2034 4250 
z
M 2034 4750 
Q 2819 4750 3233 4129 
Q 3647 3509 3647 2328 
Q 3647 1150 3233 529 
Q 2819 -91 2034 -91 
Q 1250 -91 836 529 
Q 422 1150 422 2328 
Q 422 3509 836 4129 
Q 1250 4750 2034 4750 
z
" transform="scale(0.015625)"/>
      </defs>
      <use xlink:href="#DejaVuSans-50"/>
      <use xlink:href="#DejaVuSans-30" x="60.302734"/>
     </g>
    </g>
    <g id="patch_4">
     <path d="M 77.634783 18.72 
L 116.452174 18.72 
L 116.452174 0.72 
L 77.634783 0.72 
z
" style="fill: #ffffff; stroke: #000000; stroke-linejoin: miter"/>
    </g>
    <g id="text_3">
     <!-- P1 -->
     <g transform="translate(90.847385 12.479375) scale(0.1 -0.1)">
      <defs>
       <path id="DejaVuSans-31" d="M 794 531 
L 1825 531 
L 1825 4091 
L 703 3866 
L 703 4441 
L 1819 4666 
L 2450 4666 
L 2450 531 
L 3481 531 
L 3481 0 
L 794 0 
L 794 531 
z
" transform="scale(0.015625)"/>
      </defs>
      <use xlink:href="#DejaVuSans-50"/>
      <use xlink:href="#DejaVuSans-31" x="60.302734"/>
     </g>
    </g>
    <g id="patch_5">
     <path d="M 116.452174 18.72 
L 155.269565 18.72 
L 155.269565 0.72 
L 116.452174 0.72 
z
" style="fill: #ffffff; stroke: #000000; stroke-linejoin: miter"/>
    </g>
    <g id="text_4">
     <!-- P2 -->
     <g transform="translate(129.664776 12.479375) scale(0.1 -0.1)">
      <defs>
       <path id="DejaVuSans-32" d="M 1228 531 
L 3431 531 
L 3431 0 
L 469 0 
L 469 531 
Q 828 903 1448 1529 
Q 2069 2156 2228 2338 
Q 2531 2678 2651 2914 
Q 2772 3150 2772 3378 
Q 2772 3750 2511 3984 
Q 2250 4219 1831 4219 
Q 1534 4219 1204 4116 
Q 875 4013 500 3803 
L 500 4441 
Q 881 4594 1212 4672 
Q 1544 4750 1819 4750 
Q 2544 4750 2975 4387 
Q 3406 4025 3406 3419 
Q 3406 3131 3298 2873 
Q 3191 2616 2906 2266 
Q 2828 2175 2409 1742 
Q 1991 1309 1228 531 
z
" transform="scale(0.015625)"/>
      </defs>
      <use xlink:href="#DejaVuSans-50"/>
      <use xlink:href="#DejaVuSans-32" x="60.302734"/>
     </g>
    </g>
    <g id="patch_6">
     <path d="M 155.269565 18.72 
L 194.086957 18.72 
L 194.086957 0.72 
L 155.269565 0.72 
z
" style="fill: #ffffff; stroke: #000000; stroke-linejoin: miter"/>
    </g>
    <g id="text_5">
     <!-- P3 -->
     <g transform="translate(168.482167 12.479375) scale(0.1 -0.1)">
      <defs>
       <path id="DejaVuSans-33" d="M 2597 2516 
Q 3050 2419 3304 2112 
Q 3559 1806 3559 1356 
Q 3559 666 3084 287 
Q 2609 -91 1734 -91 
Q 1441 -91 1130 -33 
Q 819 25 488 141 
L 488 750 
Q 750 597 1062 519 
Q 1375 441 1716 441 
Q 2309 441 2620 675 
Q 2931 909 2931 1356 
Q 2931 1769 2642 2001 
Q 2353 2234 1838 2234 
L 1294 2234 
L 1294 2753 
L 1863 2753 
Q 2328 2753 2575 2939 
Q 2822 3125 2822 3475 
Q 2822 3834 2567 4026 
Q 2313 4219 1838 4219 
Q 1578 4219 1281 4162 
Q 984 4106 628 3988 
L 628 4550 
Q 988 4650 1302 4700 
Q 1616 4750 1894 4750 
Q 2613 4750 3031 4423 
Q 3450 4097 3450 3541 
Q 3450 3153 3228 2886 
Q 3006 2619 2597 2516 
z
" transform="scale(0.015625)"/>
      </defs>
      <use xlink:href="#DejaVuSans-50"/>
      <use xlink:href="#DejaVuSans-33" x="60.302734"/>
     </g>
    </g>
    <g id="patch_7">
     <path d="M 194.086957 18.72 
L 232.904348 18.72 
L 232.904348 0.72 
L 194.086957 0.72 
z
" style="fill: #ffffff; stroke: #000000; stroke-linejoin: miter"/>
    </g>
    <g id="text_6">
     <!-- P4 -->
     <g transform="translate(207.299558 12.479375) scale(0.1 -0.1)">
      <defs>
       <path id="DejaVuSans-34" d="M 2419 4116 
L 825 1625 
L 2419 1625 
L 2419 4116 
z
M 2253 4666 
L 3047 4666 
L 3047 1625 
L 3713 1625 
L 3713 1100 
L 3047 1100 
L 3047 0 
L 2419 0 
L 2419 1100 
L 313 1100 
L 313 1709 
L 2253 4666 
z
" transform="scale(0.015625)"/>
      </defs>
      <use xlink:href="#DejaVuSans-50"/>
      <use xlink:href="#DejaVuSans-34" x="60.302734"/>
     </g>
    </g>
    <g id="patch_8">
     <path d="M 232.904348 18.72 
L 271.721739 18.72 
L 271.721739 0.72 
L 232.904348 0.72 
z
" style="fill: #ffffff; stroke: #000000; stroke-linejoin: miter"/>
    </g>
    <g id="text_7">
     <!-- P5 -->
     <g transform="translate(246.11695 12.479375) scale(0.1 -0.1)">
      <defs>
       <path id="DejaVuSans-35" d="M 691 4666 
L 3169 4666 
L 3169 4134 
L 1269 4134 
L 1269 2991 
Q 1406 3038 1543 3061 
Q 1681 3084 1819 3084 
Q 2600 3084 3056 2656 
Q 3513 2228 3513 1497 
Q 3513 744 3044 326 
Q 2575 -91 1722 -91 
Q 1428 -91 1123 -41 
Q 819 9 494 109 
L 494 744 
Q 775 591 1075 516 
Q 1375 441 1709 441 
Q 2250 441 2565 725 
Q 2881 1009 2881 1497 
Q 2881 1984 2565 2268 
Q 2250 2553 1709 2553 
Q 1456 2553 1204 2497 
Q 953 2441 691 2322 
L 691 4666 
z
" transform="scale(0.015625)"/>
      </defs>
      <use xlink:href="#DejaVuSans-50"/>
      <use xlink:href="#DejaVuSans-35" x="60.302734"/>
     </g>
    </g>
    <g id="patch_9">
     <path d="M 271.721739 18.72 
L 310.53913 18.72 
L 310.53913 0.72 
L 271.721739 0.72 
z
" style="fill: #ffffff; stroke: #000000; stroke-linejoin: miter"/>
    </g>
    <g id="text_8">
     <!-- P6 -->
     <g transform="translate(284.934341 12.479375) scale(0.1 -0.1)">
      <defs>
       <path id="DejaVuSans-36" d="M 2113 2584 
Q 1688 2584 1439 2293 
Q 1191 2003 1191 1497 
Q 1191 994 1439 701 
Q 1688 409 2113 409 
Q 2538 409 2786 701 
Q 3034 994 3034 1497 
Q 3034 2003 2786 2293 
Q 2538 2584 2113 2584 
z
M 3366 4563 
L 3366 3988 
Q 3128 4100 2886 4159 
Q 2644 4219 2406 4219 
Q 1781 4219 1451 3797 
Q 1122 3375 1075 2522 
Q 1259 2794 1537 2939 
Q 1816 3084 2150 3084 
Q 2853 3084 3261 2657 
Q 3669 2231 3669 1497 
Q 3669 778 3244 343 
Q 2819 -91 2113 -91 
Q 1303 -91 875 529 
Q 447 1150 447 2328 
Q 447 3434 972 4092 
Q 1497 4750 2381 4750 
Q 2619 4750 2861 4703 
Q 3103 4656 3366 4563 
z
" transform="scale(0.015625)"/>
      </defs>
      <use xlink:href="#DejaVuSans-50"/>
      <use xlink:href="#DejaVuSans-36" x="60.302734"/>
     </g>
    </g>
    <g id="patch_10">
     <path d="M 310.53913 18.72 
L 349.356522 18.72 
L 349.356522 0.72 
L 310.53913 0.72 
z
" style="fill: #ffffff; stroke: #000000; stroke-linejoin: miter"/>
    </g>
    <g id="text_9">
     <!-- P7 -->
     <g transform="translate(323.751732 12.479375) scale(0.1 -0.1)">
      <defs>
       <path id="DejaVuSans-37" d="M 525 4666 
L 3525 4666 
L 3525 4397 
L 1831 0 
L 1172 0 
L 2766 4134 
L 525 4134 
L 525 4666 
z
" transform="scale(0.015625)"/>
      </defs>
      <use xlink:href="#DejaVuSans-50"/>
      <use xlink:href="#DejaVuSans-37" x="60.302734"/>
     </g>
    </g>
    <g id="patch_11">
     <path d="M 349.356522 18.72 
L 388.173913 18.72 
L 388.173913 0.72 
L 349.356522 0.72 
z
" style="fill: #ffffff; stroke: #000000; stroke-linejoin: miter"/>
    </g>
    <g id="text_10">
     <!-- P8 -->
     <g transform="translate(362.569124 12.479375) scale(0.1 -0.1)">
      <defs>
       <path id="DejaVuSans-38" d="M 2034 2216 
Q 1584 2216 1326 1975 
Q 1069 1734 1069 1313 
Q 1069 891 1326 650 
Q 1584 409 2034 409 
Q 2484 409 2743 651 
Q 3003 894 3003 1313 
Q 3003 1734 2745 1975 
Q 2488 2216 2034 2216 
z
M 1403 2484 
Q 997 2584 770 2862 
Q 544 3141 544 3541 
Q 544 4100 942 4425 
Q 1341 4750 2034 4750 
Q 2731 4750 3128 4425 
Q 3525 4100 3525 3541 
Q 3525 3141 3298 2862 
Q 3072 2584 2669 2484 
Q 3125 2378 3379 2068 
Q 3634 1759 3634 1313 
Q 3634 634 3220 271 
Q 2806 -91 2034 -91 
Q 1263 -91 848 271 
Q 434 634 434 1313 
Q 434 1759 690 2068 
Q 947 2378 1403 2484 
z
M 1172 3481 
Q 1172 3119 1398 2916 
Q 1625 2713 2034 2713 
Q 2441 2713 2670 2916 
Q 2900 3119 2900 3481 
Q 2900 3844 2670 4047 
Q 2441 4250 2034 4250 
Q 1625 4250 1398 4047 
Q 1172 3844 1172 3481 
z
" transform="scale(0.015625)"/>
      </defs>
      <use xlink:href="#DejaVuSans-50"/>
      <use xlink:href="#DejaVuSans-38" x="60.302734"/>
     </g>
    </g>
    <g id="patch_12">
     <path d="M 388.173913 18.72 
L 426.991304 18.72 
L 426.991304 0.72 
L 388.173913 0.72 
z
" style="fill: #ffffff; stroke: #000000; stroke-linejoin: miter"/>
    </g>
    <g id="text_11">
     <!-- P9 -->
     <g transform="translate(401.386515 12.479375) scale(0.1 -0.1)">
      <defs>
       <path id="DejaVuSans-39" d="M 703 97 
L 703 672 
Q 941 559 1184 500 
Q 1428 441 1663 441 
Q 2288 441 2617 861 
Q 2947 1281 2994 2138 
Q 2813 1869 2534 1725 
Q 2256 1581 1919 1581 
Q 1219 1581 811 2004 
Q 403 2428 403 3163 
Q 403 3881 828 4315 
Q 1253 4750 1959 4750 
Q 2769 4750 3195 4129 
Q 3622 3509 3622 2328 
Q 3622 1225 3098 567 
Q 2575 -91 1691 -91 
Q 1453 -91 1209 -44 
Q 966 3 703 97 
z
M 1959 2075 
Q 2384 2075 2632 2365 
Q 2881 2656 2881 3163 
Q 2881 3666 2632 3958 
Q 2384 4250 1959 4250 
Q 1534 4250 1286 3958 
Q 1038 3666 1038 3163 
Q 1038 2656 1286 2365 
Q 1534 2075 1959 2075 
z
" transform="scale(0.015625)"/>
      </defs>
      <use xlink:href="#DejaVuSans-50"/>
      <use xlink:href="#DejaVuSans-39" x="60.302734"/>
     </g>
    </g>
    <g id="patch_13">
     <path d="M 426.991304 18.72 
L 465.808696 18.72 
L 465.808696 0.72 
L 426.991304 0.72 
z
" style="fill: #ffffff; stroke: #000000; stroke-linejoin: miter"/>
    </g>
    <g id="text_12">
     <!-- P10 -->
     <g transform="translate(437.022656 12.479375) scale(0.1 -0.1)">
      <use xlink:href="#DejaVuSans-50"/>
      <use xlink:href="#DejaVuSans-31" x="60.302734"/>
      <use xlink:href="#DejaVuSans-30" x="123.925781"/>
     </g>
    </g>
    <g id="patch_14">
     <path d="M 465.808696 18.72 
L 504.626087 18.72 
L 504.626087 0.72 
L 465.808696 0.72 
z
" style="fill: #ffffff; stroke: #000000; stroke-linejoin: miter"/>
    </g>
    <g id="text_13">
     <!-- P11 -->
     <g transform="translate(475.840048 12.479375) scale(0.1 -0.1)">
      <use xlink:href="#DejaVuSans-50"/>
      <use xlink:href="#DejaVuSans-31" x="60.302734"/>
      <use xlink:href="#DejaVuSans-31" x="123.925781"/>
     </g>
    </g>
    <g id="patch_15">
     <path d="M 504.626087 18.72 
L 543.443478 18.72 
L 543.443478 0.72 
L 504.626087 0.72 
z
" style="fill: #ffffff; stroke: #000000; stroke-linejoin: miter"/>
    </g>
    <g id="text_14">
     <!-- P12 -->
     <g transform="translate(514.657439 12.479375) scale(0.1 -0.1)">
      <use xlink:href="#DejaVuSans-50"/>
      <use xlink:href="#DejaVuSans-31" x="60.302734"/>
      <use xlink:href="#DejaVuSans-32" x="123.925781"/>
     </g>
    </g>
    <g id="patch_16">
     <path d="M 543.443478 18.72 
L 582.26087 18.72 
L 582.26087 0.72 
L 543.443478 0.72 
z
" style="fill: #ffffff; stroke: #000000; stroke-linejoin: miter"/>
    </g>
    <g id="text_15">
     <!-- P13 -->
     <g transform="translate(553.47483 12.479375) scale(0.1 -0.1)">
      <use xlink:href="#DejaVuSans-50"/>
      <use xlink:href="#DejaVuSans-31" x="60.302734"/>
      <use xlink:href="#DejaVuSans-33" x="123.925781"/>
     </g>
    </g>
    <g id="patch_17">
     <path d="M 582.26087 18.72 
L 621.078261 18.72 
L 621.078261 0.72 
L 582.26087 0.72 
z
" style="fill: #ffffff; stroke: #000000; stroke-linejoin: miter"/>
    </g>
    <g id="text_16">
     <!-- P14 -->
     <g transform="translate(592.292221 12.479375) scale(0.1 -0.1)">
      <use xlink:href="#DejaVuSans-50"/>
      <use xlink:href="#DejaVuSans-31" x="60.302734"/>
      <use xlink:href="#DejaVuSans-34" x="123.925781"/>
     </g>
    </g>
    <g id="patch_18">
     <path d="M 621.078261 18.72 
L 659.895652 18.72 
L 659.895652 0.72 
L 621.078261 0.72 
z
" style="fill: #ffffff; stroke: #000000; stroke-linejoin: miter"/>
    </g>
    <g id="text_17">
     <!-- P15 -->
     <g transform="translate(631.109613 12.479375) scale(0.1 -0.1)">
      <use xlink:href="#DejaVuSans-50"/>
      <use xlink:href="#DejaVuSans-31" x="60.302734"/>
      <use xlink:href="#DejaVuSans-35" x="123.925781"/>
     </g>
    </g>
    <g id="patch_19">
     <path d="M 659.895652 18.72 
L 698.713043 18.72 
L 698.713043 0.72 
L 659.895652 0.72 
z
" style="fill: #ffffff; stroke: #000000; stroke-linejoin: miter"/>
    </g>
    <g id="text_18">
     <!-- P16 -->
     <g transform="translate(669.927004 12.479375) scale(0.1 -0.1)">
      <use xlink:href="#DejaVuSans-50"/>
      <use xlink:href="#DejaVuSans-31" x="60.302734"/>
      <use xlink:href="#DejaVuSans-36" x="123.925781"/>
     </g>
    </g>
    <g id="patch_20">
     <path d="M 698.713043 18.72 
L 737.530435 18.72 
L 737.530435 0.72 
L 698.713043 0.72 
z
" style="fill: #ffffff; stroke: #000000; stroke-linejoin: miter"/>
    </g>
    <g id="text_19">
     <!-- P17 -->
     <g transform="translate(708.744395 12.479375) scale(0.1 -0.1)">
      <use xlink:href="#DejaVuSans-50"/>
      <use xlink:href="#DejaVuSans-31" x="60.302734"/>
      <use xlink:href="#DejaVuSans-37" x="123.925781"/>
     </g>
    </g>
    <g id="patch_21">
     <path d="M 737.530435 18.72 
L 776.347826 18.72 
L 776.347826 0.72 
L 737.530435 0.72 
z
" style="fill: #ffffff; stroke: #000000; stroke-linejoin: miter"/>
    </g>
    <g id="text_20">
     <!-- P18 -->
     <g transform="translate(747.561787 12.479375) scale(0.1 -0.1)">
      <use xlink:href="#DejaVuSans-50"/>
      <use xlink:href="#DejaVuSans-31" x="60.302734"/>
      <use xlink:href="#DejaVuSans-38" x="123.925781"/>
     </g>
    </g>
    <g id="patch_22">
     <path d="M 776.347826 18.72 
L 815.165217 18.72 
L 815.165217 0.72 
L 776.347826 0.72 
z
" style="fill: #ffffff; stroke: #000000; stroke-linejoin: miter"/>
    </g>
    <g id="text_21">
     <!-- P19 -->
     <g transform="translate(786.379178 12.479375) scale(0.1 -0.1)">
      <use xlink:href="#DejaVuSans-50"/>
      <use xlink:href="#DejaVuSans-31" x="60.302734"/>
      <use xlink:href="#DejaVuSans-39" x="123.925781"/>
     </g>
    </g>
    <g id="patch_23">
     <path d="M 815.165217 18.72 
L 853.982609 18.72 
L 853.982609 0.72 
L 815.165217 0.72 
z
" style="fill: #ffffff; stroke: #000000; stroke-linejoin: miter"/>
    </g>
    <g id="text_22">
     <!-- P20 -->
     <g transform="translate(825.196569 12.479375) scale(0.1 -0.1)">
      <use xlink:href="#DejaVuSans-50"/>
      <use xlink:href="#DejaVuSans-32" x="60.302734"/>
      <use xlink:href="#DejaVuSans-30" x="123.925781"/>
     </g>
    </g>
    <g id="patch_24">
     <path d="M 853.982609 18.72 
L 892.8 18.72 
L 892.8 0.72 
L 853.982609 0.72 
z
" style="fill: #ffffff; stroke: #000000; stroke-linejoin: miter"/>
    </g>
    <g id="text_23">
     <!-- P21 -->
     <g transform="translate(864.013961 12.479375) scale(0.1 -0.1)">
      <use xlink:href="#DejaVuSans-50"/>
      <use xlink:href="#DejaVuSans-32" x="60.302734"/>
      <use xlink:href="#DejaVuSans-31" x="123.925781"/>
     </g>
    </g>
    <g id="patch_25">
     <path d="M 0 36.72 
L 38.817391 36.72 
L 38.817391 18.72 
L 0 18.72 
z
" style="fill: #ffffff; stroke: #000000; stroke-linejoin: miter"/>
    </g>
    <g id="text_24">
     <!-- Posn -->
     <g transform="translate(7.742289 30.479375) scale(0.1 -0.1)">
      <use xlink:href="#DejaVuSans-50"/>
      <use xlink:href="#DejaVuSans-6f" x="56.677734"/>
      <use xlink:href="#DejaVuSans-73" x="117.859375"/>
      <use xlink:href="#DejaVuSans-6e" x="169.958984"/>
     </g>
    </g>
    <g id="patch_26">
     <path d="M 38.817391 36.72 
L 77.634783 36.72 
L 77.634783 18.72 
L 38.817391 18.72 
z
" style="fill: #ffffff; stroke: #000000; stroke-linejoin: miter"/>
    </g>
    <g id="text_25">
     <!-- D5 -->
     <g transform="translate(51.194837 30.479375) scale(0.1 -0.1)">
      <defs>
       <path id="DejaVuSans-44" d="M 1259 4147 
L 1259 519 
L 2022 519 
Q 2988 519 3436 956 
Q 3884 1394 3884 2338 
Q 3884 3275 3436 3711 
Q 2988 4147 2022 4147 
L 1259 4147 
z
M 628 4666 
L 1925 4666 
Q 3281 4666 3915 4102 
Q 4550 3538 4550 2338 
Q 4550 1131 3912 565 
Q 3275 0 1925 0 
L 628 0 
L 628 4666 
z
" transform="scale(0.015625)"/>
      </defs>
      <use xlink:href="#DejaVuSans-44"/>
      <use xlink:href="#DejaVuSans-35" x="77.001953"/>
     </g>
    </g>
    <g id="patch_27">
     <path d="M 77.634783 36.72 
L 116.452174 36.72 
L 116.452174 18.72 
L 77.634783 18.72 
z
" style="fill: #ffffff; stroke: #000000; stroke-linejoin: miter"/>
    </g>
    <g id="text_26">
     <!-- D4 -->
     <g transform="translate(90.012228 30.479375) scale(0.1 -0.1)">
      <use xlink:href="#DejaVuSans-44"/>
      <use xlink:href="#DejaVuSans-34" x="77.001953"/>
     </g>
    </g>
    <g id="patch_28">
     <path d="M 116.452174 36.72 
L 155.269565 36.72 
L 155.269565 18.72 
L 116.452174 18.72 
z
" style="fill: #ffffff; stroke: #000000; stroke-linejoin: miter"/>
    </g>
    <g id="text_27">
     <!-- D3 -->
     <g transform="translate(128.82962 30.479375) scale(0.1 -0.1)">
      <use xlink:href="#DejaVuSans-44"/>
      <use xlink:href="#DejaVuSans-33" x="77.001953"/>
     </g>
    </g>
    <g id="patch_29">
     <path d="M 155.269565 36.72 
L 194.086957 36.72 
L 194.086957 18.72 
L 155.269565 18.72 
z
" style="fill: #ffffff; stroke: #000000; stroke-linejoin: miter"/>
    </g>
    <g id="text_28">
     <!-- D2 -->
     <g transform="translate(167.647011 30.479375) scale(0.1 -0.1)">
      <use xlink:href="#DejaVuSans-44"/>
      <use xlink:href="#DejaVuSans-32" x="77.001953"/>
     </g>
    </g>
    <g id="patch_30">
     <path d="M 194.086957 36.72 
L 232.904348 36.72 
L 232.904348 18.72 
L 194.086957 18.72 
z
" style="fill: #ffffff; stroke: #000000; stroke-linejoin: miter"/>
    </g>
    <g id="text_29">
     <!-- D1 -->
     <g transform="translate(206.464402 30.479375) scale(0.1 -0.1)">
      <use xlink:href="#DejaVuSans-44"/>
      <use xlink:href="#DejaVuSans-31" x="77.001953"/>
     </g>
    </g>
    <g id="patch_31">
     <path d="M 232.904348 36.72 
L 271.721739 36.72 
L 271.721739 18.72 
L 232.904348 18.72 
z
" style="fill: #ffffff; stroke: #000000; stroke-linejoin: miter"/>
    </g>
    <g id="text_30">
     <!-- D0 -->
     <g transform="translate(245.281793 30.479375) scale(0.1 -0.1)">
      <use xlink:href="#DejaVuSans-44"/>
      <use xlink:href="#DejaVuSans-30" x="77.001953"/>
     </g>
    </g>
    <g id="patch_32">
     <path d="M 271.721739 36.72 
L 310.53913 36.72 
L 310.53913 18.72 
L 271.721739 18.72 
z
" style="fill: #ffffff; stroke: #000000; stroke-linejoin: miter"/>
    </g>
    <g id="text_31">
     <!-- Op -->
     <g transform="translate(284.020279 30.479375) scale(0.1 -0.1)">
      <defs>
       <path id="DejaVuSans-4f" d="M 2522 4238 
Q 1834 4238 1429 3725 
Q 1025 3213 1025 2328 
Q 1025 1447 1429 934 
Q 1834 422 2522 422 
Q 3209 422 3611 934 
Q 4013 1447 4013 2328 
Q 4013 3213 3611 3725 
Q 3209 4238 2522 4238 
z
M 2522 4750 
Q 3503 4750 4090 4092 
Q 4678 3434 4678 2328 
Q 4678 1225 4090 567 
Q 3503 -91 2522 -91 
Q 1538 -91 948 565 
Q 359 1222 359 2328 
Q 359 3434 948 4092 
Q 1538 4750 2522 4750 
z
" transform="scale(0.015625)"/>
       <path id="DejaVuSans-70" d="M 1159 525 
L 1159 -1331 
L 581 -1331 
L 581 3500 
L 1159 3500 
L 1159 2969 
Q 1341 3281 1617 3432 
Q 1894 3584 2278 3584 
Q 2916 3584 3314 3078 
Q 3713 2572 3713 1747 
Q 3713 922 3314 415 
Q 2916 -91 2278 -91 
Q 1894 -91 1617 61 
Q 1341 213 1159 525 
z
M 3116 1747 
Q 3116 2381 2855 2742 
Q 2594 3103 2138 3103 
Q 1681 3103 1420 2742 
Q 1159 2381 1159 1747 
Q 1159 1113 1420 752 
Q 1681 391 2138 391 
Q 2594 391 2855 752 
Q 3116 1113 3116 1747 
z
" transform="scale(0.015625)"/>
      </defs>
      <use xlink:href="#DejaVuSans-4f"/>
      <use xlink:href="#DejaVuSans-70" x="78.710938"/>
     </g>
    </g>
    <g id="patch_33">
     <path d="M 310.53913 36.72 
L 349.356522 36.72 
L 349.356522 18.72 
L 310.53913 18.72 
z
" style="fill: #ffffff; stroke: #000000; stroke-linejoin: miter"/>
    </g>
    <g id="text_32">
     <!-- D'5 -->
     <g transform="translate(321.542357 30.479375) scale(0.1 -0.1)">
      <defs>
       <path id="DejaVuSans-27" d="M 1147 4666 
L 1147 2931 
L 616 2931 
L 616 4666 
L 1147 4666 
z
" transform="scale(0.015625)"/>
      </defs>
      <use xlink:href="#DejaVuSans-44"/>
      <use xlink:href="#DejaVuSans-27" x="77.001953"/>
      <use xlink:href="#DejaVuSans-35" x="104.492188"/>
     </g>
    </g>
    <g id="patch_34">
     <path d="M 349.356522 36.72 
L 388.173913 36.72 
L 388.173913 18.72 
L 349.356522 18.72 
z
" style="fill: #ffffff; stroke: #000000; stroke-linejoin: miter"/>
    </g>
    <g id="text_33">
     <!-- D'4 -->
     <g transform="translate(360.359749 30.479375) scale(0.1 -0.1)">
      <use xlink:href="#DejaVuSans-44"/>
      <use xlink:href="#DejaVuSans-27" x="77.001953"/>
      <use xlink:href="#DejaVuSans-34" x="104.492188"/>
     </g>
    </g>
    <g id="patch_35">
     <path d="M 388.173913 36.72 
L 426.991304 36.72 
L 426.991304 18.72 
L 388.173913 18.72 
z
" style="fill: #ffffff; stroke: #000000; stroke-linejoin: miter"/>
    </g>
    <g id="text_34">
     <!-- D'3 -->
     <g transform="translate(399.17714 30.479375) scale(0.1 -0.1)">
      <use xlink:href="#DejaVuSans-44"/>
      <use xlink:href="#DejaVuSans-27" x="77.001953"/>
      <use xlink:href="#DejaVuSans-33" x="104.492188"/>
     </g>
    </g>
    <g id="patch_36">
     <path d="M 426.991304 36.72 
L 465.808696 36.72 
L 465.808696 18.72 
L 426.991304 18.72 
z
" style="fill: #ffffff; stroke: #000000; stroke-linejoin: miter"/>
    </g>
    <g id="text_35">
     <!-- D'2 -->
     <g transform="translate(437.994531 30.479375) scale(0.1 -0.1)">
      <use xlink:href="#DejaVuSans-44"/>
      <use xlink:href="#DejaVuSans-27" x="77.001953"/>
      <use xlink:href="#DejaVuSans-32" x="104.492188"/>
     </g>
    </g>
    <g id="patch_37">
     <path d="M 465.808696 36.72 
L 504.626087 36.72 
L 504.626087 18.72 
L 465.808696 18.72 
z
" style="fill: #ffffff; stroke: #000000; stroke-linejoin: miter"/>
    </g>
    <g id="text_36">
     <!-- D'1 -->
     <g transform="translate(476.811923 30.479375) scale(0.1 -0.1)">
      <use xlink:href="#DejaVuSans-44"/>
      <use xlink:href="#DejaVuSans-27" x="77.001953"/>
      <use xlink:href="#DejaVuSans-31" x="104.492188"/>
     </g>
    </g>
    <g id="patch_38">
     <path d="M 504.626087 36.72 
L 543.443478 36.72 
L 543.443478 18.72 
L 504.626087 18.72 
z
" style="fill: #ffffff; stroke: #000000; stroke-linejoin: miter"/>
    </g>
    <g id="text_37">
     <!-- D'0 -->
     <g transform="translate(515.629314 30.479375) scale(0.1 -0.1)">
      <use xlink:href="#DejaVuSans-44"/>
      <use xlink:href="#DejaVuSans-27" x="77.001953"/>
      <use xlink:href="#DejaVuSans-30" x="104.492188"/>
     </g>
    </g>
    <g id="patch_39">
     <path d="M 543.443478 36.72 
L 582.26087 36.72 
L 582.26087 18.72 
L 543.443478 18.72 
z
" style="fill: #ffffff; stroke: #000000; stroke-linejoin: miter"/>
    </g>
    <g id="text_38">
     <!-- = -->
     <g transform="translate(558.66233 30.479375) scale(0.1 -0.1)">
      <defs>
       <path id="DejaVuSans-3d" d="M 678 2906 
L 4684 2906 
L 4684 2381 
L 678 2381 
L 678 2906 
z
M 678 1631 
L 4684 1631 
L 4684 1100 
L 678 1100 
L 678 1631 
z
" transform="scale(0.015625)"/>
      </defs>
      <use xlink:href="#DejaVuSans-3d"/>
     </g>
    </g>
    <g id="patch_40">
     <path d="M 582.26087 36.72 
L 621.078261 36.72 
L 621.078261 18.72 
L 582.26087 18.72 
z
" style="fill: #ffffff; stroke: #000000; stroke-linejoin: miter"/>
    </g>
    <g id="text_39">
     <!-- A7 -->
     <g transform="translate(595.068003 30.479375) scale(0.1 -0.1)">
      <defs>
       <path id="DejaVuSans-41" d="M 2188 4044 
L 1331 1722 
L 3047 1722 
L 2188 4044 
z
M 1831 4666 
L 2547 4666 
L 4325 0 
L 3669 0 
L 3244 1197 
L 1141 1197 
L 716 0 
L 50 0 
L 1831 4666 
z
" transform="scale(0.015625)"/>
      </defs>
      <use xlink:href="#DejaVuSans-41"/>
      <use xlink:href="#DejaVuSans-37" x="68.408203"/>
     </g>
    </g>
    <g id="patch_41">
     <path d="M 621.078261 36.72 
L 659.895652 36.72 
L 659.895652 18.72 
L 621.078261 18.72 
z
" style="fill: #ffffff; stroke: #000000; stroke-linejoin: miter"/>
    </g>
    <g id="text_40">
     <!-- A6 -->
     <g transform="translate(633.885394 30.479375) scale(0.1 -0.1)">
      <use xlink:href="#DejaVuSans-41"/>
      <use xlink:href="#DejaVuSans-36" x="68.408203"/>
     </g>
    </g>
    <g id="patch_42">
     <path d="M 659.895652 36.72 
L 698.713043 36.72 
L 698.713043 18.72 
L 659.895652 18.72 
z
" style="fill: #ffffff; stroke: #000000; stroke-linejoin: miter"/>
    </g>
    <g id="text_41">
     <!-- A5 -->
     <g transform="translate(672.702785 30.479375) scale(0.1 -0.1)">
      <use xlink:href="#DejaVuSans-41"/>
      <use xlink:href="#DejaVuSans-35" x="68.408203"/>
     </g>
    </g>
    <g id="patch_43">
     <path d="M 698.713043 36.72 
L 737.530435 36.72 
L 737.530435 18.72 
L 698.713043 18.72 
z
" style="fill: #ffffff; stroke: #000000; stroke-linejoin: miter"/>
    </g>
    <g id="text_42">
     <!-- A4 -->
     <g transform="translate(711.520177 30.479375) scale(0.1 -0.1)">
      <use xlink:href="#DejaVuSans-41"/>
      <use xlink:href="#DejaVuSans-34" x="68.408203"/>
     </g>
    </g>
    <g id="patch_44">
     <path d="M 737.530435 36.72 
L 776.347826 36.72 
L 776.347826 18.72 
L 737.530435 18.72 
z
" style="fill: #ffffff; stroke: #000000; stroke-linejoin: miter"/>
    </g>
    <g id="text_43">
     <!-- A3 -->
     <g transform="translate(750.337568 30.479375) scale(0.1 -0.1)">
      <use xlink:href="#DejaVuSans-41"/>
      <use xlink:href="#DejaVuSans-33" x="68.408203"/>
     </g>
    </g>
    <g id="patch_45">
     <path d="M 776.347826 36.72 
L 815.165217 36.72 
L 815.165217 18.72 
L 776.347826 18.72 
z
" style="fill: #ffffff; stroke: #000000; stroke-linejoin: miter"/>
    </g>
    <g id="text_44">
     <!-- A2 -->
     <g transform="translate(789.154959 30.479375) scale(0.1 -0.1)">
      <use xlink:href="#DejaVuSans-41"/>
      <use xlink:href="#DejaVuSans-32" x="68.408203"/>
     </g>
    </g>
    <g id="patch_46">
     <path d="M 815.165217 36.72 
L 853.982609 36.72 
L 853.982609 18.72 
L 815.165217 18.72 
z
" style="fill: #ffffff; stroke: #000000; stroke-linejoin: miter"/>
    </g>
    <g id="text_45">
     <!-- A1 -->
     <g transform="translate(827.972351 30.479375) scale(0.1 -0.1)">
      <use xlink:href="#DejaVuSans-41"/>
      <use xlink:href="#DejaVuSans-31" x="68.408203"/>
     </g>
    </g>
    <g id="patch_47">
     <path d="M 853.982609 36.72 
L 892.8 36.72 
L 892.8 18.72 
L 853.982609 18.72 
z
" style="fill: #ffffff; stroke: #000000; stroke-linejoin: miter"/>
    </g>
    <g id="text_46">
     <!-- A0 -->
     <g transform="translate(866.789742 30.479375) scale(0.1 -0.1)">
      <use xlink:href="#DejaVuSans-41"/>
      <use xlink:href="#DejaVuSans-30" x="68.408203"/>
     </g>
    </g>
    <g id="patch_48">
     <path d="M 0 54.72 
L 38.817391 54.72 
L 38.817391 36.72 
L 0 36.72 
z
" style="fill: #ffffff; stroke: #000000; stroke-linejoin: miter"/>
    </g>
    <g id="text_47">
     <!-- # fails -->
     <g transform="translate(3.422758 48.479375) scale(0.1 -0.1)">
      <defs>
       <path id="DejaVuSans-23" d="M 3272 2816 
L 2363 2816 
L 2100 1772 
L 3016 1772 
L 3272 2816 
z
M 2803 4594 
L 2478 3297 
L 3391 3297 
L 3719 4594 
L 4219 4594 
L 3897 3297 
L 4872 3297 
L 4872 2816 
L 3775 2816 
L 3519 1772 
L 4513 1772 
L 4513 1294 
L 3397 1294 
L 3072 0 
L 2572 0 
L 2894 1294 
L 1978 1294 
L 1656 0 
L 1153 0 
L 1478 1294 
L 494 1294 
L 494 1772 
L 1594 1772 
L 1856 2816 
L 850 2816 
L 850 3297 
L 1978 3297 
L 2297 4594 
L 2803 4594 
z
" transform="scale(0.015625)"/>
       <path id="DejaVuSans-20" transform="scale(0.015625)"/>
       <path id="DejaVuSans-66" d="M 2375 4863 
L 2375 4384 
L 1825 4384 
Q 1516 4384 1395 4259 
Q 1275 4134 1275 3809 
L 1275 3500 
L 2222 3500 
L 2222 3053 
L 1275 3053 
L 1275 0 
L 697 0 
L 697 3053 
L 147 3053 
L 147 3500 
L 697 3500 
L 697 3744 
Q 697 4328 969 4595 
Q 1241 4863 1831 4863 
L 2375 4863 
z
" transform="scale(0.015625)"/>
       <path id="DejaVuSans-61" d="M 2194 1759 
Q 1497 1759 1228 1600 
Q 959 1441 959 1056 
Q 959 750 1161 570 
Q 1363 391 1709 391 
Q 2188 391 2477 730 
Q 2766 1069 2766 1631 
L 2766 1759 
L 2194 1759 
z
M 3341 1997 
L 3341 0 
L 2766 0 
L 2766 531 
Q 2569 213 2275 61 
Q 1981 -91 1556 -91 
Q 1019 -91 701 211 
Q 384 513 384 1019 
Q 384 1609 779 1909 
Q 1175 2209 1959 2209 
L 2766 2209 
L 2766 2266 
Q 2766 2663 2505 2880 
Q 2244 3097 1772 3097 
Q 1472 3097 1187 3025 
Q 903 2953 641 2809 
L 641 3341 
Q 956 3463 1253 3523 
Q 1550 3584 1831 3584 
Q 2591 3584 2966 3190 
Q 3341 2797 3341 1997 
z
" transform="scale(0.015625)"/>
       <path id="DejaVuSans-69" d="M 603 3500 
L 1178 3500 
L 1178 0 
L 603 0 
L 603 3500 
z
M 603 4863 
L 1178 4863 
L 1178 4134 
L 603 4134 
L 603 4863 
z
" transform="scale(0.015625)"/>
       <path id="DejaVuSans-6c" d="M 603 4863 
L 1178 4863 
L 1178 0 
L 603 0 
L 603 4863 
z
" transform="scale(0.015625)"/>
      </defs>
      <use xlink:href="#DejaVuSans-23"/>
      <use xlink:href="#DejaVuSans-20" x="83.789062"/>
      <use xlink:href="#DejaVuSans-66" x="115.576172"/>
      <use xlink:href="#DejaVuSans-61" x="150.78125"/>
      <use xlink:href="#DejaVuSans-69" x="212.060547"/>
      <use xlink:href="#DejaVuSans-6c" x="239.84375"/>
      <use xlink:href="#DejaVuSans-73" x="267.626953"/>
     </g>
    </g>
    <g id="patch_49">
     <path d="M 38.817391 54.72 
L 77.634783 54.72 
L 77.634783 36.72 
L 38.817391 36.72 
z
" style="fill: #ffffff; stroke: #000000; stroke-linejoin: miter"/>
    </g>
    <g id="text_48">
     <!-- 45 -->
     <g transform="translate(51.863587 48.479375) scale(0.1 -0.1)">
      <use xlink:href="#DejaVuSans-34"/>
      <use xlink:href="#DejaVuSans-35" x="63.623047"/>
     </g>
    </g>
    <g id="patch_50">
     <path d="M 77.634783 54.72 
L 116.452174 54.72 
L 116.452174 36.72 
L 77.634783 36.72 
z
" style="fill: #ffffff; stroke: #000000; stroke-linejoin: miter"/>
    </g>
    <g id="text_49">
     <!-- . -->
     <g transform="translate(95.454416 48.479375) scale(0.1 -0.1)">
      <defs>
       <path id="DejaVuSans-2e" d="M 684 794 
L 1344 794 
L 1344 0 
L 684 0 
L 684 794 
z
" transform="scale(0.015625)"/>
      </defs>
      <use xlink:href="#DejaVuSans-2e"/>
     </g>
    </g>
    <g id="patch_51">
     <path d="M 116.452174 54.72 
L 155.269565 54.72 
L 155.269565 36.72 
L 116.452174 36.72 
z
" style="fill: #ffffff; stroke: #000000; stroke-linejoin: miter"/>
    </g>
    <g id="text_50">
     <!-- . -->
     <g transform="translate(134.271807 48.479375) scale(0.1 -0.1)">
      <use xlink:href="#DejaVuSans-2e"/>
     </g>
    </g>
    <g id="patch_52">
     <path d="M 155.269565 54.72 
L 194.086957 54.72 
L 194.086957 36.72 
L 155.269565 36.72 
z
" style="fill: #ffffff; stroke: #000000; stroke-linejoin: miter"/>
    </g>
    <g id="text_51">
     <!-- . -->
     <g transform="translate(173.089198 48.479375) scale(0.1 -0.1)">
      <use xlink:href="#DejaVuSans-2e"/>
     </g>
    </g>
    <g id="patch_53">
     <path d="M 194.086957 54.72 
L 232.904348 54.72 
L 232.904348 36.72 
L 194.086957 36.72 
z
" style="fill: #ffffff; stroke: #000000; stroke-linejoin: miter"/>
    </g>
    <g id="text_52">
     <!-- . -->
     <g transform="translate(211.90659 48.479375) scale(0.1 -0.1)">
      <use xlink:href="#DejaVuSans-2e"/>
     </g>
    </g>
    <g id="patch_54">
     <path d="M 232.904348 54.72 
L 271.721739 54.72 
L 271.721739 36.72 
L 232.904348 36.72 
z
" style="fill: #ffffff; stroke: #000000; stroke-linejoin: miter"/>
    </g>
    <g id="text_53">
     <!-- . -->
     <g transform="translate(250.723981 48.479375) scale(0.1 -0.1)">
      <use xlink:href="#DejaVuSans-2e"/>
     </g>
    </g>
    <g id="patch_55">
     <path d="M 271.721739 54.72 
L 310.53913 54.72 
L 310.53913 36.72 
L 271.721739 36.72 
z
" style="fill: #ffffff; stroke: #000000; stroke-linejoin: miter"/>
    </g>
    <g id="text_54">
     <!-- 38 -->
     <g transform="translate(284.767935 48.479375) scale(0.1 -0.1)">
      <use xlink:href="#DejaVuSans-33"/>
      <use xlink:href="#DejaVuSans-38" x="63.623047"/>
     </g>
    </g>
    <g id="patch_56">
     <path d="M 310.53913 54.72 
L 349.356522 54.72 
L 349.356522 36.72 
L 310.53913 36.72 
z
" style="fill: #ffffff; stroke: #000000; stroke-linejoin: miter"/>
    </g>
    <g id="text_55">
     <!-- . -->
     <g transform="translate(328.358764 48.479375) scale(0.1 -0.1)">
      <use xlink:href="#DejaVuSans-2e"/>
     </g>
    </g>
    <g id="patch_57">
     <path d="M 349.356522 54.72 
L 388.173913 54.72 
L 388.173913 36.72 
L 349.356522 36.72 
z
" style="fill: #ffffff; stroke: #000000; stroke-linejoin: miter"/>
    </g>
    <g id="text_56">
     <!-- . -->
     <g transform="translate(367.176155 48.479375) scale(0.1 -0.1)">
      <use xlink:href="#DejaVuSans-2e"/>
     </g>
    </g>
    <g id="patch_58">
     <path d="M 388.173913 54.72 
L 426.991304 54.72 
L 426.991304 36.72 
L 388.173913 36.72 
z
" style="fill: #ffffff; stroke: #000000; stroke-linejoin: miter"/>
    </g>
    <g id="text_57">
     <!-- 69 -->
     <g transform="translate(401.220109 48.479375) scale(0.1 -0.1)">
      <use xlink:href="#DejaVuSans-36"/>
      <use xlink:href="#DejaVuSans-39" x="63.623047"/>
     </g>
    </g>
    <g id="patch_59">
     <path d="M 426.991304 54.72 
L 465.808696 54.72 
L 465.808696 36.72 
L 426.991304 36.72 
z
" style="fill: #ffffff; stroke: #000000; stroke-linejoin: miter"/>
    </g>
    <g id="text_58">
     <!-- 111 -->
     <g transform="translate(436.85625 48.479375) scale(0.1 -0.1)">
      <use xlink:href="#DejaVuSans-31"/>
      <use xlink:href="#DejaVuSans-31" x="63.623047"/>
      <use xlink:href="#DejaVuSans-31" x="127.246094"/>
     </g>
    </g>
    <g id="patch_60">
     <path d="M 465.808696 54.72 
L 504.626087 54.72 
L 504.626087 36.72 
L 465.808696 36.72 
z
" style="fill: #ffffff; stroke: #000000; stroke-linejoin: miter"/>
    </g>
    <g id="text_59">
     <!-- 69 -->
     <g transform="translate(478.854891 48.479375) scale(0.1 -0.1)">
      <use xlink:href="#DejaVuSans-36"/>
      <use xlink:href="#DejaVuSans-39" x="63.623047"/>
     </g>
    </g>
    <g id="patch_61">
     <path d="M 504.626087 54.72 
L 543.443478 54.72 
L 543.443478 36.72 
L 504.626087 36.72 
z
" style="fill: #ffffff; stroke: #000000; stroke-linejoin: miter"/>
    </g>
    <g id="text_60">
     <!-- 169 -->
     <g transform="translate(514.491033 48.479375) scale(0.1 -0.1)">
      <use xlink:href="#DejaVuSans-31"/>
      <use xlink:href="#DejaVuSans-36" x="63.623047"/>
      <use xlink:href="#DejaVuSans-39" x="127.246094"/>
     </g>
    </g>
    <g id="patch_62">
     <path d="M 543.443478 54.72 
L 582.26087 54.72 
L 582.26087 36.72 
L 543.443478 36.72 
z
" style="fill: #ffffff; stroke: #000000; stroke-linejoin: miter"/>
    </g>
    <g id="text_61">
     <!-- 107 -->
     <g transform="translate(553.308424 48.479375) scale(0.1 -0.1)">
      <use xlink:href="#DejaVuSans-31"/>
      <use xlink:href="#DejaVuSans-30" x="63.623047"/>
      <use xlink:href="#DejaVuSans-37" x="127.246094"/>
     </g>
    </g>
    <g id="patch_63">
     <path d="M 582.26087 54.72 
L 621.078261 54.72 
L 621.078261 36.72 
L 582.26087 36.72 
z
" style="fill: #ffffff; stroke: #000000; stroke-linejoin: miter"/>
    </g>
    <g id="text_62">
     <!-- 177 -->
     <g transform="translate(592.125815 48.479375) scale(0.1 -0.1)">
      <use xlink:href="#DejaVuSans-31"/>
      <use xlink:href="#DejaVuSans-37" x="63.623047"/>
      <use xlink:href="#DejaVuSans-37" x="127.246094"/>
     </g>
    </g>
    <g id="patch_64">
     <path d="M 621.078261 54.72 
L 659.895652 54.72 
L 659.895652 36.72 
L 621.078261 36.72 
z
" style="fill: #ffffff; stroke: #000000; stroke-linejoin: miter"/>
    </g>
    <g id="text_63">
     <!-- 235 -->
     <g transform="translate(630.943207 48.479375) scale(0.1 -0.1)">
      <use xlink:href="#DejaVuSans-32"/>
      <use xlink:href="#DejaVuSans-33" x="63.623047"/>
      <use xlink:href="#DejaVuSans-35" x="127.246094"/>
     </g>
    </g>
    <g id="patch_65">
     <path d="M 659.895652 54.72 
L 698.713043 54.72 
L 698.713043 36.72 
L 659.895652 36.72 
z
" style="fill: #ffffff; stroke: #000000; stroke-linejoin: miter"/>
    </g>
    <g id="text_64">
     <!-- 405 -->
     <g transform="translate(669.760598 48.479375) scale(0.1 -0.1)">
      <use xlink:href="#DejaVuSans-34"/>
      <use xlink:href="#DejaVuSans-30" x="63.623047"/>
      <use xlink:href="#DejaVuSans-35" x="127.246094"/>
     </g>
    </g>
    <g id="patch_66">
     <path d="M 698.713043 54.72 
L 737.530435 54.72 
L 737.530435 36.72 
L 698.713043 36.72 
z
" style="fill: #ffffff; stroke: #000000; stroke-linejoin: miter"/>
    </g>
    <g id="text_65">
     <!-- 398 -->
     <g transform="translate(708.577989 48.479375) scale(0.1 -0.1)">
      <use xlink:href="#DejaVuSans-33"/>
      <use xlink:href="#DejaVuSans-39" x="63.623047"/>
      <use xlink:href="#DejaVuSans-38" x="127.246094"/>
     </g>
    </g>
    <g id="patch_67">
     <path d="M 737.530435 54.72 
L 776.347826 54.72 
L 776.347826 36.72 
L 737.530435 36.72 
z
" style="fill: #ffffff; stroke: #000000; stroke-linejoin: miter"/>
    </g>
    <g id="text_66">
     <!-- 491 -->
     <g transform="translate(747.39538 48.479375) scale(0.1 -0.1)">
      <use xlink:href="#DejaVuSans-34"/>
      <use xlink:href="#DejaVuSans-39" x="63.623047"/>
      <use xlink:href="#DejaVuSans-31" x="127.246094"/>
     </g>
    </g>
    <g id="patch_68">
     <path d="M 776.347826 54.72 
L 815.165217 54.72 
L 815.165217 36.72 
L 776.347826 36.72 
z
" style="fill: #ffffff; stroke: #000000; stroke-linejoin: miter"/>
    </g>
    <g id="text_67">
     <!-- 455 -->
     <g transform="translate(786.212772 48.479375) scale(0.1 -0.1)">
      <use xlink:href="#DejaVuSans-34"/>
      <use xlink:href="#DejaVuSans-35" x="63.623047"/>
      <use xlink:href="#DejaVuSans-35" x="127.246094"/>
     </g>
    </g>
    <g id="patch_69">
     <path d="M 815.165217 54.72 
L 853.982609 54.72 
L 853.982609 36.72 
L 815.165217 36.72 
z
" style="fill: #ffffff; stroke: #000000; stroke-linejoin: miter"/>
    </g>
    <g id="text_68">
     <!-- 491 -->
     <g transform="translate(825.030163 48.479375) scale(0.1 -0.1)">
      <use xlink:href="#DejaVuSans-34"/>
      <use xlink:href="#DejaVuSans-39" x="63.623047"/>
      <use xlink:href="#DejaVuSans-31" x="127.246094"/>
     </g>
    </g>
    <g id="patch_70">
     <path d="M 853.982609 54.72 
L 892.8 54.72 
L 892.8 36.72 
L 853.982609 36.72 
z
" style="fill: #ffffff; stroke: #000000; stroke-linejoin: miter"/>
    </g>
    <g id="text_69">
     <!-- . -->
     <g transform="translate(871.802242 48.479375) scale(0.1 -0.1)">
      <use xlink:href="#DejaVuSans-2e"/>
     </g>
    </g>
   </g>
  </g>
 </g>
</svg>
