<?xml version="1.0" encoding="utf-8" standalone="no"?>
<!DOCTYPE svg PUBLIC "-//W3C//DTD SVG 1.1//EN"
  "http://www.w3.org/Graphics/SVG/1.1/DTD/svg11.dtd">
<svg xmlns:xlink="http://www.w3.org/1999/xlink" width="412.7pt" height="134.752625pt" viewBox="0 0 412.7 134.752625" xmlns="http://www.w3.org/2000/svg" version="1.1">
 <metadata>
  <rdf:RDF xmlns:dc="http://purl.org/dc/elements/1.1/" xmlns:cc="http://creativecommons.org/ns#" xmlns:rdf="http://www.w3.org/1999/02/22-rdf-syntax-ns#">
   <cc:Work>
    <dc:type rdf:resource="http://purl.org/dc/dcmitype/StillImage"/>
    <dc:date>2024-03-26T00:32:40.237065</dc:date>
    <dc:format>image/svg+xml</dc:format>
    <dc:creator>
     <cc:Agent>
      <dc:title>Matplotlib v3.7.1, https://matplotlib.org/</dc:title>
     </cc:Agent>
    </dc:creator>
   </cc:Work>
  </rdf:RDF>
 </metadata>
 <defs>
  <style type="text/css">*{stroke-linejoin: round; stroke-linecap: butt}</style>
 </defs>
 <g id="figure_1">
  <g id="patch_1">
   <path d="M 0 134.752625 
L 412.7 134.752625 
L 412.7 0 
L 0 0 
z
" style="fill: #ffffff"/>
  </g>
  <g id="axes_1">
   <g id="patch_2">
    <path d="M 40.7 123.810312 
L 412.7 123.810312 
L 412.7 12.210312 
L 40.7 12.210312 
z
" style="fill: #ffffff"/>
   </g>
   <g id="patch_3">
    <path d="M 40.7 49.410312 
L 77.9 49.410312 
L 77.9 12.210313 
L 40.7 12.210313 
z
" clip-path="url(#p28d56d7f85)" style="fill: #c0df80; stroke: #c0df80; stroke-linejoin: miter"/>
   </g>
   <g id="patch_4">
    <path d="M 77.9 49.410312 
L 115.1 49.410312 
L 115.1 12.210313 
L 77.9 12.210313 
z
" clip-path="url(#p28d56d7f85)" style="fill: #d3d3d3; stroke: #d3d3d3; stroke-linejoin: miter"/>
   </g>
   <g id="patch_5">
    <path d="M 115.1 49.410312 
L 152.3 49.410312 
L 152.3 12.210313 
L 115.1 12.210313 
z
" clip-path="url(#p28d56d7f85)" style="fill: #d3d3d3; stroke: #d3d3d3; stroke-linejoin: miter"/>
   </g>
   <g id="patch_6">
    <path d="M 152.3 49.410312 
L 189.5 49.410312 
L 189.5 12.210313 
L 152.3 12.210313 
z
" clip-path="url(#p28d56d7f85)" style="fill: #c0df80; stroke: #c0df80; stroke-linejoin: miter"/>
   </g>
   <g id="patch_7">
    <path d="M 189.5 49.410312 
L 226.7 49.410312 
L 226.7 12.210313 
L 189.5 12.210313 
z
" clip-path="url(#p28d56d7f85)" style="fill: #c0df80; stroke: #c0df80; stroke-linejoin: miter"/>
   </g>
   <g id="patch_8">
    <path d="M 226.7 49.410312 
L 263.9 49.410312 
L 263.9 12.210313 
L 226.7 12.210313 
z
" clip-path="url(#p28d56d7f85)" style="fill: #c0df80; stroke: #c0df80; stroke-linejoin: miter"/>
   </g>
   <g id="patch_9">
    <path d="M 263.9 49.410312 
L 301.1 49.410312 
L 301.1 12.210313 
L 263.9 12.210313 
z
" clip-path="url(#p28d56d7f85)" style="fill: #c0df80; stroke: #c0df80; stroke-linejoin: miter"/>
   </g>
   <g id="patch_10">
    <path d="M 301.1 49.410312 
L 338.3 49.410312 
L 338.3 12.210313 
L 301.1 12.210313 
z
" clip-path="url(#p28d56d7f85)" style="fill: #c0df80; stroke: #c0df80; stroke-linejoin: miter"/>
   </g>
   <g id="patch_11">
    <path d="M 338.3 49.410312 
L 375.5 49.410312 
L 375.5 12.210313 
L 338.3 12.210313 
z
" clip-path="url(#p28d56d7f85)" style="fill: #c0df80; stroke: #c0df80; stroke-linejoin: miter"/>
   </g>
   <g id="patch_12">
    <path d="M 375.5 49.410312 
L 412.7 49.410312 
L 412.7 12.210313 
L 375.5 12.210313 
z
" clip-path="url(#p28d56d7f85)" style="fill: #c0df80; stroke: #c0df80; stroke-linejoin: miter"/>
   </g>
   <g id="patch_13">
    <path d="M 40.7 86.610312 
L 77.9 86.610312 
L 77.9 49.410312 
L 40.7 49.410312 
z
" clip-path="url(#p28d56d7f85)" style="fill: #d3d3d3; stroke: #d3d3d3; stroke-linejoin: miter"/>
   </g>
   <g id="patch_14">
    <path d="M 77.9 86.610312 
L 115.1 86.610312 
L 115.1 49.410312 
L 77.9 49.410312 
z
" clip-path="url(#p28d56d7f85)" style="fill: #c0df80; stroke: #c0df80; stroke-linejoin: miter"/>
   </g>
   <g id="patch_15">
    <path d="M 115.1 86.610312 
L 152.3 86.610312 
L 152.3 49.410312 
L 115.1 49.410312 
z
" clip-path="url(#p28d56d7f85)" style="fill: #c0df80; stroke: #c0df80; stroke-linejoin: miter"/>
   </g>
   <g id="patch_16">
    <path d="M 152.3 86.610312 
L 189.5 86.610312 
L 189.5 49.410312 
L 152.3 49.410312 
z
" clip-path="url(#p28d56d7f85)" style="fill: #d3d3d3; stroke: #d3d3d3; stroke-linejoin: miter"/>
   </g>
   <g id="patch_17">
    <path d="M 189.5 86.610312 
L 226.7 86.610312 
L 226.7 49.410312 
L 189.5 49.410312 
z
" clip-path="url(#p28d56d7f85)" style="fill: #c0df80; stroke: #c0df80; stroke-linejoin: miter"/>
   </g>
   <g id="patch_18">
    <path d="M 226.7 86.610312 
L 263.9 86.610312 
L 263.9 49.410312 
L 226.7 49.410312 
z
" clip-path="url(#p28d56d7f85)" style="fill: #c0df80; stroke: #c0df80; stroke-linejoin: miter"/>
   </g>
   <g id="patch_19">
    <path d="M 263.9 86.610312 
L 301.1 86.610312 
L 301.1 49.410312 
L 263.9 49.410312 
z
" clip-path="url(#p28d56d7f85)" style="fill: #c0df80; stroke: #c0df80; stroke-linejoin: miter"/>
   </g>
   <g id="patch_20">
    <path d="M 301.1 86.610312 
L 338.3 86.610312 
L 338.3 49.410312 
L 301.1 49.410312 
z
" clip-path="url(#p28d56d7f85)" style="fill: #c0df80; stroke: #c0df80; stroke-linejoin: miter"/>
   </g>
   <g id="patch_21">
    <path d="M 338.3 86.610312 
L 375.5 86.610312 
L 375.5 49.410312 
L 338.3 49.410312 
z
" clip-path="url(#p28d56d7f85)" style="fill: #c0df80; stroke: #c0df80; stroke-linejoin: miter"/>
   </g>
   <g id="patch_22">
    <path d="M 375.5 86.610312 
L 412.7 86.610312 
L 412.7 49.410312 
L 375.5 49.410312 
z
" clip-path="url(#p28d56d7f85)" style="fill: #c0df80; stroke: #c0df80; stroke-linejoin: miter"/>
   </g>
   <g id="patch_23">
    <path d="M 40.7 123.810312 
L 77.9 123.810312 
L 77.9 86.610312 
L 40.7 86.610312 
z
" clip-path="url(#p28d56d7f85)" style="fill: #d3d3d3; stroke: #d3d3d3; stroke-linejoin: miter"/>
   </g>
   <g id="patch_24">
    <path d="M 77.9 123.810312 
L 115.1 123.810312 
L 115.1 86.610312 
L 77.9 86.610312 
z
" clip-path="url(#p28d56d7f85)" style="fill: #d3d3d3; stroke: #d3d3d3; stroke-linejoin: miter"/>
   </g>
   <g id="patch_25">
    <path d="M 115.1 123.810312 
L 152.3 123.810312 
L 152.3 86.610312 
L 115.1 86.610312 
z
" clip-path="url(#p28d56d7f85)" style="fill: #d3d3d3; stroke: #d3d3d3; stroke-linejoin: miter"/>
   </g>
   <g id="patch_26">
    <path d="M 152.3 123.810312 
L 189.5 123.810312 
L 189.5 86.610312 
L 152.3 86.610312 
z
" clip-path="url(#p28d56d7f85)" style="fill: #c0df80; stroke: #c0df80; stroke-linejoin: miter"/>
   </g>
   <g id="patch_27">
    <path d="M 189.5 123.810312 
L 226.7 123.810312 
L 226.7 86.610312 
L 189.5 86.610312 
z
" clip-path="url(#p28d56d7f85)" style="fill: #c0df80; stroke: #c0df80; stroke-linejoin: miter"/>
   </g>
   <g id="patch_28">
    <path d="M 226.7 123.810312 
L 263.9 123.810312 
L 263.9 86.610312 
L 226.7 86.610312 
z
" clip-path="url(#p28d56d7f85)" style="fill: #c0df80; stroke: #c0df80; stroke-linejoin: miter"/>
   </g>
   <g id="patch_29">
    <path d="M 263.9 123.810312 
L 301.1 123.810312 
L 301.1 86.610312 
L 263.9 86.610312 
z
" clip-path="url(#p28d56d7f85)" style="fill: #c0df80; stroke: #c0df80; stroke-linejoin: miter"/>
   </g>
   <g id="patch_30">
    <path d="M 301.1 123.810312 
L 338.3 123.810312 
L 338.3 86.610312 
L 301.1 86.610312 
z
" clip-path="url(#p28d56d7f85)" style="fill: #c0df80; stroke: #c0df80; stroke-linejoin: miter"/>
   </g>
   <g id="patch_31">
    <path d="M 338.3 123.810312 
L 375.5 123.810312 
L 375.5 86.610312 
L 338.3 86.610312 
z
" clip-path="url(#p28d56d7f85)" style="fill: #c0df80; stroke: #c0df80; stroke-linejoin: miter"/>
   </g>
   <g id="patch_32">
    <path d="M 375.5 123.810312 
L 412.7 123.810312 
L 412.7 86.610312 
L 375.5 86.610312 
z
" clip-path="url(#p28d56d7f85)" style="fill: #c0df80; stroke: #c0df80; stroke-linejoin: miter"/>
   </g>
   <g id="matplotlib.axis_1">
    <g id="xtick_1">
     <g id="line2d_1"/>
     <g id="text_1">
      <!-- Op -->
      <g transform="translate(52.900859 6.838594) scale(0.09 -0.09)">
       <defs>
        <path id="DejaVuSans-4f" d="M 2522 4238 
Q 1834 4238 1429 3725 
Q 1025 3213 1025 2328 
Q 1025 1447 1429 934 
Q 1834 422 2522 422 
Q 3209 422 3611 934 
Q 4013 1447 4013 2328 
Q 4013 3213 3611 3725 
Q 3209 4238 2522 4238 
z
M 2522 4750 
Q 3503 4750 4090 4092 
Q 4678 3434 4678 2328 
Q 4678 1225 4090 567 
Q 3503 -91 2522 -91 
Q 1538 -91 948 565 
Q 359 1222 359 2328 
Q 359 3434 948 4092 
Q 1538 4750 2522 4750 
z
" transform="scale(0.015625)"/>
        <path id="DejaVuSans-70" d="M 1159 525 
L 1159 -1331 
L 581 -1331 
L 581 3500 
L 1159 3500 
L 1159 2969 
Q 1341 3281 1617 3432 
Q 1894 3584 2278 3584 
Q 2916 3584 3314 3078 
Q 3713 2572 3713 1747 
Q 3713 922 3314 415 
Q 2916 -91 2278 -91 
Q 1894 -91 1617 61 
Q 1341 213 1159 525 
z
M 3116 1747 
Q 3116 2381 2855 2742 
Q 2594 3103 2138 3103 
Q 1681 3103 1420 2742 
Q 1159 2381 1159 1747 
Q 1159 1113 1420 752 
Q 1681 391 2138 391 
Q 2594 391 2855 752 
Q 3116 1113 3116 1747 
z
" transform="scale(0.015625)"/>
       </defs>
       <use xlink:href="#DejaVuSans-4f"/>
       <use xlink:href="#DejaVuSans-70" x="78.710938"/>
      </g>
     </g>
    </g>
    <g id="xtick_2">
     <g id="line2d_2"/>
     <g id="text_2">
      <!-- D'3 -->
      <g transform="translate(88.935078 6.838594) scale(0.09 -0.09)">
       <defs>
        <path id="DejaVuSans-44" d="M 1259 4147 
L 1259 519 
L 2022 519 
Q 2988 519 3436 956 
Q 3884 1394 3884 2338 
Q 3884 3275 3436 3711 
Q 2988 4147 2022 4147 
L 1259 4147 
z
M 628 4666 
L 1925 4666 
Q 3281 4666 3915 4102 
Q 4550 3538 4550 2338 
Q 4550 1131 3912 565 
Q 3275 0 1925 0 
L 628 0 
L 628 4666 
z
" transform="scale(0.015625)"/>
        <path id="DejaVuSans-27" d="M 1147 4666 
L 1147 2931 
L 616 2931 
L 616 4666 
L 1147 4666 
z
" transform="scale(0.015625)"/>
        <path id="DejaVuSans-33" d="M 2597 2516 
Q 3050 2419 3304 2112 
Q 3559 1806 3559 1356 
Q 3559 666 3084 287 
Q 2609 -91 1734 -91 
Q 1441 -91 1130 -33 
Q 819 25 488 141 
L 488 750 
Q 750 597 1062 519 
Q 1375 441 1716 441 
Q 2309 441 2620 675 
Q 2931 909 2931 1356 
Q 2931 1769 2642 2001 
Q 2353 2234 1838 2234 
L 1294 2234 
L 1294 2753 
L 1863 2753 
Q 2328 2753 2575 2939 
Q 2822 3125 2822 3475 
Q 2822 3834 2567 4026 
Q 2313 4219 1838 4219 
Q 1578 4219 1281 4162 
Q 984 4106 628 3988 
L 628 4550 
Q 988 4650 1302 4700 
Q 1616 4750 1894 4750 
Q 2613 4750 3031 4423 
Q 3450 4097 3450 3541 
Q 3450 3153 3228 2886 
Q 3006 2619 2597 2516 
z
" transform="scale(0.015625)"/>
       </defs>
       <use xlink:href="#DejaVuSans-44"/>
       <use xlink:href="#DejaVuSans-27" x="77.001953"/>
       <use xlink:href="#DejaVuSans-33" x="104.492188"/>
      </g>
     </g>
    </g>
    <g id="xtick_3">
     <g id="line2d_3"/>
     <g id="text_3">
      <!-- D'0 -->
      <g transform="translate(126.135078 6.838594) scale(0.09 -0.09)">
       <defs>
        <path id="DejaVuSans-30" d="M 2034 4250 
Q 1547 4250 1301 3770 
Q 1056 3291 1056 2328 
Q 1056 1369 1301 889 
Q 1547 409 2034 409 
Q 2525 409 2770 889 
Q 3016 1369 3016 2328 
Q 3016 3291 2770 3770 
Q 2525 4250 2034 4250 
z
M 2034 4750 
Q 2819 4750 3233 4129 
Q 3647 3509 3647 2328 
Q 3647 1150 3233 529 
Q 2819 -91 2034 -91 
Q 1250 -91 836 529 
Q 422 1150 422 2328 
Q 422 3509 836 4129 
Q 1250 4750 2034 4750 
z
" transform="scale(0.015625)"/>
       </defs>
       <use xlink:href="#DejaVuSans-44"/>
       <use xlink:href="#DejaVuSans-27" x="77.001953"/>
       <use xlink:href="#DejaVuSans-30" x="104.492188"/>
      </g>
     </g>
    </g>
    <g id="xtick_4">
     <g id="line2d_4"/>
     <g id="text_4">
      <!-- A7 -->
      <g transform="translate(164.958594 6.838594) scale(0.09 -0.09)">
       <defs>
        <path id="DejaVuSans-41" d="M 2188 4044 
L 1331 1722 
L 3047 1722 
L 2188 4044 
z
M 1831 4666 
L 2547 4666 
L 4325 0 
L 3669 0 
L 3244 1197 
L 1141 1197 
L 716 0 
L 50 0 
L 1831 4666 
z
" transform="scale(0.015625)"/>
        <path id="DejaVuSans-37" d="M 525 4666 
L 3525 4666 
L 3525 4397 
L 1831 0 
L 1172 0 
L 2766 4134 
L 525 4134 
L 525 4666 
z
" transform="scale(0.015625)"/>
       </defs>
       <use xlink:href="#DejaVuSans-41"/>
       <use xlink:href="#DejaVuSans-37" x="68.408203"/>
      </g>
     </g>
    </g>
    <g id="xtick_5">
     <g id="line2d_5"/>
     <g id="text_5">
      <!-- A6 -->
      <g transform="translate(202.158594 6.838594) scale(0.09 -0.09)">
       <defs>
        <path id="DejaVuSans-36" d="M 2113 2584 
Q 1688 2584 1439 2293 
Q 1191 2003 1191 1497 
Q 1191 994 1439 701 
Q 1688 409 2113 409 
Q 2538 409 2786 701 
Q 3034 994 3034 1497 
Q 3034 2003 2786 2293 
Q 2538 2584 2113 2584 
z
M 3366 4563 
L 3366 3988 
Q 3128 4100 2886 4159 
Q 2644 4219 2406 4219 
Q 1781 4219 1451 3797 
Q 1122 3375 1075 2522 
Q 1259 2794 1537 2939 
Q 1816 3084 2150 3084 
Q 2853 3084 3261 2657 
Q 3669 2231 3669 1497 
Q 3669 778 3244 343 
Q 2819 -91 2113 -91 
Q 1303 -91 875 529 
Q 447 1150 447 2328 
Q 447 3434 972 4092 
Q 1497 4750 2381 4750 
Q 2619 4750 2861 4703 
Q 3103 4656 3366 4563 
z
" transform="scale(0.015625)"/>
       </defs>
       <use xlink:href="#DejaVuSans-41"/>
       <use xlink:href="#DejaVuSans-36" x="68.408203"/>
      </g>
     </g>
    </g>
    <g id="xtick_6">
     <g id="line2d_6"/>
     <g id="text_6">
      <!-- A5 -->
      <g transform="translate(239.358594 6.838594) scale(0.09 -0.09)">
       <defs>
        <path id="DejaVuSans-35" d="M 691 4666 
L 3169 4666 
L 3169 4134 
L 1269 4134 
L 1269 2991 
Q 1406 3038 1543 3061 
Q 1681 3084 1819 3084 
Q 2600 3084 3056 2656 
Q 3513 2228 3513 1497 
Q 3513 744 3044 326 
Q 2575 -91 1722 -91 
Q 1428 -91 1123 -41 
Q 819 9 494 109 
L 494 744 
Q 775 591 1075 516 
Q 1375 441 1709 441 
Q 2250 441 2565 725 
Q 2881 1009 2881 1497 
Q 2881 1984 2565 2268 
Q 2250 2553 1709 2553 
Q 1456 2553 1204 2497 
Q 953 2441 691 2322 
L 691 4666 
z
" transform="scale(0.015625)"/>
       </defs>
       <use xlink:href="#DejaVuSans-41"/>
       <use xlink:href="#DejaVuSans-35" x="68.408203"/>
      </g>
     </g>
    </g>
    <g id="xtick_7">
     <g id="line2d_7"/>
     <g id="text_7">
      <!-- A4 -->
      <g transform="translate(276.558594 6.838594) scale(0.09 -0.09)">
       <defs>
        <path id="DejaVuSans-34" d="M 2419 4116 
L 825 1625 
L 2419 1625 
L 2419 4116 
z
M 2253 4666 
L 3047 4666 
L 3047 1625 
L 3713 1625 
L 3713 1100 
L 3047 1100 
L 3047 0 
L 2419 0 
L 2419 1100 
L 313 1100 
L 313 1709 
L 2253 4666 
z
" transform="scale(0.015625)"/>
       </defs>
       <use xlink:href="#DejaVuSans-41"/>
       <use xlink:href="#DejaVuSans-34" x="68.408203"/>
      </g>
     </g>
    </g>
    <g id="xtick_8">
     <g id="line2d_8"/>
     <g id="text_8">
      <!-- A3 -->
      <g transform="translate(313.758594 6.838594) scale(0.09 -0.09)">
       <use xlink:href="#DejaVuSans-41"/>
       <use xlink:href="#DejaVuSans-33" x="68.408203"/>
      </g>
     </g>
    </g>
    <g id="xtick_9">
     <g id="line2d_9"/>
     <g id="text_9">
      <!-- A2 -->
      <g transform="translate(350.958594 6.838594) scale(0.09 -0.09)">
       <defs>
        <path id="DejaVuSans-32" d="M 1228 531 
L 3431 531 
L 3431 0 
L 469 0 
L 469 531 
Q 828 903 1448 1529 
Q 2069 2156 2228 2338 
Q 2531 2678 2651 2914 
Q 2772 3150 2772 3378 
Q 2772 3750 2511 3984 
Q 2250 4219 1831 4219 
Q 1534 4219 1204 4116 
Q 875 4013 500 3803 
L 500 4441 
Q 881 4594 1212 4672 
Q 1544 4750 1819 4750 
Q 2544 4750 2975 4387 
Q 3406 4025 3406 3419 
Q 3406 3131 3298 2873 
Q 3191 2616 2906 2266 
Q 2828 2175 2409 1742 
Q 1991 1309 1228 531 
z
" transform="scale(0.015625)"/>
       </defs>
       <use xlink:href="#DejaVuSans-41"/>
       <use xlink:href="#DejaVuSans-32" x="68.408203"/>
      </g>
     </g>
    </g>
    <g id="xtick_10">
     <g id="line2d_10"/>
     <g id="text_10">
      <!-- A1 -->
      <g transform="translate(388.158594 6.838594) scale(0.09 -0.09)">
       <defs>
        <path id="DejaVuSans-31" d="M 794 531 
L 1825 531 
L 1825 4091 
L 703 3866 
L 703 4441 
L 1819 4666 
L 2450 4666 
L 2450 531 
L 3481 531 
L 3481 0 
L 794 0 
L 794 531 
z
" transform="scale(0.015625)"/>
       </defs>
       <use xlink:href="#DejaVuSans-41"/>
       <use xlink:href="#DejaVuSans-31" x="68.408203"/>
      </g>
     </g>
    </g>
   </g>
   <g id="matplotlib.axis_2">
    <g id="ytick_1">
     <g id="line2d_11"/>
     <g id="text_11">
      <!-- L0H2 -->
      <g transform="translate(0 109.009531) scale(0.1 -0.1)">
       <defs>
        <path id="DejaVuSans-4c" d="M 628 4666 
L 1259 4666 
L 1259 531 
L 3531 531 
L 3531 0 
L 628 0 
L 628 4666 
z
" transform="scale(0.015625)"/>
        <path id="DejaVuSans-48" d="M 628 4666 
L 1259 4666 
L 1259 2753 
L 3553 2753 
L 3553 4666 
L 4184 4666 
L 4184 0 
L 3553 0 
L 3553 2222 
L 1259 2222 
L 1259 0 
L 628 0 
L 628 4666 
z
" transform="scale(0.015625)"/>
       </defs>
       <use xlink:href="#DejaVuSans-4c"/>
       <use xlink:href="#DejaVuSans-30" x="55.712891"/>
       <use xlink:href="#DejaVuSans-48" x="119.335938"/>
       <use xlink:href="#DejaVuSans-32" x="194.53125"/>
      </g>
     </g>
    </g>
    <g id="ytick_2">
     <g id="line2d_12"/>
     <g id="text_12">
      <!-- L0H1 -->
      <g transform="translate(0 71.809531) scale(0.1 -0.1)">
       <use xlink:href="#DejaVuSans-4c"/>
       <use xlink:href="#DejaVuSans-30" x="55.712891"/>
       <use xlink:href="#DejaVuSans-48" x="119.335938"/>
       <use xlink:href="#DejaVuSans-31" x="194.53125"/>
      </g>
     </g>
    </g>
    <g id="ytick_3">
     <g id="line2d_13"/>
     <g id="text_13">
      <!-- L0H0 -->
      <g transform="translate(0 34.609531) scale(0.1 -0.1)">
       <use xlink:href="#DejaVuSans-4c"/>
       <use xlink:href="#DejaVuSans-30" x="55.712891"/>
       <use xlink:href="#DejaVuSans-48" x="119.335938"/>
       <use xlink:href="#DejaVuSans-30" x="194.53125"/>
      </g>
     </g>
    </g>
   </g>
   <g id="patch_33">
    <path d="M 40.7 123.810312 
L 40.7 12.210313 
" style="fill: none; stroke: #000000; stroke-width: 0.8; stroke-linejoin: miter; stroke-linecap: square"/>
   </g>
   <g id="patch_34">
    <path d="M 412.7 123.810312 
L 412.7 12.210313 
" style="fill: none; stroke: #000000; stroke-width: 0.8; stroke-linejoin: miter; stroke-linecap: square"/>
   </g>
   <g id="patch_35">
    <path d="M 40.7 123.810312 
L 412.7 123.810312 
" style="fill: none; stroke: #000000; stroke-width: 0.8; stroke-linejoin: miter; stroke-linecap: square"/>
   </g>
   <g id="patch_36">
    <path d="M 40.7 12.210312 
L 412.7 12.210312 
" style="fill: none; stroke: #000000; stroke-width: 0.8; stroke-linejoin: miter; stroke-linecap: square"/>
   </g>
   <g id="text_14">
    <!-- An.OP -->
    <g transform="translate(48.709766 32.741875) scale(0.07 -0.07)">
     <defs>
      <path id="DejaVuSans-6e" d="M 3513 2113 
L 3513 0 
L 2938 0 
L 2938 2094 
Q 2938 2591 2744 2837 
Q 2550 3084 2163 3084 
Q 1697 3084 1428 2787 
Q 1159 2491 1159 1978 
L 1159 0 
L 581 0 
L 581 3500 
L 1159 3500 
L 1159 2956 
Q 1366 3272 1645 3428 
Q 1925 3584 2291 3584 
Q 2894 3584 3203 3211 
Q 3513 2838 3513 2113 
z
" transform="scale(0.015625)"/>
      <path id="DejaVuSans-2e" d="M 684 794 
L 1344 794 
L 1344 0 
L 684 0 
L 684 794 
z
" transform="scale(0.015625)"/>
      <path id="DejaVuSans-50" d="M 1259 4147 
L 1259 2394 
L 2053 2394 
Q 2494 2394 2734 2622 
Q 2975 2850 2975 3272 
Q 2975 3691 2734 3919 
Q 2494 4147 2053 4147 
L 1259 4147 
z
M 628 4666 
L 2053 4666 
Q 2838 4666 3239 4311 
Q 3641 3956 3641 3272 
Q 3641 2581 3239 2228 
Q 2838 1875 2053 1875 
L 1259 1875 
L 1259 0 
L 628 0 
L 628 4666 
z
" transform="scale(0.015625)"/>
     </defs>
     <use xlink:href="#DejaVuSans-41"/>
     <use xlink:href="#DejaVuSans-6e" x="68.408203"/>
     <use xlink:href="#DejaVuSans-2e" x="131.787109"/>
     <use xlink:href="#DejaVuSans-4f" x="163.574219"/>
     <use xlink:href="#DejaVuSans-50" x="242.285156"/>
    </g>
   </g>
   <g id="text_15">
    <!-- A5.US -->
    <g transform="translate(160.383047 32.741875) scale(0.07 -0.07)">
     <defs>
      <path id="DejaVuSans-55" d="M 556 4666 
L 1191 4666 
L 1191 1831 
Q 1191 1081 1462 751 
Q 1734 422 2344 422 
Q 2950 422 3222 751 
Q 3494 1081 3494 1831 
L 3494 4666 
L 4128 4666 
L 4128 1753 
Q 4128 841 3676 375 
Q 3225 -91 2344 -91 
Q 1459 -91 1007 375 
Q 556 841 556 1753 
L 556 4666 
z
" transform="scale(0.015625)"/>
      <path id="DejaVuSans-53" d="M 3425 4513 
L 3425 3897 
Q 3066 4069 2747 4153 
Q 2428 4238 2131 4238 
Q 1616 4238 1336 4038 
Q 1056 3838 1056 3469 
Q 1056 3159 1242 3001 
Q 1428 2844 1947 2747 
L 2328 2669 
Q 3034 2534 3370 2195 
Q 3706 1856 3706 1288 
Q 3706 609 3251 259 
Q 2797 -91 1919 -91 
Q 1588 -91 1214 -16 
Q 841 59 441 206 
L 441 856 
Q 825 641 1194 531 
Q 1563 422 1919 422 
Q 2459 422 2753 634 
Q 3047 847 3047 1241 
Q 3047 1584 2836 1778 
Q 2625 1972 2144 2069 
L 1759 2144 
Q 1053 2284 737 2584 
Q 422 2884 422 3419 
Q 422 4038 858 4394 
Q 1294 4750 2059 4750 
Q 2388 4750 2728 4690 
Q 3069 4631 3425 4513 
z
" transform="scale(0.015625)"/>
     </defs>
     <use xlink:href="#DejaVuSans-41"/>
     <use xlink:href="#DejaVuSans-35" x="68.408203"/>
     <use xlink:href="#DejaVuSans-2e" x="132.03125"/>
     <use xlink:href="#DejaVuSans-55" x="163.818359"/>
     <use xlink:href="#DejaVuSans-53" x="237.011719"/>
    </g>
   </g>
   <g id="text_16">
    <!-- A4.MC -->
    <g transform="translate(196.902734 28.822641) scale(0.07 -0.07)">
     <defs>
      <path id="DejaVuSans-4d" d="M 628 4666 
L 1569 4666 
L 2759 1491 
L 3956 4666 
L 4897 4666 
L 4897 0 
L 4281 0 
L 4281 4097 
L 3078 897 
L 2444 897 
L 1241 4097 
L 1241 0 
L 628 0 
L 628 4666 
z
" transform="scale(0.015625)"/>
      <path id="DejaVuSans-43" d="M 4122 4306 
L 4122 3641 
Q 3803 3938 3442 4084 
Q 3081 4231 2675 4231 
Q 1875 4231 1450 3742 
Q 1025 3253 1025 2328 
Q 1025 1406 1450 917 
Q 1875 428 2675 428 
Q 3081 428 3442 575 
Q 3803 722 4122 1019 
L 4122 359 
Q 3791 134 3420 21 
Q 3050 -91 2638 -91 
Q 1578 -91 968 557 
Q 359 1206 359 2328 
Q 359 3453 968 4101 
Q 1578 4750 2638 4750 
Q 3056 4750 3426 4639 
Q 3797 4528 4122 4306 
z
" transform="scale(0.015625)"/>
     </defs>
     <use xlink:href="#DejaVuSans-41"/>
     <use xlink:href="#DejaVuSans-34" x="68.408203"/>
     <use xlink:href="#DejaVuSans-2e" x="132.03125"/>
     <use xlink:href="#DejaVuSans-4d" x="163.818359"/>
     <use xlink:href="#DejaVuSans-43" x="250.097656"/>
    </g>
    <!-- A5.NG -->
    <g transform="translate(197.036172 36.661109) scale(0.07 -0.07)">
     <defs>
      <path id="DejaVuSans-4e" d="M 628 4666 
L 1478 4666 
L 3547 763 
L 3547 4666 
L 4159 4666 
L 4159 0 
L 3309 0 
L 1241 3903 
L 1241 0 
L 628 0 
L 628 4666 
z
" transform="scale(0.015625)"/>
      <path id="DejaVuSans-47" d="M 3809 666 
L 3809 1919 
L 2778 1919 
L 2778 2438 
L 4434 2438 
L 4434 434 
Q 4069 175 3628 42 
Q 3188 -91 2688 -91 
Q 1594 -91 976 548 
Q 359 1188 359 2328 
Q 359 3472 976 4111 
Q 1594 4750 2688 4750 
Q 3144 4750 3555 4637 
Q 3966 4525 4313 4306 
L 4313 3634 
Q 3963 3931 3569 4081 
Q 3175 4231 2741 4231 
Q 1884 4231 1454 3753 
Q 1025 3275 1025 2328 
Q 1025 1384 1454 906 
Q 1884 428 2741 428 
Q 3075 428 3337 486 
Q 3600 544 3809 666 
z
" transform="scale(0.015625)"/>
     </defs>
     <use xlink:href="#DejaVuSans-41"/>
     <use xlink:href="#DejaVuSans-35" x="68.408203"/>
     <use xlink:href="#DejaVuSans-2e" x="132.03125"/>
     <use xlink:href="#DejaVuSans-4e" x="163.818359"/>
     <use xlink:href="#DejaVuSans-47" x="238.623047"/>
    </g>
   </g>
   <g id="text_17">
    <!-- A3.MC -->
    <g transform="translate(234.102734 32.741875) scale(0.07 -0.07)">
     <use xlink:href="#DejaVuSans-41"/>
     <use xlink:href="#DejaVuSans-33" x="68.408203"/>
     <use xlink:href="#DejaVuSans-2e" x="132.03125"/>
     <use xlink:href="#DejaVuSans-4d" x="163.818359"/>
     <use xlink:href="#DejaVuSans-43" x="250.097656"/>
    </g>
   </g>
   <g id="text_18">
    <!-- A2.MC -->
    <g transform="translate(271.302734 32.741875) scale(0.07 -0.07)">
     <use xlink:href="#DejaVuSans-41"/>
     <use xlink:href="#DejaVuSans-32" x="68.408203"/>
     <use xlink:href="#DejaVuSans-2e" x="132.03125"/>
     <use xlink:href="#DejaVuSans-4d" x="163.818359"/>
     <use xlink:href="#DejaVuSans-43" x="250.097656"/>
    </g>
   </g>
   <g id="text_19">
    <!-- A1.MC -->
    <g transform="translate(308.502734 28.822641) scale(0.07 -0.07)">
     <use xlink:href="#DejaVuSans-41"/>
     <use xlink:href="#DejaVuSans-31" x="68.408203"/>
     <use xlink:href="#DejaVuSans-2e" x="132.03125"/>
     <use xlink:href="#DejaVuSans-4d" x="163.818359"/>
     <use xlink:href="#DejaVuSans-43" x="250.097656"/>
    </g>
    <!-- A1.BO -->
    <g transform="translate(308.871328 36.661109) scale(0.07 -0.07)">
     <defs>
      <path id="DejaVuSans-42" d="M 1259 2228 
L 1259 519 
L 2272 519 
Q 2781 519 3026 730 
Q 3272 941 3272 1375 
Q 3272 1813 3026 2020 
Q 2781 2228 2272 2228 
L 1259 2228 
z
M 1259 4147 
L 1259 2741 
L 2194 2741 
Q 2656 2741 2882 2914 
Q 3109 3088 3109 3444 
Q 3109 3797 2882 3972 
Q 2656 4147 2194 4147 
L 1259 4147 
z
M 628 4666 
L 2241 4666 
Q 2963 4666 3353 4366 
Q 3744 4066 3744 3513 
Q 3744 3084 3544 2831 
Q 3344 2578 2956 2516 
Q 3422 2416 3680 2098 
Q 3938 1781 3938 1306 
Q 3938 681 3513 340 
Q 3088 0 2303 0 
L 628 0 
L 628 4666 
z
" transform="scale(0.015625)"/>
     </defs>
     <use xlink:href="#DejaVuSans-41"/>
     <use xlink:href="#DejaVuSans-31" x="68.408203"/>
     <use xlink:href="#DejaVuSans-2e" x="132.03125"/>
     <use xlink:href="#DejaVuSans-42" x="163.818359"/>
     <use xlink:href="#DejaVuSans-4f" x="230.671875"/>
    </g>
   </g>
   <g id="text_20">
    <!-- A0.BO.A1 -->
    <g transform="translate(340.477891 32.741875) scale(0.07 -0.07)">
     <use xlink:href="#DejaVuSans-41"/>
     <use xlink:href="#DejaVuSans-30" x="68.408203"/>
     <use xlink:href="#DejaVuSans-2e" x="132.03125"/>
     <use xlink:href="#DejaVuSans-42" x="163.818359"/>
     <use xlink:href="#DejaVuSans-4f" x="230.671875"/>
     <use xlink:href="#DejaVuSans-2e" x="305.382812"/>
     <use xlink:href="#DejaVuSans-41" x="337.169922"/>
     <use xlink:href="#DejaVuSans-31" x="405.578125"/>
    </g>
   </g>
   <g id="text_21">
    <!-- A0.NG -->
    <g transform="translate(383.036172 32.741875) scale(0.07 -0.07)">
     <use xlink:href="#DejaVuSans-41"/>
     <use xlink:href="#DejaVuSans-30" x="68.408203"/>
     <use xlink:href="#DejaVuSans-2e" x="132.03125"/>
     <use xlink:href="#DejaVuSans-4e" x="163.818359"/>
     <use xlink:href="#DejaVuSans-47" x="238.623047"/>
    </g>
   </g>
   <g id="text_22">
    <!-- D4.TC -->
    <g transform="translate(86.089687 69.941875) scale(0.07 -0.07)">
     <defs>
      <path id="DejaVuSans-54" d="M -19 4666 
L 3928 4666 
L 3928 4134 
L 2272 4134 
L 2272 0 
L 1638 0 
L 1638 4134 
L -19 4134 
L -19 4666 
z
" transform="scale(0.015625)"/>
     </defs>
     <use xlink:href="#DejaVuSans-44"/>
     <use xlink:href="#DejaVuSans-34" x="77.001953"/>
     <use xlink:href="#DejaVuSans-2e" x="140.625"/>
     <use xlink:href="#DejaVuSans-54" x="172.412109"/>
     <use xlink:href="#DejaVuSans-43" x="227.621094"/>
    </g>
   </g>
   <g id="text_23">
    <!-- D3.TC -->
    <g transform="translate(123.289687 69.941875) scale(0.07 -0.07)">
     <use xlink:href="#DejaVuSans-44"/>
     <use xlink:href="#DejaVuSans-33" x="77.001953"/>
     <use xlink:href="#DejaVuSans-2e" x="140.625"/>
     <use xlink:href="#DejaVuSans-54" x="172.412109"/>
     <use xlink:href="#DejaVuSans-43" x="227.621094"/>
    </g>
   </g>
   <g id="text_24">
    <!-- A5.BA -->
    <g transform="translate(197.571016 66.022641) scale(0.07 -0.07)">
     <use xlink:href="#DejaVuSans-41"/>
     <use xlink:href="#DejaVuSans-35" x="68.408203"/>
     <use xlink:href="#DejaVuSans-2e" x="132.03125"/>
     <use xlink:href="#DejaVuSans-42" x="163.818359"/>
     <use xlink:href="#DejaVuSans-41" x="232.421875"/>
    </g>
    <!-- A5.BS -->
    <g transform="translate(197.804531 73.861109) scale(0.07 -0.07)">
     <use xlink:href="#DejaVuSans-41"/>
     <use xlink:href="#DejaVuSans-35" x="68.408203"/>
     <use xlink:href="#DejaVuSans-2e" x="132.03125"/>
     <use xlink:href="#DejaVuSans-42" x="163.818359"/>
     <use xlink:href="#DejaVuSans-53" x="230.671875"/>
    </g>
   </g>
   <g id="text_25">
    <!-- A4.BA -->
    <g transform="translate(234.771016 66.022641) scale(0.07 -0.07)">
     <use xlink:href="#DejaVuSans-41"/>
     <use xlink:href="#DejaVuSans-34" x="68.408203"/>
     <use xlink:href="#DejaVuSans-2e" x="132.03125"/>
     <use xlink:href="#DejaVuSans-42" x="163.818359"/>
     <use xlink:href="#DejaVuSans-41" x="232.421875"/>
    </g>
    <!-- A4.BS -->
    <g transform="translate(235.004531 73.861109) scale(0.07 -0.07)">
     <use xlink:href="#DejaVuSans-41"/>
     <use xlink:href="#DejaVuSans-34" x="68.408203"/>
     <use xlink:href="#DejaVuSans-2e" x="132.03125"/>
     <use xlink:href="#DejaVuSans-42" x="163.818359"/>
     <use xlink:href="#DejaVuSans-53" x="230.671875"/>
    </g>
   </g>
   <g id="text_26">
    <!-- A3.BA -->
    <g transform="translate(271.971016 66.022641) scale(0.07 -0.07)">
     <use xlink:href="#DejaVuSans-41"/>
     <use xlink:href="#DejaVuSans-33" x="68.408203"/>
     <use xlink:href="#DejaVuSans-2e" x="132.03125"/>
     <use xlink:href="#DejaVuSans-42" x="163.818359"/>
     <use xlink:href="#DejaVuSans-41" x="232.421875"/>
    </g>
    <!-- A3.BS -->
    <g transform="translate(272.204531 73.861109) scale(0.07 -0.07)">
     <use xlink:href="#DejaVuSans-41"/>
     <use xlink:href="#DejaVuSans-33" x="68.408203"/>
     <use xlink:href="#DejaVuSans-2e" x="132.03125"/>
     <use xlink:href="#DejaVuSans-42" x="163.818359"/>
     <use xlink:href="#DejaVuSans-53" x="230.671875"/>
    </g>
   </g>
   <g id="text_27">
    <!-- A2.BA -->
    <g transform="translate(309.171016 66.022641) scale(0.07 -0.07)">
     <use xlink:href="#DejaVuSans-41"/>
     <use xlink:href="#DejaVuSans-32" x="68.408203"/>
     <use xlink:href="#DejaVuSans-2e" x="132.03125"/>
     <use xlink:href="#DejaVuSans-42" x="163.818359"/>
     <use xlink:href="#DejaVuSans-41" x="232.421875"/>
    </g>
    <!-- A2.BS -->
    <g transform="translate(309.404531 73.861109) scale(0.07 -0.07)">
     <use xlink:href="#DejaVuSans-41"/>
     <use xlink:href="#DejaVuSans-32" x="68.408203"/>
     <use xlink:href="#DejaVuSans-2e" x="132.03125"/>
     <use xlink:href="#DejaVuSans-42" x="163.818359"/>
     <use xlink:href="#DejaVuSans-53" x="230.671875"/>
    </g>
   </g>
   <g id="text_28">
    <!-- A1.BA -->
    <g transform="translate(346.371016 66.022641) scale(0.07 -0.07)">
     <use xlink:href="#DejaVuSans-41"/>
     <use xlink:href="#DejaVuSans-31" x="68.408203"/>
     <use xlink:href="#DejaVuSans-2e" x="132.03125"/>
     <use xlink:href="#DejaVuSans-42" x="163.818359"/>
     <use xlink:href="#DejaVuSans-41" x="232.421875"/>
    </g>
    <!-- A1.BS -->
    <g transform="translate(346.604531 73.861109) scale(0.07 -0.07)">
     <use xlink:href="#DejaVuSans-41"/>
     <use xlink:href="#DejaVuSans-31" x="68.408203"/>
     <use xlink:href="#DejaVuSans-2e" x="132.03125"/>
     <use xlink:href="#DejaVuSans-42" x="163.818359"/>
     <use xlink:href="#DejaVuSans-53" x="230.671875"/>
    </g>
   </g>
   <g id="text_29">
    <!-- A0.BA -->
    <g transform="translate(383.571016 66.022641) scale(0.07 -0.07)">
     <use xlink:href="#DejaVuSans-41"/>
     <use xlink:href="#DejaVuSans-30" x="68.408203"/>
     <use xlink:href="#DejaVuSans-2e" x="132.03125"/>
     <use xlink:href="#DejaVuSans-42" x="163.818359"/>
     <use xlink:href="#DejaVuSans-41" x="232.421875"/>
    </g>
    <!-- A0.BS -->
    <g transform="translate(383.804531 73.861109) scale(0.07 -0.07)">
     <use xlink:href="#DejaVuSans-41"/>
     <use xlink:href="#DejaVuSans-30" x="68.408203"/>
     <use xlink:href="#DejaVuSans-2e" x="132.03125"/>
     <use xlink:href="#DejaVuSans-42" x="163.818359"/>
     <use xlink:href="#DejaVuSans-53" x="230.671875"/>
    </g>
   </g>
   <g id="text_30">
    <!-- A5.MC -->
    <g transform="translate(159.702734 99.303406) scale(0.07 -0.07)">
     <use xlink:href="#DejaVuSans-41"/>
     <use xlink:href="#DejaVuSans-35" x="68.408203"/>
     <use xlink:href="#DejaVuSans-2e" x="132.03125"/>
     <use xlink:href="#DejaVuSans-4d" x="163.818359"/>
     <use xlink:href="#DejaVuSans-43" x="250.097656"/>
    </g>
    <!-- D5.TC -->
    <g transform="translate(160.489688 107.141875) scale(0.07 -0.07)">
     <use xlink:href="#DejaVuSans-44"/>
     <use xlink:href="#DejaVuSans-35" x="77.001953"/>
     <use xlink:href="#DejaVuSans-2e" x="140.625"/>
     <use xlink:href="#DejaVuSans-54" x="172.412109"/>
     <use xlink:href="#DejaVuSans-43" x="227.621094"/>
    </g>
    <!-- An.SG -->
    <g transform="translate(160.241406 114.980344) scale(0.07 -0.07)">
     <use xlink:href="#DejaVuSans-41"/>
     <use xlink:href="#DejaVuSans-6e" x="68.408203"/>
     <use xlink:href="#DejaVuSans-2e" x="131.787109"/>
     <use xlink:href="#DejaVuSans-53" x="163.574219"/>
     <use xlink:href="#DejaVuSans-47" x="227.050781"/>
    </g>
   </g>
   <g id="text_31">
    <!-- A5.BA -->
    <g transform="translate(197.571016 103.222641) scale(0.07 -0.07)">
     <use xlink:href="#DejaVuSans-41"/>
     <use xlink:href="#DejaVuSans-35" x="68.408203"/>
     <use xlink:href="#DejaVuSans-2e" x="132.03125"/>
     <use xlink:href="#DejaVuSans-42" x="163.818359"/>
     <use xlink:href="#DejaVuSans-41" x="232.421875"/>
    </g>
    <!-- A5.BS -->
    <g transform="translate(197.804531 111.061109) scale(0.07 -0.07)">
     <use xlink:href="#DejaVuSans-41"/>
     <use xlink:href="#DejaVuSans-35" x="68.408203"/>
     <use xlink:href="#DejaVuSans-2e" x="132.03125"/>
     <use xlink:href="#DejaVuSans-42" x="163.818359"/>
     <use xlink:href="#DejaVuSans-53" x="230.671875"/>
    </g>
   </g>
   <g id="text_32">
    <!-- A4.BA -->
    <g transform="translate(234.771016 103.222641) scale(0.07 -0.07)">
     <use xlink:href="#DejaVuSans-41"/>
     <use xlink:href="#DejaVuSans-34" x="68.408203"/>
     <use xlink:href="#DejaVuSans-2e" x="132.03125"/>
     <use xlink:href="#DejaVuSans-42" x="163.818359"/>
     <use xlink:href="#DejaVuSans-41" x="232.421875"/>
    </g>
    <!-- A4.BS -->
    <g transform="translate(235.004531 111.061109) scale(0.07 -0.07)">
     <use xlink:href="#DejaVuSans-41"/>
     <use xlink:href="#DejaVuSans-34" x="68.408203"/>
     <use xlink:href="#DejaVuSans-2e" x="132.03125"/>
     <use xlink:href="#DejaVuSans-42" x="163.818359"/>
     <use xlink:href="#DejaVuSans-53" x="230.671875"/>
    </g>
   </g>
   <g id="text_33">
    <!-- A3.BA -->
    <g transform="translate(271.971016 103.222641) scale(0.07 -0.07)">
     <use xlink:href="#DejaVuSans-41"/>
     <use xlink:href="#DejaVuSans-33" x="68.408203"/>
     <use xlink:href="#DejaVuSans-2e" x="132.03125"/>
     <use xlink:href="#DejaVuSans-42" x="163.818359"/>
     <use xlink:href="#DejaVuSans-41" x="232.421875"/>
    </g>
    <!-- A3.BS -->
    <g transform="translate(272.204531 111.061109) scale(0.07 -0.07)">
     <use xlink:href="#DejaVuSans-41"/>
     <use xlink:href="#DejaVuSans-33" x="68.408203"/>
     <use xlink:href="#DejaVuSans-2e" x="132.03125"/>
     <use xlink:href="#DejaVuSans-42" x="163.818359"/>
     <use xlink:href="#DejaVuSans-53" x="230.671875"/>
    </g>
   </g>
   <g id="text_34">
    <!-- A2.BA -->
    <g transform="translate(309.171016 103.222641) scale(0.07 -0.07)">
     <use xlink:href="#DejaVuSans-41"/>
     <use xlink:href="#DejaVuSans-32" x="68.408203"/>
     <use xlink:href="#DejaVuSans-2e" x="132.03125"/>
     <use xlink:href="#DejaVuSans-42" x="163.818359"/>
     <use xlink:href="#DejaVuSans-41" x="232.421875"/>
    </g>
    <!-- A2.BS -->
    <g transform="translate(309.404531 111.061109) scale(0.07 -0.07)">
     <use xlink:href="#DejaVuSans-41"/>
     <use xlink:href="#DejaVuSans-32" x="68.408203"/>
     <use xlink:href="#DejaVuSans-2e" x="132.03125"/>
     <use xlink:href="#DejaVuSans-42" x="163.818359"/>
     <use xlink:href="#DejaVuSans-53" x="230.671875"/>
    </g>
   </g>
   <g id="text_35">
    <!-- A1.BA -->
    <g transform="translate(346.371016 103.222641) scale(0.07 -0.07)">
     <use xlink:href="#DejaVuSans-41"/>
     <use xlink:href="#DejaVuSans-31" x="68.408203"/>
     <use xlink:href="#DejaVuSans-2e" x="132.03125"/>
     <use xlink:href="#DejaVuSans-42" x="163.818359"/>
     <use xlink:href="#DejaVuSans-41" x="232.421875"/>
    </g>
    <!-- A1.BS -->
    <g transform="translate(346.604531 111.061109) scale(0.07 -0.07)">
     <use xlink:href="#DejaVuSans-41"/>
     <use xlink:href="#DejaVuSans-31" x="68.408203"/>
     <use xlink:href="#DejaVuSans-2e" x="132.03125"/>
     <use xlink:href="#DejaVuSans-42" x="163.818359"/>
     <use xlink:href="#DejaVuSans-53" x="230.671875"/>
    </g>
   </g>
   <g id="text_36">
    <!-- A0.BA -->
    <g transform="translate(383.571016 103.222641) scale(0.07 -0.07)">
     <use xlink:href="#DejaVuSans-41"/>
     <use xlink:href="#DejaVuSans-30" x="68.408203"/>
     <use xlink:href="#DejaVuSans-2e" x="132.03125"/>
     <use xlink:href="#DejaVuSans-42" x="163.818359"/>
     <use xlink:href="#DejaVuSans-41" x="232.421875"/>
    </g>
    <!-- A0.BS -->
    <g transform="translate(383.804531 111.061109) scale(0.07 -0.07)">
     <use xlink:href="#DejaVuSans-41"/>
     <use xlink:href="#DejaVuSans-30" x="68.408203"/>
     <use xlink:href="#DejaVuSans-2e" x="132.03125"/>
     <use xlink:href="#DejaVuSans-42" x="163.818359"/>
     <use xlink:href="#DejaVuSans-53" x="230.671875"/>
    </g>
   </g>
   <g id="text_37">
    <!-- P6 -->
    <g transform="translate(53.723516 132.880906) scale(0.09 -0.09)">
     <use xlink:href="#DejaVuSans-50"/>
     <use xlink:href="#DejaVuSans-36" x="60.302734"/>
    </g>
   </g>
   <g id="text_38">
    <!-- P9 -->
    <g transform="translate(90.923516 132.880906) scale(0.09 -0.09)">
     <defs>
      <path id="DejaVuSans-39" d="M 703 97 
L 703 672 
Q 941 559 1184 500 
Q 1428 441 1663 441 
Q 2288 441 2617 861 
Q 2947 1281 2994 2138 
Q 2813 1869 2534 1725 
Q 2256 1581 1919 1581 
Q 1219 1581 811 2004 
Q 403 2428 403 3163 
Q 403 3881 828 4315 
Q 1253 4750 1959 4750 
Q 2769 4750 3195 4129 
Q 3622 3509 3622 2328 
Q 3622 1225 3098 567 
Q 2575 -91 1691 -91 
Q 1453 -91 1209 -44 
Q 966 3 703 97 
z
M 1959 2075 
Q 2384 2075 2632 2365 
Q 2881 2656 2881 3163 
Q 2881 3666 2632 3958 
Q 2384 4250 1959 4250 
Q 1534 4250 1286 3958 
Q 1038 3666 1038 3163 
Q 1038 2656 1286 2365 
Q 1534 2075 1959 2075 
z
" transform="scale(0.015625)"/>
     </defs>
     <use xlink:href="#DejaVuSans-50"/>
     <use xlink:href="#DejaVuSans-39" x="60.302734"/>
    </g>
   </g>
   <g id="text_39">
    <!-- P12 -->
    <g transform="translate(125.260391 132.880906) scale(0.09 -0.09)">
     <use xlink:href="#DejaVuSans-50"/>
     <use xlink:href="#DejaVuSans-31" x="60.302734"/>
     <use xlink:href="#DejaVuSans-32" x="123.925781"/>
    </g>
   </g>
   <g id="text_40">
    <!-- P14 -->
    <g transform="translate(162.460391 132.880906) scale(0.09 -0.09)">
     <use xlink:href="#DejaVuSans-50"/>
     <use xlink:href="#DejaVuSans-31" x="60.302734"/>
     <use xlink:href="#DejaVuSans-34" x="123.925781"/>
    </g>
   </g>
   <g id="text_41">
    <!-- P15 -->
    <g transform="translate(199.660391 132.880906) scale(0.09 -0.09)">
     <use xlink:href="#DejaVuSans-50"/>
     <use xlink:href="#DejaVuSans-31" x="60.302734"/>
     <use xlink:href="#DejaVuSans-35" x="123.925781"/>
    </g>
   </g>
   <g id="text_42">
    <!-- P16 -->
    <g transform="translate(236.860391 132.880906) scale(0.09 -0.09)">
     <use xlink:href="#DejaVuSans-50"/>
     <use xlink:href="#DejaVuSans-31" x="60.302734"/>
     <use xlink:href="#DejaVuSans-36" x="123.925781"/>
    </g>
   </g>
   <g id="text_43">
    <!-- P17 -->
    <g transform="translate(274.060391 132.880906) scale(0.09 -0.09)">
     <use xlink:href="#DejaVuSans-50"/>
     <use xlink:href="#DejaVuSans-31" x="60.302734"/>
     <use xlink:href="#DejaVuSans-37" x="123.925781"/>
    </g>
   </g>
   <g id="text_44">
    <!-- P18 -->
    <g transform="translate(311.260391 132.880906) scale(0.09 -0.09)">
     <defs>
      <path id="DejaVuSans-38" d="M 2034 2216 
Q 1584 2216 1326 1975 
Q 1069 1734 1069 1313 
Q 1069 891 1326 650 
Q 1584 409 2034 409 
Q 2484 409 2743 651 
Q 3003 894 3003 1313 
Q 3003 1734 2745 1975 
Q 2488 2216 2034 2216 
z
M 1403 2484 
Q 997 2584 770 2862 
Q 544 3141 544 3541 
Q 544 4100 942 4425 
Q 1341 4750 2034 4750 
Q 2731 4750 3128 4425 
Q 3525 4100 3525 3541 
Q 3525 3141 3298 2862 
Q 3072 2584 2669 2484 
Q 3125 2378 3379 2068 
Q 3634 1759 3634 1313 
Q 3634 634 3220 271 
Q 2806 -91 2034 -91 
Q 1263 -91 848 271 
Q 434 634 434 1313 
Q 434 1759 690 2068 
Q 947 2378 1403 2484 
z
M 1172 3481 
Q 1172 3119 1398 2916 
Q 1625 2713 2034 2713 
Q 2441 2713 2670 2916 
Q 2900 3119 2900 3481 
Q 2900 3844 2670 4047 
Q 2441 4250 2034 4250 
Q 1625 4250 1398 4047 
Q 1172 3844 1172 3481 
z
" transform="scale(0.015625)"/>
     </defs>
     <use xlink:href="#DejaVuSans-50"/>
     <use xlink:href="#DejaVuSans-31" x="60.302734"/>
     <use xlink:href="#DejaVuSans-38" x="123.925781"/>
    </g>
   </g>
   <g id="text_45">
    <!-- P19 -->
    <g transform="translate(348.460391 132.880906) scale(0.09 -0.09)">
     <use xlink:href="#DejaVuSans-50"/>
     <use xlink:href="#DejaVuSans-31" x="60.302734"/>
     <use xlink:href="#DejaVuSans-39" x="123.925781"/>
    </g>
   </g>
   <g id="text_46">
    <!-- P20 -->
    <g transform="translate(385.660391 132.880906) scale(0.09 -0.09)">
     <use xlink:href="#DejaVuSans-50"/>
     <use xlink:href="#DejaVuSans-32" x="60.302734"/>
     <use xlink:href="#DejaVuSans-30" x="123.925781"/>
    </g>
   </g>
  </g>
 </g>
 <defs>
  <clipPath id="p28d56d7f85">
   <rect x="40.7" y="12.210312" width="372" height="111.6"/>
  </clipPath>
 </defs>
</svg>
