<?xml version="1.0" encoding="utf-8" standalone="no"?>
<!DOCTYPE svg PUBLIC "-//W3C//DTD SVG 1.1//EN"
  "http://www.w3.org/Graphics/SVG/1.1/DTD/svg11.dtd">
<svg xmlns:xlink="http://www.w3.org/1999/xlink" width="620.7075pt" height="216pt" viewBox="0 0 620.7075 216" xmlns="http://www.w3.org/2000/svg" version="1.1">
 <metadata>
  <rdf:RDF xmlns:dc="http://purl.org/dc/elements/1.1/" xmlns:cc="http://creativecommons.org/ns#" xmlns:rdf="http://www.w3.org/1999/02/22-rdf-syntax-ns#">
   <cc:Work>
    <dc:type rdf:resource="http://purl.org/dc/dcmitype/StillImage"/>
    <dc:date>2024-05-23T22:49:53.593011</dc:date>
    <dc:format>image/svg+xml</dc:format>
    <dc:creator>
     <cc:Agent>
      <dc:title>Matplotlib v3.7.1, https://matplotlib.org/</dc:title>
     </cc:Agent>
    </dc:creator>
   </cc:Work>
  </rdf:RDF>
 </metadata>
 <defs>
  <style type="text/css">*{stroke-linejoin: round; stroke-linecap: butt}</style>
 </defs>
 <g id="figure_1">
  <g id="patch_1">
   <path d="M 0 216 
L 620.7075 216 
L 620.7075 0 
L 0 0 
z
" style="fill: #ffffff"/>
  </g>
  <g id="axes_1">
   <g id="table_1">
    <g id="patch_2">
     <path d="M 0 18 
L 61.1025 18 
L 61.1025 -0 
L 0 -0 
z
" style="fill: #ffffff; stroke: #000000; stroke-linejoin: miter"/>
    </g>
    <g id="text_1">
     <!-- Node -->
     <g transform="translate(15.961406 11.759375) scale(0.1 -0.1)">
      <defs>
       <path id="DejaVuSans-Bold-4e" d="M 588 4666 
L 1931 4666 
L 3628 1466 
L 3628 4666 
L 4769 4666 
L 4769 0 
L 3425 0 
L 1728 3200 
L 1728 0 
L 588 0 
L 588 4666 
z
" transform="scale(0.015625)"/>
       <path id="DejaVuSans-Bold-6f" d="M 2203 2784 
Q 1831 2784 1636 2517 
Q 1441 2250 1441 1747 
Q 1441 1244 1636 976 
Q 1831 709 2203 709 
Q 2569 709 2762 976 
Q 2956 1244 2956 1747 
Q 2956 2250 2762 2517 
Q 2569 2784 2203 2784 
z
M 2203 3584 
Q 3106 3584 3614 3096 
Q 4122 2609 4122 1747 
Q 4122 884 3614 396 
Q 3106 -91 2203 -91 
Q 1297 -91 786 396 
Q 275 884 275 1747 
Q 275 2609 786 3096 
Q 1297 3584 2203 3584 
z
" transform="scale(0.015625)"/>
       <path id="DejaVuSans-Bold-64" d="M 2919 2988 
L 2919 4863 
L 4044 4863 
L 4044 0 
L 2919 0 
L 2919 506 
Q 2688 197 2409 53 
Q 2131 -91 1766 -91 
Q 1119 -91 703 423 
Q 288 938 288 1747 
Q 288 2556 703 3070 
Q 1119 3584 1766 3584 
Q 2128 3584 2408 3439 
Q 2688 3294 2919 2988 
z
M 2181 722 
Q 2541 722 2730 984 
Q 2919 1247 2919 1747 
Q 2919 2247 2730 2509 
Q 2541 2772 2181 2772 
Q 1825 2772 1636 2509 
Q 1447 2247 1447 1747 
Q 1447 1247 1636 984 
Q 1825 722 2181 722 
z
" transform="scale(0.015625)"/>
       <path id="DejaVuSans-Bold-65" d="M 4031 1759 
L 4031 1441 
L 1416 1441 
Q 1456 1047 1700 850 
Q 1944 653 2381 653 
Q 2734 653 3104 758 
Q 3475 863 3866 1075 
L 3866 213 
Q 3469 63 3072 -14 
Q 2675 -91 2278 -91 
Q 1328 -91 801 392 
Q 275 875 275 1747 
Q 275 2603 792 3093 
Q 1309 3584 2216 3584 
Q 3041 3584 3536 3087 
Q 4031 2591 4031 1759 
z
M 2881 2131 
Q 2881 2450 2695 2645 
Q 2509 2841 2209 2841 
Q 1884 2841 1681 2658 
Q 1478 2475 1428 2131 
L 2881 2131 
z
" transform="scale(0.015625)"/>
      </defs>
      <use xlink:href="#DejaVuSans-Bold-4e"/>
      <use xlink:href="#DejaVuSans-Bold-6f" x="83.691406"/>
      <use xlink:href="#DejaVuSans-Bold-64" x="152.392578"/>
      <use xlink:href="#DejaVuSans-Bold-65" x="223.974609"/>
     </g>
    </g>
    <g id="patch_3">
     <path d="M 61.1025 18 
L 107.608125 18 
L 107.608125 -0 
L 61.1025 -0 
z
" style="fill: #ffffff; stroke: #000000; stroke-linejoin: miter"/>
    </g>
    <g id="text_2">
     <!-- Impact -->
     <g transform="translate(64.977969 11.759375) scale(0.1 -0.1)">
      <defs>
       <path id="DejaVuSans-Bold-49" d="M 588 4666 
L 1791 4666 
L 1791 0 
L 588 0 
L 588 4666 
z
" transform="scale(0.015625)"/>
       <path id="DejaVuSans-Bold-6d" d="M 3781 2919 
Q 3994 3244 4286 3414 
Q 4578 3584 4928 3584 
Q 5531 3584 5847 3212 
Q 6163 2841 6163 2131 
L 6163 0 
L 5038 0 
L 5038 1825 
Q 5041 1866 5042 1909 
Q 5044 1953 5044 2034 
Q 5044 2406 4934 2573 
Q 4825 2741 4581 2741 
Q 4263 2741 4089 2478 
Q 3916 2216 3909 1719 
L 3909 0 
L 2784 0 
L 2784 1825 
Q 2784 2406 2684 2573 
Q 2584 2741 2328 2741 
Q 2006 2741 1831 2477 
Q 1656 2213 1656 1722 
L 1656 0 
L 531 0 
L 531 3500 
L 1656 3500 
L 1656 2988 
Q 1863 3284 2130 3434 
Q 2397 3584 2719 3584 
Q 3081 3584 3359 3409 
Q 3638 3234 3781 2919 
z
" transform="scale(0.015625)"/>
       <path id="DejaVuSans-Bold-70" d="M 1656 506 
L 1656 -1331 
L 538 -1331 
L 538 3500 
L 1656 3500 
L 1656 2988 
Q 1888 3294 2169 3439 
Q 2450 3584 2816 3584 
Q 3463 3584 3878 3070 
Q 4294 2556 4294 1747 
Q 4294 938 3878 423 
Q 3463 -91 2816 -91 
Q 2450 -91 2169 54 
Q 1888 200 1656 506 
z
M 2400 2772 
Q 2041 2772 1848 2508 
Q 1656 2244 1656 1747 
Q 1656 1250 1848 986 
Q 2041 722 2400 722 
Q 2759 722 2948 984 
Q 3138 1247 3138 1747 
Q 3138 2247 2948 2509 
Q 2759 2772 2400 2772 
z
" transform="scale(0.015625)"/>
       <path id="DejaVuSans-Bold-61" d="M 2106 1575 
Q 1756 1575 1579 1456 
Q 1403 1338 1403 1106 
Q 1403 894 1545 773 
Q 1688 653 1941 653 
Q 2256 653 2472 879 
Q 2688 1106 2688 1447 
L 2688 1575 
L 2106 1575 
z
M 3816 1997 
L 3816 0 
L 2688 0 
L 2688 519 
Q 2463 200 2181 54 
Q 1900 -91 1497 -91 
Q 953 -91 614 226 
Q 275 544 275 1050 
Q 275 1666 698 1953 
Q 1122 2241 2028 2241 
L 2688 2241 
L 2688 2328 
Q 2688 2594 2478 2717 
Q 2269 2841 1825 2841 
Q 1466 2841 1156 2769 
Q 847 2697 581 2553 
L 581 3406 
Q 941 3494 1303 3539 
Q 1666 3584 2028 3584 
Q 2975 3584 3395 3211 
Q 3816 2838 3816 1997 
z
" transform="scale(0.015625)"/>
       <path id="DejaVuSans-Bold-63" d="M 3366 3391 
L 3366 2478 
Q 3138 2634 2908 2709 
Q 2678 2784 2431 2784 
Q 1963 2784 1702 2511 
Q 1441 2238 1441 1747 
Q 1441 1256 1702 982 
Q 1963 709 2431 709 
Q 2694 709 2930 787 
Q 3166 866 3366 1019 
L 3366 103 
Q 3103 6 2833 -42 
Q 2563 -91 2291 -91 
Q 1344 -91 809 395 
Q 275 881 275 1747 
Q 275 2613 809 3098 
Q 1344 3584 2291 3584 
Q 2566 3584 2833 3536 
Q 3100 3488 3366 3391 
z
" transform="scale(0.015625)"/>
       <path id="DejaVuSans-Bold-74" d="M 1759 4494 
L 1759 3500 
L 2913 3500 
L 2913 2700 
L 1759 2700 
L 1759 1216 
Q 1759 972 1856 886 
Q 1953 800 2241 800 
L 2816 800 
L 2816 0 
L 1856 0 
Q 1194 0 917 276 
Q 641 553 641 1216 
L 641 2700 
L 84 2700 
L 84 3500 
L 641 3500 
L 641 4494 
L 1759 4494 
z
" transform="scale(0.015625)"/>
      </defs>
      <use xlink:href="#DejaVuSans-Bold-49"/>
      <use xlink:href="#DejaVuSans-Bold-6d" x="37.207031"/>
      <use xlink:href="#DejaVuSans-Bold-70" x="141.40625"/>
      <use xlink:href="#DejaVuSans-Bold-61" x="212.988281"/>
      <use xlink:href="#DejaVuSans-Bold-63" x="280.46875"/>
      <use xlink:href="#DejaVuSans-Bold-74" x="339.746094"/>
     </g>
    </g>
    <g id="patch_4">
     <path d="M 107.608125 18 
L 237.043125 18 
L 237.043125 -0 
L 107.608125 -0 
z
" style="fill: #ffffff; stroke: #000000; stroke-linejoin: miter"/>
    </g>
    <g id="text_3">
     <!-- Algorithm sub-task -->
     <g transform="translate(118.394375 11.720312) scale(0.1 -0.1)">
      <defs>
       <path id="DejaVuSans-Bold-41" d="M 3419 850 
L 1538 850 
L 1241 0 
L 31 0 
L 1759 4666 
L 3194 4666 
L 4922 0 
L 3713 0 
L 3419 850 
z
M 1838 1716 
L 3116 1716 
L 2478 3572 
L 1838 1716 
z
" transform="scale(0.015625)"/>
       <path id="DejaVuSans-Bold-6c" d="M 538 4863 
L 1656 4863 
L 1656 0 
L 538 0 
L 538 4863 
z
" transform="scale(0.015625)"/>
       <path id="DejaVuSans-Bold-67" d="M 2919 594 
Q 2688 288 2409 144 
Q 2131 0 1766 0 
Q 1125 0 706 504 
Q 288 1009 288 1791 
Q 288 2575 706 3076 
Q 1125 3578 1766 3578 
Q 2131 3578 2409 3434 
Q 2688 3291 2919 2981 
L 2919 3500 
L 4044 3500 
L 4044 353 
Q 4044 -491 3511 -936 
Q 2978 -1381 1966 -1381 
Q 1638 -1381 1331 -1331 
Q 1025 -1281 716 -1178 
L 716 -306 
Q 1009 -475 1290 -558 
Q 1572 -641 1856 -641 
Q 2406 -641 2662 -400 
Q 2919 -159 2919 353 
L 2919 594 
z
M 2181 2772 
Q 1834 2772 1640 2515 
Q 1447 2259 1447 1791 
Q 1447 1309 1634 1061 
Q 1822 813 2181 813 
Q 2531 813 2725 1069 
Q 2919 1325 2919 1791 
Q 2919 2259 2725 2515 
Q 2531 2772 2181 2772 
z
" transform="scale(0.015625)"/>
       <path id="DejaVuSans-Bold-72" d="M 3138 2547 
Q 2991 2616 2845 2648 
Q 2700 2681 2553 2681 
Q 2122 2681 1889 2404 
Q 1656 2128 1656 1613 
L 1656 0 
L 538 0 
L 538 3500 
L 1656 3500 
L 1656 2925 
Q 1872 3269 2151 3426 
Q 2431 3584 2822 3584 
Q 2878 3584 2943 3579 
Q 3009 3575 3134 3559 
L 3138 2547 
z
" transform="scale(0.015625)"/>
       <path id="DejaVuSans-Bold-69" d="M 538 3500 
L 1656 3500 
L 1656 0 
L 538 0 
L 538 3500 
z
M 538 4863 
L 1656 4863 
L 1656 3950 
L 538 3950 
L 538 4863 
z
" transform="scale(0.015625)"/>
       <path id="DejaVuSans-Bold-68" d="M 4056 2131 
L 4056 0 
L 2931 0 
L 2931 347 
L 2931 1625 
Q 2931 2084 2911 2256 
Q 2891 2428 2841 2509 
Q 2775 2619 2662 2680 
Q 2550 2741 2406 2741 
Q 2056 2741 1856 2470 
Q 1656 2200 1656 1722 
L 1656 0 
L 538 0 
L 538 4863 
L 1656 4863 
L 1656 2988 
Q 1909 3294 2193 3439 
Q 2478 3584 2822 3584 
Q 3428 3584 3742 3212 
Q 4056 2841 4056 2131 
z
" transform="scale(0.015625)"/>
       <path id="DejaVuSans-Bold-20" transform="scale(0.015625)"/>
       <path id="DejaVuSans-Bold-73" d="M 3272 3391 
L 3272 2541 
Q 2913 2691 2578 2766 
Q 2244 2841 1947 2841 
Q 1628 2841 1473 2761 
Q 1319 2681 1319 2516 
Q 1319 2381 1436 2309 
Q 1553 2238 1856 2203 
L 2053 2175 
Q 2913 2066 3209 1816 
Q 3506 1566 3506 1031 
Q 3506 472 3093 190 
Q 2681 -91 1863 -91 
Q 1516 -91 1145 -36 
Q 775 19 384 128 
L 384 978 
Q 719 816 1070 734 
Q 1422 653 1784 653 
Q 2113 653 2278 743 
Q 2444 834 2444 1013 
Q 2444 1163 2330 1236 
Q 2216 1309 1875 1350 
L 1678 1375 
Q 931 1469 631 1722 
Q 331 1975 331 2491 
Q 331 3047 712 3315 
Q 1094 3584 1881 3584 
Q 2191 3584 2531 3537 
Q 2872 3491 3272 3391 
z
" transform="scale(0.015625)"/>
       <path id="DejaVuSans-Bold-75" d="M 500 1363 
L 500 3500 
L 1625 3500 
L 1625 3150 
Q 1625 2866 1622 2436 
Q 1619 2006 1619 1863 
Q 1619 1441 1641 1255 
Q 1663 1069 1716 984 
Q 1784 875 1895 815 
Q 2006 756 2150 756 
Q 2500 756 2700 1025 
Q 2900 1294 2900 1772 
L 2900 3500 
L 4019 3500 
L 4019 0 
L 2900 0 
L 2900 506 
Q 2647 200 2364 54 
Q 2081 -91 1741 -91 
Q 1134 -91 817 281 
Q 500 653 500 1363 
z
" transform="scale(0.015625)"/>
       <path id="DejaVuSans-Bold-62" d="M 2400 722 
Q 2759 722 2948 984 
Q 3138 1247 3138 1747 
Q 3138 2247 2948 2509 
Q 2759 2772 2400 2772 
Q 2041 2772 1848 2508 
Q 1656 2244 1656 1747 
Q 1656 1250 1848 986 
Q 2041 722 2400 722 
z
M 1656 2988 
Q 1888 3294 2169 3439 
Q 2450 3584 2816 3584 
Q 3463 3584 3878 3070 
Q 4294 2556 4294 1747 
Q 4294 938 3878 423 
Q 3463 -91 2816 -91 
Q 2450 -91 2169 54 
Q 1888 200 1656 506 
L 1656 0 
L 538 0 
L 538 4863 
L 1656 4863 
L 1656 2988 
z
" transform="scale(0.015625)"/>
       <path id="DejaVuSans-Bold-2d" d="M 347 2297 
L 2309 2297 
L 2309 1388 
L 347 1388 
L 347 2297 
z
" transform="scale(0.015625)"/>
       <path id="DejaVuSans-Bold-6b" d="M 538 4863 
L 1656 4863 
L 1656 2216 
L 2944 3500 
L 4244 3500 
L 2534 1894 
L 4378 0 
L 3022 0 
L 1656 1459 
L 1656 0 
L 538 0 
L 538 4863 
z
" transform="scale(0.015625)"/>
      </defs>
      <use xlink:href="#DejaVuSans-Bold-41"/>
      <use xlink:href="#DejaVuSans-Bold-6c" x="77.392578"/>
      <use xlink:href="#DejaVuSans-Bold-67" x="111.669922"/>
      <use xlink:href="#DejaVuSans-Bold-6f" x="183.251953"/>
      <use xlink:href="#DejaVuSans-Bold-72" x="251.953125"/>
      <use xlink:href="#DejaVuSans-Bold-69" x="301.269531"/>
      <use xlink:href="#DejaVuSans-Bold-74" x="335.546875"/>
      <use xlink:href="#DejaVuSans-Bold-68" x="383.349609"/>
      <use xlink:href="#DejaVuSans-Bold-6d" x="454.541016"/>
      <use xlink:href="#DejaVuSans-Bold-20" x="558.740234"/>
      <use xlink:href="#DejaVuSans-Bold-73" x="593.554688"/>
      <use xlink:href="#DejaVuSans-Bold-75" x="653.076172"/>
      <use xlink:href="#DejaVuSans-Bold-62" x="724.267578"/>
      <use xlink:href="#DejaVuSans-Bold-2d" x="795.849609"/>
      <use xlink:href="#DejaVuSans-Bold-74" x="837.353516"/>
      <use xlink:href="#DejaVuSans-Bold-61" x="885.15625"/>
      <use xlink:href="#DejaVuSans-Bold-73" x="952.636719"/>
      <use xlink:href="#DejaVuSans-Bold-6b" x="1012.158203"/>
     </g>
    </g>
    <g id="patch_5">
     <path d="M 237.043125 18 
L 314.73 18 
L 314.73 -0 
L 237.043125 -0 
z
" style="fill: #ffffff; stroke: #000000; stroke-linejoin: miter"/>
    </g>
    <g id="text_4">
     <!-- Attends to -->
     <g transform="translate(246.16625 11.759375) scale(0.1 -0.1)">
      <defs>
       <path id="DejaVuSans-Bold-6e" d="M 4056 2131 
L 4056 0 
L 2931 0 
L 2931 347 
L 2931 1631 
Q 2931 2084 2911 2256 
Q 2891 2428 2841 2509 
Q 2775 2619 2662 2680 
Q 2550 2741 2406 2741 
Q 2056 2741 1856 2470 
Q 1656 2200 1656 1722 
L 1656 0 
L 538 0 
L 538 3500 
L 1656 3500 
L 1656 2988 
Q 1909 3294 2193 3439 
Q 2478 3584 2822 3584 
Q 3428 3584 3742 3212 
Q 4056 2841 4056 2131 
z
" transform="scale(0.015625)"/>
      </defs>
      <use xlink:href="#DejaVuSans-Bold-41"/>
      <use xlink:href="#DejaVuSans-Bold-74" x="77.392578"/>
      <use xlink:href="#DejaVuSans-Bold-74" x="125.195312"/>
      <use xlink:href="#DejaVuSans-Bold-65" x="172.998047"/>
      <use xlink:href="#DejaVuSans-Bold-6e" x="240.820312"/>
      <use xlink:href="#DejaVuSans-Bold-64" x="312.011719"/>
      <use xlink:href="#DejaVuSans-Bold-73" x="383.59375"/>
      <use xlink:href="#DejaVuSans-Bold-20" x="443.115234"/>
      <use xlink:href="#DejaVuSans-Bold-74" x="477.929688"/>
      <use xlink:href="#DejaVuSans-Bold-6f" x="525.732422"/>
     </g>
    </g>
    <g id="patch_6">
     <path d="M 314.73 18 
L 403.51125 18 
L 403.51125 -0 
L 314.73 -0 
z
" style="fill: #ffffff; stroke: #000000; stroke-linejoin: miter"/>
    </g>
    <g id="text_5">
     <!-- Add Complex -->
     <g transform="translate(322.128438 11.759375) scale(0.1 -0.1)">
      <defs>
       <path id="DejaVuSans-Bold-43" d="M 4288 256 
Q 3956 84 3597 -3 
Q 3238 -91 2847 -91 
Q 1681 -91 1000 561 
Q 319 1213 319 2328 
Q 319 3447 1000 4098 
Q 1681 4750 2847 4750 
Q 3238 4750 3597 4662 
Q 3956 4575 4288 4403 
L 4288 3438 
Q 3953 3666 3628 3772 
Q 3303 3878 2944 3878 
Q 2300 3878 1931 3465 
Q 1563 3053 1563 2328 
Q 1563 1606 1931 1193 
Q 2300 781 2944 781 
Q 3303 781 3628 887 
Q 3953 994 4288 1222 
L 4288 256 
z
" transform="scale(0.015625)"/>
       <path id="DejaVuSans-Bold-78" d="M 1422 1791 
L 159 3500 
L 1344 3500 
L 2059 2463 
L 2784 3500 
L 3969 3500 
L 2706 1797 
L 4031 0 
L 2847 0 
L 2059 1106 
L 1281 0 
L 97 0 
L 1422 1791 
z
" transform="scale(0.015625)"/>
      </defs>
      <use xlink:href="#DejaVuSans-Bold-41"/>
      <use xlink:href="#DejaVuSans-Bold-64" x="77.392578"/>
      <use xlink:href="#DejaVuSans-Bold-64" x="148.974609"/>
      <use xlink:href="#DejaVuSans-Bold-20" x="220.556641"/>
      <use xlink:href="#DejaVuSans-Bold-43" x="255.371094"/>
      <use xlink:href="#DejaVuSans-Bold-6f" x="328.759766"/>
      <use xlink:href="#DejaVuSans-Bold-6d" x="397.460938"/>
      <use xlink:href="#DejaVuSans-Bold-70" x="501.660156"/>
      <use xlink:href="#DejaVuSans-Bold-6c" x="573.242188"/>
      <use xlink:href="#DejaVuSans-Bold-65" x="607.519531"/>
      <use xlink:href="#DejaVuSans-Bold-78" x="675.341797"/>
     </g>
    </g>
    <g id="patch_7">
     <path d="M 403.51125 18 
L 491.600625 18 
L 491.600625 -0 
L 403.51125 -0 
z
" style="fill: #ffffff; stroke: #000000; stroke-linejoin: miter"/>
    </g>
    <g id="text_6">
     <!-- Sub Complex -->
     <g transform="translate(410.852031 11.759375) scale(0.1 -0.1)">
      <defs>
       <path id="DejaVuSans-Bold-53" d="M 3834 4519 
L 3834 3531 
Q 3450 3703 3084 3790 
Q 2719 3878 2394 3878 
Q 1963 3878 1756 3759 
Q 1550 3641 1550 3391 
Q 1550 3203 1689 3098 
Q 1828 2994 2194 2919 
L 2706 2816 
Q 3484 2659 3812 2340 
Q 4141 2022 4141 1434 
Q 4141 663 3683 286 
Q 3225 -91 2284 -91 
Q 1841 -91 1394 -6 
Q 947 78 500 244 
L 500 1259 
Q 947 1022 1364 901 
Q 1781 781 2169 781 
Q 2563 781 2772 912 
Q 2981 1044 2981 1288 
Q 2981 1506 2839 1625 
Q 2697 1744 2272 1838 
L 1806 1941 
Q 1106 2091 782 2419 
Q 459 2747 459 3303 
Q 459 4000 909 4375 
Q 1359 4750 2203 4750 
Q 2588 4750 2994 4692 
Q 3400 4634 3834 4519 
z
" transform="scale(0.015625)"/>
      </defs>
      <use xlink:href="#DejaVuSans-Bold-53"/>
      <use xlink:href="#DejaVuSans-Bold-75" x="72.021484"/>
      <use xlink:href="#DejaVuSans-Bold-62" x="143.212891"/>
      <use xlink:href="#DejaVuSans-Bold-20" x="214.794922"/>
      <use xlink:href="#DejaVuSans-Bold-43" x="249.609375"/>
      <use xlink:href="#DejaVuSans-Bold-6f" x="322.998047"/>
      <use xlink:href="#DejaVuSans-Bold-6d" x="391.699219"/>
      <use xlink:href="#DejaVuSans-Bold-70" x="495.898438"/>
      <use xlink:href="#DejaVuSans-Bold-6c" x="567.480469"/>
      <use xlink:href="#DejaVuSans-Bold-65" x="601.757812"/>
      <use xlink:href="#DejaVuSans-Bold-78" x="669.580078"/>
     </g>
    </g>
    <g id="patch_8">
     <path d="M 491.600625 18 
L 580.6875 18 
L 580.6875 -0 
L 491.600625 -0 
z
" style="fill: #ffffff; stroke: #000000; stroke-linejoin: miter"/>
    </g>
    <g id="text_7">
     <!-- Neg Complex -->
     <g transform="translate(499.024531 11.720312) scale(0.1 -0.1)">
      <use xlink:href="#DejaVuSans-Bold-4e"/>
      <use xlink:href="#DejaVuSans-Bold-65" x="83.691406"/>
      <use xlink:href="#DejaVuSans-Bold-67" x="151.513672"/>
      <use xlink:href="#DejaVuSans-Bold-20" x="223.095703"/>
      <use xlink:href="#DejaVuSans-Bold-43" x="257.910156"/>
      <use xlink:href="#DejaVuSans-Bold-6f" x="331.298828"/>
      <use xlink:href="#DejaVuSans-Bold-6d" x="400"/>
      <use xlink:href="#DejaVuSans-Bold-70" x="504.199219"/>
      <use xlink:href="#DejaVuSans-Bold-6c" x="575.78125"/>
      <use xlink:href="#DejaVuSans-Bold-65" x="610.058594"/>
      <use xlink:href="#DejaVuSans-Bold-78" x="677.880859"/>
     </g>
    </g>
    <g id="patch_9">
     <path d="M 580.6875 18 
L 620.7075 18 
L 620.7075 -0 
L 580.6875 -0 
z
" style="fill: #ffffff; stroke: #000000; stroke-linejoin: miter"/>
    </g>
    <g id="text_8">
     <!-- Fail % -->
     <g transform="translate(584.0225 11.759375) scale(0.1 -0.1)">
      <defs>
       <path id="DejaVuSans-Bold-46" d="M 588 4666 
L 3834 4666 
L 3834 3756 
L 1791 3756 
L 1791 2888 
L 3713 2888 
L 3713 1978 
L 1791 1978 
L 1791 0 
L 588 0 
L 588 4666 
z
" transform="scale(0.015625)"/>
       <path id="DejaVuSans-Bold-25" d="M 4959 1925 
Q 4738 1925 4616 1733 
Q 4494 1541 4494 1184 
Q 4494 825 4614 633 
Q 4734 441 4959 441 
Q 5184 441 5303 633 
Q 5422 825 5422 1184 
Q 5422 1541 5301 1733 
Q 5181 1925 4959 1925 
z
M 4959 2450 
Q 5541 2450 5875 2112 
Q 6209 1775 6209 1184 
Q 6209 594 5875 251 
Q 5541 -91 4959 -91 
Q 4378 -91 4042 251 
Q 3706 594 3706 1184 
Q 3706 1772 4042 2111 
Q 4378 2450 4959 2450 
z
M 2094 -91 
L 1403 -91 
L 4319 4750 
L 5013 4750 
L 2094 -91 
z
M 1453 4750 
Q 2034 4750 2367 4411 
Q 2700 4072 2700 3481 
Q 2700 2891 2367 2550 
Q 2034 2209 1453 2209 
Q 872 2209 539 2550 
Q 206 2891 206 3481 
Q 206 4072 539 4411 
Q 872 4750 1453 4750 
z
M 1453 4225 
Q 1228 4225 1106 4031 
Q 984 3838 984 3481 
Q 984 3122 1106 2926 
Q 1228 2731 1453 2731 
Q 1678 2731 1798 2926 
Q 1919 3122 1919 3481 
Q 1919 3838 1797 4031 
Q 1675 4225 1453 4225 
z
" transform="scale(0.015625)"/>
      </defs>
      <use xlink:href="#DejaVuSans-Bold-46"/>
      <use xlink:href="#DejaVuSans-Bold-61" x="62.435547"/>
      <use xlink:href="#DejaVuSans-Bold-69" x="129.916016"/>
      <use xlink:href="#DejaVuSans-Bold-6c" x="164.193359"/>
      <use xlink:href="#DejaVuSans-Bold-20" x="198.470703"/>
      <use xlink:href="#DejaVuSans-Bold-25" x="233.285156"/>
     </g>
    </g>
    <g id="patch_10">
     <path d="M 0 36 
L 61.1025 36 
L 61.1025 18 
L 0 18 
z
" style="fill: #ffffff; stroke: #000000; stroke-linejoin: miter"/>
    </g>
    <g id="text_9">
     <!-- P18L0H0 -->
     <g transform="translate(8.265313 29.759375) scale(0.1 -0.1)">
      <defs>
       <path id="DejaVuSans-50" d="M 1259 4147 
L 1259 2394 
L 2053 2394 
Q 2494 2394 2734 2622 
Q 2975 2850 2975 3272 
Q 2975 3691 2734 3919 
Q 2494 4147 2053 4147 
L 1259 4147 
z
M 628 4666 
L 2053 4666 
Q 2838 4666 3239 4311 
Q 3641 3956 3641 3272 
Q 3641 2581 3239 2228 
Q 2838 1875 2053 1875 
L 1259 1875 
L 1259 0 
L 628 0 
L 628 4666 
z
" transform="scale(0.015625)"/>
       <path id="DejaVuSans-31" d="M 794 531 
L 1825 531 
L 1825 4091 
L 703 3866 
L 703 4441 
L 1819 4666 
L 2450 4666 
L 2450 531 
L 3481 531 
L 3481 0 
L 794 0 
L 794 531 
z
" transform="scale(0.015625)"/>
       <path id="DejaVuSans-38" d="M 2034 2216 
Q 1584 2216 1326 1975 
Q 1069 1734 1069 1313 
Q 1069 891 1326 650 
Q 1584 409 2034 409 
Q 2484 409 2743 651 
Q 3003 894 3003 1313 
Q 3003 1734 2745 1975 
Q 2488 2216 2034 2216 
z
M 1403 2484 
Q 997 2584 770 2862 
Q 544 3141 544 3541 
Q 544 4100 942 4425 
Q 1341 4750 2034 4750 
Q 2731 4750 3128 4425 
Q 3525 4100 3525 3541 
Q 3525 3141 3298 2862 
Q 3072 2584 2669 2484 
Q 3125 2378 3379 2068 
Q 3634 1759 3634 1313 
Q 3634 634 3220 271 
Q 2806 -91 2034 -91 
Q 1263 -91 848 271 
Q 434 634 434 1313 
Q 434 1759 690 2068 
Q 947 2378 1403 2484 
z
M 1172 3481 
Q 1172 3119 1398 2916 
Q 1625 2713 2034 2713 
Q 2441 2713 2670 2916 
Q 2900 3119 2900 3481 
Q 2900 3844 2670 4047 
Q 2441 4250 2034 4250 
Q 1625 4250 1398 4047 
Q 1172 3844 1172 3481 
z
" transform="scale(0.015625)"/>
       <path id="DejaVuSans-4c" d="M 628 4666 
L 1259 4666 
L 1259 531 
L 3531 531 
L 3531 0 
L 628 0 
L 628 4666 
z
" transform="scale(0.015625)"/>
       <path id="DejaVuSans-30" d="M 2034 4250 
Q 1547 4250 1301 3770 
Q 1056 3291 1056 2328 
Q 1056 1369 1301 889 
Q 1547 409 2034 409 
Q 2525 409 2770 889 
Q 3016 1369 3016 2328 
Q 3016 3291 2770 3770 
Q 2525 4250 2034 4250 
z
M 2034 4750 
Q 2819 4750 3233 4129 
Q 3647 3509 3647 2328 
Q 3647 1150 3233 529 
Q 2819 -91 2034 -91 
Q 1250 -91 836 529 
Q 422 1150 422 2328 
Q 422 3509 836 4129 
Q 1250 4750 2034 4750 
z
" transform="scale(0.015625)"/>
       <path id="DejaVuSans-48" d="M 628 4666 
L 1259 4666 
L 1259 2753 
L 3553 2753 
L 3553 4666 
L 4184 4666 
L 4184 0 
L 3553 0 
L 3553 2222 
L 1259 2222 
L 1259 0 
L 628 0 
L 628 4666 
z
" transform="scale(0.015625)"/>
      </defs>
      <use xlink:href="#DejaVuSans-50"/>
      <use xlink:href="#DejaVuSans-31" x="60.302734"/>
      <use xlink:href="#DejaVuSans-38" x="123.925781"/>
      <use xlink:href="#DejaVuSans-4c" x="187.548828"/>
      <use xlink:href="#DejaVuSans-30" x="243.261719"/>
      <use xlink:href="#DejaVuSans-48" x="306.884766"/>
      <use xlink:href="#DejaVuSans-30" x="382.080078"/>
     </g>
    </g>
    <g id="patch_11">
     <path d="M 61.1025 36 
L 107.608125 36 
L 107.608125 18 
L 61.1025 18 
z
" style="fill: #ffffff; stroke: #000000; stroke-linejoin: miter"/>
    </g>
    <g id="text_10">
     <!-- A2 -->
     <g transform="translate(77.75375 29.759375) scale(0.1 -0.1)">
      <defs>
       <path id="DejaVuSans-41" d="M 2188 4044 
L 1331 1722 
L 3047 1722 
L 2188 4044 
z
M 1831 4666 
L 2547 4666 
L 4325 0 
L 3669 0 
L 3244 1197 
L 1141 1197 
L 716 0 
L 50 0 
L 1831 4666 
z
" transform="scale(0.015625)"/>
       <path id="DejaVuSans-32" d="M 1228 531 
L 3431 531 
L 3431 0 
L 469 0 
L 469 531 
Q 828 903 1448 1529 
Q 2069 2156 2228 2338 
Q 2531 2678 2651 2914 
Q 2772 3150 2772 3378 
Q 2772 3750 2511 3984 
Q 2250 4219 1831 4219 
Q 1534 4219 1204 4116 
Q 875 4013 500 3803 
L 500 4441 
Q 881 4594 1212 4672 
Q 1544 4750 1819 4750 
Q 2544 4750 2975 4387 
Q 3406 4025 3406 3419 
Q 3406 3131 3298 2873 
Q 3191 2616 2906 2266 
Q 2828 2175 2409 1742 
Q 1991 1309 1228 531 
z
" transform="scale(0.015625)"/>
      </defs>
      <use xlink:href="#DejaVuSans-41"/>
      <use xlink:href="#DejaVuSans-32" x="68.408203"/>
     </g>
    </g>
    <g id="patch_12">
     <path d="M 107.608125 36 
L 237.043125 36 
L 237.043125 18 
L 107.608125 18 
z
" style="fill: #c0df80; stroke: #000000; stroke-linejoin: miter"/>
    </g>
    <g id="text_11">
     <!-- A1.SC A1.MB A1.NB  -->
     <g transform="translate(121.405313 29.759375) scale(0.1 -0.1)">
      <defs>
       <path id="DejaVuSans-2e" d="M 684 794 
L 1344 794 
L 1344 0 
L 684 0 
L 684 794 
z
" transform="scale(0.015625)"/>
       <path id="DejaVuSans-53" d="M 3425 4513 
L 3425 3897 
Q 3066 4069 2747 4153 
Q 2428 4238 2131 4238 
Q 1616 4238 1336 4038 
Q 1056 3838 1056 3469 
Q 1056 3159 1242 3001 
Q 1428 2844 1947 2747 
L 2328 2669 
Q 3034 2534 3370 2195 
Q 3706 1856 3706 1288 
Q 3706 609 3251 259 
Q 2797 -91 1919 -91 
Q 1588 -91 1214 -16 
Q 841 59 441 206 
L 441 856 
Q 825 641 1194 531 
Q 1563 422 1919 422 
Q 2459 422 2753 634 
Q 3047 847 3047 1241 
Q 3047 1584 2836 1778 
Q 2625 1972 2144 2069 
L 1759 2144 
Q 1053 2284 737 2584 
Q 422 2884 422 3419 
Q 422 4038 858 4394 
Q 1294 4750 2059 4750 
Q 2388 4750 2728 4690 
Q 3069 4631 3425 4513 
z
" transform="scale(0.015625)"/>
       <path id="DejaVuSans-43" d="M 4122 4306 
L 4122 3641 
Q 3803 3938 3442 4084 
Q 3081 4231 2675 4231 
Q 1875 4231 1450 3742 
Q 1025 3253 1025 2328 
Q 1025 1406 1450 917 
Q 1875 428 2675 428 
Q 3081 428 3442 575 
Q 3803 722 4122 1019 
L 4122 359 
Q 3791 134 3420 21 
Q 3050 -91 2638 -91 
Q 1578 -91 968 557 
Q 359 1206 359 2328 
Q 359 3453 968 4101 
Q 1578 4750 2638 4750 
Q 3056 4750 3426 4639 
Q 3797 4528 4122 4306 
z
" transform="scale(0.015625)"/>
       <path id="DejaVuSans-20" transform="scale(0.015625)"/>
       <path id="DejaVuSans-4d" d="M 628 4666 
L 1569 4666 
L 2759 1491 
L 3956 4666 
L 4897 4666 
L 4897 0 
L 4281 0 
L 4281 4097 
L 3078 897 
L 2444 897 
L 1241 4097 
L 1241 0 
L 628 0 
L 628 4666 
z
" transform="scale(0.015625)"/>
       <path id="DejaVuSans-42" d="M 1259 2228 
L 1259 519 
L 2272 519 
Q 2781 519 3026 730 
Q 3272 941 3272 1375 
Q 3272 1813 3026 2020 
Q 2781 2228 2272 2228 
L 1259 2228 
z
M 1259 4147 
L 1259 2741 
L 2194 2741 
Q 2656 2741 2882 2914 
Q 3109 3088 3109 3444 
Q 3109 3797 2882 3972 
Q 2656 4147 2194 4147 
L 1259 4147 
z
M 628 4666 
L 2241 4666 
Q 2963 4666 3353 4366 
Q 3744 4066 3744 3513 
Q 3744 3084 3544 2831 
Q 3344 2578 2956 2516 
Q 3422 2416 3680 2098 
Q 3938 1781 3938 1306 
Q 3938 681 3513 340 
Q 3088 0 2303 0 
L 628 0 
L 628 4666 
z
" transform="scale(0.015625)"/>
       <path id="DejaVuSans-4e" d="M 628 4666 
L 1478 4666 
L 3547 763 
L 3547 4666 
L 4159 4666 
L 4159 0 
L 3309 0 
L 1241 3903 
L 1241 0 
L 628 0 
L 628 4666 
z
" transform="scale(0.015625)"/>
      </defs>
      <use xlink:href="#DejaVuSans-41"/>
      <use xlink:href="#DejaVuSans-31" x="68.408203"/>
      <use xlink:href="#DejaVuSans-2e" x="132.03125"/>
      <use xlink:href="#DejaVuSans-53" x="163.818359"/>
      <use xlink:href="#DejaVuSans-43" x="227.294922"/>
      <use xlink:href="#DejaVuSans-20" x="297.119141"/>
      <use xlink:href="#DejaVuSans-41" x="328.90625"/>
      <use xlink:href="#DejaVuSans-31" x="397.314453"/>
      <use xlink:href="#DejaVuSans-2e" x="460.9375"/>
      <use xlink:href="#DejaVuSans-4d" x="492.724609"/>
      <use xlink:href="#DejaVuSans-42" x="579.003906"/>
      <use xlink:href="#DejaVuSans-20" x="647.607422"/>
      <use xlink:href="#DejaVuSans-41" x="679.394531"/>
      <use xlink:href="#DejaVuSans-31" x="747.802734"/>
      <use xlink:href="#DejaVuSans-2e" x="811.425781"/>
      <use xlink:href="#DejaVuSans-4e" x="843.212891"/>
      <use xlink:href="#DejaVuSans-42" x="918.017578"/>
      <use xlink:href="#DejaVuSans-20" x="986.621094"/>
     </g>
    </g>
    <g id="patch_13">
     <path d="M 237.043125 36 
L 314.73 36 
L 314.73 18 
L 237.043125 18 
z
" style="fill: #80c080; stroke: #000000; stroke-linejoin: miter"/>
    </g>
    <g id="text_12">
     <!-- D'1 D1 -->
     <g transform="translate(258.860781 29.759375) scale(0.1 -0.1)">
      <defs>
       <path id="DejaVuSans-44" d="M 1259 4147 
L 1259 519 
L 2022 519 
Q 2988 519 3436 956 
Q 3884 1394 3884 2338 
Q 3884 3275 3436 3711 
Q 2988 4147 2022 4147 
L 1259 4147 
z
M 628 4666 
L 1925 4666 
Q 3281 4666 3915 4102 
Q 4550 3538 4550 2338 
Q 4550 1131 3912 565 
Q 3275 0 1925 0 
L 628 0 
L 628 4666 
z
" transform="scale(0.015625)"/>
       <path id="DejaVuSans-27" d="M 1147 4666 
L 1147 2931 
L 616 2931 
L 616 4666 
L 1147 4666 
z
" transform="scale(0.015625)"/>
      </defs>
      <use xlink:href="#DejaVuSans-44"/>
      <use xlink:href="#DejaVuSans-27" x="77.001953"/>
      <use xlink:href="#DejaVuSans-31" x="104.492188"/>
      <use xlink:href="#DejaVuSans-20" x="168.115234"/>
      <use xlink:href="#DejaVuSans-44" x="199.902344"/>
      <use xlink:href="#DejaVuSans-31" x="276.904297"/>
     </g>
    </g>
    <g id="patch_14">
     <path d="M 314.73 36 
L 403.51125 36 
L 403.51125 18 
L 314.73 18 
z
" style="fill: #8094f4; stroke: #000000; stroke-linejoin: miter"/>
    </g>
    <g id="text_13">
     <!-- S123 -->
     <g transform="translate(346.402656 29.759375) scale(0.1 -0.1)">
      <defs>
       <path id="DejaVuSans-33" d="M 2597 2516 
Q 3050 2419 3304 2112 
Q 3559 1806 3559 1356 
Q 3559 666 3084 287 
Q 2609 -91 1734 -91 
Q 1441 -91 1130 -33 
Q 819 25 488 141 
L 488 750 
Q 750 597 1062 519 
Q 1375 441 1716 441 
Q 2309 441 2620 675 
Q 2931 909 2931 1356 
Q 2931 1769 2642 2001 
Q 2353 2234 1838 2234 
L 1294 2234 
L 1294 2753 
L 1863 2753 
Q 2328 2753 2575 2939 
Q 2822 3125 2822 3475 
Q 2822 3834 2567 4026 
Q 2313 4219 1838 4219 
Q 1578 4219 1281 4162 
Q 984 4106 628 3988 
L 628 4550 
Q 988 4650 1302 4700 
Q 1616 4750 1894 4750 
Q 2613 4750 3031 4423 
Q 3450 4097 3450 3541 
Q 3450 3153 3228 2886 
Q 3006 2619 2597 2516 
z
" transform="scale(0.015625)"/>
      </defs>
      <use xlink:href="#DejaVuSans-53"/>
      <use xlink:href="#DejaVuSans-31" x="63.476562"/>
      <use xlink:href="#DejaVuSans-32" x="127.099609"/>
      <use xlink:href="#DejaVuSans-33" x="190.722656"/>
     </g>
    </g>
    <g id="patch_15">
     <path d="M 403.51125 36 
L 491.600625 36 
L 491.600625 18 
L 403.51125 18 
z
" style="fill: #8099f2; stroke: #000000; stroke-linejoin: miter"/>
    </g>
    <g id="text_14">
     <!-- M123 -->
     <g transform="translate(433.698125 29.759375) scale(0.1 -0.1)">
      <use xlink:href="#DejaVuSans-4d"/>
      <use xlink:href="#DejaVuSans-31" x="86.279297"/>
      <use xlink:href="#DejaVuSans-32" x="149.902344"/>
      <use xlink:href="#DejaVuSans-33" x="213.525391"/>
     </g>
    </g>
    <g id="patch_16">
     <path d="M 491.600625 36 
L 580.6875 36 
L 580.6875 18 
L 491.600625 18 
z
" style="fill: #ffffff; stroke: #000000; stroke-linejoin: miter"/>
    </g>
    <g id="patch_17">
     <path d="M 580.6875 36 
L 620.7075 36 
L 620.7075 18 
L 580.6875 18 
z
" style="fill: #80c080; stroke: #000000; stroke-linejoin: miter"/>
    </g>
    <g id="text_15">
     <!-- 6 -->
     <g transform="translate(597.51625 29.759375) scale(0.1 -0.1)">
      <defs>
       <path id="DejaVuSans-36" d="M 2113 2584 
Q 1688 2584 1439 2293 
Q 1191 2003 1191 1497 
Q 1191 994 1439 701 
Q 1688 409 2113 409 
Q 2538 409 2786 701 
Q 3034 994 3034 1497 
Q 3034 2003 2786 2293 
Q 2538 2584 2113 2584 
z
M 3366 4563 
L 3366 3988 
Q 3128 4100 2886 4159 
Q 2644 4219 2406 4219 
Q 1781 4219 1451 3797 
Q 1122 3375 1075 2522 
Q 1259 2794 1537 2939 
Q 1816 3084 2150 3084 
Q 2853 3084 3261 2657 
Q 3669 2231 3669 1497 
Q 3669 778 3244 343 
Q 2819 -91 2113 -91 
Q 1303 -91 875 529 
Q 447 1150 447 2328 
Q 447 3434 972 4092 
Q 1497 4750 2381 4750 
Q 2619 4750 2861 4703 
Q 3103 4656 3366 4563 
z
" transform="scale(0.015625)"/>
      </defs>
      <use xlink:href="#DejaVuSans-36"/>
     </g>
    </g>
    <g id="patch_18">
     <path d="M 0 54 
L 61.1025 54 
L 61.1025 36 
L 0 36 
z
" style="fill: #ffffff; stroke: #000000; stroke-linejoin: miter"/>
    </g>
    <g id="text_16">
     <!-- P18L0H1 -->
     <g transform="translate(8.265313 47.759375) scale(0.1 -0.1)">
      <use xlink:href="#DejaVuSans-50"/>
      <use xlink:href="#DejaVuSans-31" x="60.302734"/>
      <use xlink:href="#DejaVuSans-38" x="123.925781"/>
      <use xlink:href="#DejaVuSans-4c" x="187.548828"/>
      <use xlink:href="#DejaVuSans-30" x="243.261719"/>
      <use xlink:href="#DejaVuSans-48" x="306.884766"/>
      <use xlink:href="#DejaVuSans-31" x="382.080078"/>
     </g>
    </g>
    <g id="patch_19">
     <path d="M 61.1025 54 
L 107.608125 54 
L 107.608125 36 
L 61.1025 36 
z
" style="fill: #ffffff; stroke: #000000; stroke-linejoin: miter"/>
    </g>
    <g id="text_17">
     <!-- A2 -->
     <g transform="translate(77.75375 47.759375) scale(0.1 -0.1)">
      <use xlink:href="#DejaVuSans-41"/>
      <use xlink:href="#DejaVuSans-32" x="68.408203"/>
     </g>
    </g>
    <g id="patch_20">
     <path d="M 107.608125 54 
L 237.043125 54 
L 237.043125 36 
L 107.608125 36 
z
" style="fill: #c0df80; stroke: #000000; stroke-linejoin: miter"/>
    </g>
    <g id="text_18">
     <!-- A2.SA A2.MD A2.ND  -->
     <g transform="translate(120.543594 47.759375) scale(0.1 -0.1)">
      <use xlink:href="#DejaVuSans-41"/>
      <use xlink:href="#DejaVuSans-32" x="68.408203"/>
      <use xlink:href="#DejaVuSans-2e" x="132.03125"/>
      <use xlink:href="#DejaVuSans-53" x="163.818359"/>
      <use xlink:href="#DejaVuSans-41" x="229.169922"/>
      <use xlink:href="#DejaVuSans-20" x="297.578125"/>
      <use xlink:href="#DejaVuSans-41" x="329.365234"/>
      <use xlink:href="#DejaVuSans-32" x="397.773438"/>
      <use xlink:href="#DejaVuSans-2e" x="461.396484"/>
      <use xlink:href="#DejaVuSans-4d" x="493.183594"/>
      <use xlink:href="#DejaVuSans-44" x="579.462891"/>
      <use xlink:href="#DejaVuSans-20" x="656.464844"/>
      <use xlink:href="#DejaVuSans-41" x="688.251953"/>
      <use xlink:href="#DejaVuSans-32" x="756.660156"/>
      <use xlink:href="#DejaVuSans-2e" x="820.283203"/>
      <use xlink:href="#DejaVuSans-4e" x="852.070312"/>
      <use xlink:href="#DejaVuSans-44" x="926.875"/>
      <use xlink:href="#DejaVuSans-20" x="1003.876953"/>
     </g>
    </g>
    <g id="patch_21">
     <path d="M 237.043125 54 
L 314.73 54 
L 314.73 36 
L 237.043125 36 
z
" style="fill: #80c080; stroke: #000000; stroke-linejoin: miter"/>
    </g>
    <g id="text_19">
     <!-- D'2 D2 -->
     <g transform="translate(258.860781 47.759375) scale(0.1 -0.1)">
      <use xlink:href="#DejaVuSans-44"/>
      <use xlink:href="#DejaVuSans-27" x="77.001953"/>
      <use xlink:href="#DejaVuSans-32" x="104.492188"/>
      <use xlink:href="#DejaVuSans-20" x="168.115234"/>
      <use xlink:href="#DejaVuSans-44" x="199.902344"/>
      <use xlink:href="#DejaVuSans-32" x="276.904297"/>
     </g>
    </g>
    <g id="patch_22">
     <path d="M 314.73 54 
L 403.51125 54 
L 403.51125 36 
L 314.73 36 
z
" style="fill: #8080ff; stroke: #000000; stroke-linejoin: miter"/>
    </g>
    <g id="text_20">
     <!-- S01234 -->
     <g transform="translate(340.040156 47.759375) scale(0.1 -0.1)">
      <defs>
       <path id="DejaVuSans-34" d="M 2419 4116 
L 825 1625 
L 2419 1625 
L 2419 4116 
z
M 2253 4666 
L 3047 4666 
L 3047 1625 
L 3713 1625 
L 3713 1100 
L 3047 1100 
L 3047 0 
L 2419 0 
L 2419 1100 
L 313 1100 
L 313 1709 
L 2253 4666 
z
" transform="scale(0.015625)"/>
      </defs>
      <use xlink:href="#DejaVuSans-53"/>
      <use xlink:href="#DejaVuSans-30" x="63.476562"/>
      <use xlink:href="#DejaVuSans-31" x="127.099609"/>
      <use xlink:href="#DejaVuSans-32" x="190.722656"/>
      <use xlink:href="#DejaVuSans-33" x="254.345703"/>
      <use xlink:href="#DejaVuSans-34" x="317.96875"/>
     </g>
    </g>
    <g id="patch_23">
     <path d="M 403.51125 54 
L 491.600625 54 
L 491.600625 36 
L 403.51125 36 
z
" style="fill: #8080ff; stroke: #000000; stroke-linejoin: miter"/>
    </g>
    <g id="text_21">
     <!-- M0123 -->
     <g transform="translate(430.516875 47.759375) scale(0.1 -0.1)">
      <use xlink:href="#DejaVuSans-4d"/>
      <use xlink:href="#DejaVuSans-30" x="86.279297"/>
      <use xlink:href="#DejaVuSans-31" x="149.902344"/>
      <use xlink:href="#DejaVuSans-32" x="213.525391"/>
      <use xlink:href="#DejaVuSans-33" x="277.148438"/>
     </g>
    </g>
    <g id="patch_24">
     <path d="M 491.600625 54 
L 580.6875 54 
L 580.6875 36 
L 491.600625 36 
z
" style="fill: #8099f2; stroke: #000000; stroke-linejoin: miter"/>
    </g>
    <g id="text_22">
     <!-- N1234 -->
     <g transform="translate(519.678438 47.759375) scale(0.1 -0.1)">
      <use xlink:href="#DejaVuSans-4e"/>
      <use xlink:href="#DejaVuSans-31" x="74.804688"/>
      <use xlink:href="#DejaVuSans-32" x="138.427734"/>
      <use xlink:href="#DejaVuSans-33" x="202.050781"/>
      <use xlink:href="#DejaVuSans-34" x="265.673828"/>
     </g>
    </g>
    <g id="patch_25">
     <path d="M 580.6875 54 
L 620.7075 54 
L 620.7075 36 
L 580.6875 36 
z
" style="fill: #b2d980; stroke: #000000; stroke-linejoin: miter"/>
    </g>
    <g id="text_23">
     <!-- 44 -->
     <g transform="translate(594.335 47.759375) scale(0.1 -0.1)">
      <use xlink:href="#DejaVuSans-34"/>
      <use xlink:href="#DejaVuSans-34" x="63.623047"/>
     </g>
    </g>
    <g id="patch_26">
     <path d="M 0 72 
L 61.1025 72 
L 61.1025 54 
L 0 54 
z
" style="fill: #ffffff; stroke: #000000; stroke-linejoin: miter"/>
    </g>
    <g id="text_24">
     <!-- P18L0H2 -->
     <g transform="translate(8.265313 65.759375) scale(0.1 -0.1)">
      <use xlink:href="#DejaVuSans-50"/>
      <use xlink:href="#DejaVuSans-31" x="60.302734"/>
      <use xlink:href="#DejaVuSans-38" x="123.925781"/>
      <use xlink:href="#DejaVuSans-4c" x="187.548828"/>
      <use xlink:href="#DejaVuSans-30" x="243.261719"/>
      <use xlink:href="#DejaVuSans-48" x="306.884766"/>
      <use xlink:href="#DejaVuSans-32" x="382.080078"/>
     </g>
    </g>
    <g id="patch_27">
     <path d="M 61.1025 72 
L 107.608125 72 
L 107.608125 54 
L 61.1025 54 
z
" style="fill: #ffffff; stroke: #000000; stroke-linejoin: miter"/>
    </g>
    <g id="text_25">
     <!-- A2 -->
     <g transform="translate(77.75375 65.759375) scale(0.1 -0.1)">
      <use xlink:href="#DejaVuSans-41"/>
      <use xlink:href="#DejaVuSans-32" x="68.408203"/>
     </g>
    </g>
    <g id="patch_28">
     <path d="M 107.608125 72 
L 237.043125 72 
L 237.043125 54 
L 107.608125 54 
z
" style="fill: #c0df80; stroke: #000000; stroke-linejoin: miter"/>
    </g>
    <g id="text_26">
     <!-- A2.SA A2.MD A2.ND  -->
     <g transform="translate(120.543594 65.759375) scale(0.1 -0.1)">
      <use xlink:href="#DejaVuSans-41"/>
      <use xlink:href="#DejaVuSans-32" x="68.408203"/>
      <use xlink:href="#DejaVuSans-2e" x="132.03125"/>
      <use xlink:href="#DejaVuSans-53" x="163.818359"/>
      <use xlink:href="#DejaVuSans-41" x="229.169922"/>
      <use xlink:href="#DejaVuSans-20" x="297.578125"/>
      <use xlink:href="#DejaVuSans-41" x="329.365234"/>
      <use xlink:href="#DejaVuSans-32" x="397.773438"/>
      <use xlink:href="#DejaVuSans-2e" x="461.396484"/>
      <use xlink:href="#DejaVuSans-4d" x="493.183594"/>
      <use xlink:href="#DejaVuSans-44" x="579.462891"/>
      <use xlink:href="#DejaVuSans-20" x="656.464844"/>
      <use xlink:href="#DejaVuSans-41" x="688.251953"/>
      <use xlink:href="#DejaVuSans-32" x="756.660156"/>
      <use xlink:href="#DejaVuSans-2e" x="820.283203"/>
      <use xlink:href="#DejaVuSans-4e" x="852.070312"/>
      <use xlink:href="#DejaVuSans-44" x="926.875"/>
      <use xlink:href="#DejaVuSans-20" x="1003.876953"/>
     </g>
    </g>
    <g id="patch_29">
     <path d="M 237.043125 72 
L 314.73 72 
L 314.73 54 
L 237.043125 54 
z
" style="fill: #8cc680; stroke: #000000; stroke-linejoin: miter"/>
    </g>
    <g id="text_27">
     <!-- D'2 D2 -->
     <g transform="translate(258.860781 65.759375) scale(0.1 -0.1)">
      <use xlink:href="#DejaVuSans-44"/>
      <use xlink:href="#DejaVuSans-27" x="77.001953"/>
      <use xlink:href="#DejaVuSans-32" x="104.492188"/>
      <use xlink:href="#DejaVuSans-20" x="168.115234"/>
      <use xlink:href="#DejaVuSans-44" x="199.902344"/>
      <use xlink:href="#DejaVuSans-32" x="276.904297"/>
     </g>
    </g>
    <g id="patch_30">
     <path d="M 314.73 72 
L 403.51125 72 
L 403.51125 54 
L 314.73 54 
z
" style="fill: #8080ff; stroke: #000000; stroke-linejoin: miter"/>
    </g>
    <g id="text_28">
     <!-- S012345 -->
     <g transform="translate(336.858906 65.759375) scale(0.1 -0.1)">
      <defs>
       <path id="DejaVuSans-35" d="M 691 4666 
L 3169 4666 
L 3169 4134 
L 1269 4134 
L 1269 2991 
Q 1406 3038 1543 3061 
Q 1681 3084 1819 3084 
Q 2600 3084 3056 2656 
Q 3513 2228 3513 1497 
Q 3513 744 3044 326 
Q 2575 -91 1722 -91 
Q 1428 -91 1123 -41 
Q 819 9 494 109 
L 494 744 
Q 775 591 1075 516 
Q 1375 441 1709 441 
Q 2250 441 2565 725 
Q 2881 1009 2881 1497 
Q 2881 1984 2565 2268 
Q 2250 2553 1709 2553 
Q 1456 2553 1204 2497 
Q 953 2441 691 2322 
L 691 4666 
z
" transform="scale(0.015625)"/>
      </defs>
      <use xlink:href="#DejaVuSans-53"/>
      <use xlink:href="#DejaVuSans-30" x="63.476562"/>
      <use xlink:href="#DejaVuSans-31" x="127.099609"/>
      <use xlink:href="#DejaVuSans-32" x="190.722656"/>
      <use xlink:href="#DejaVuSans-33" x="254.345703"/>
      <use xlink:href="#DejaVuSans-34" x="317.96875"/>
      <use xlink:href="#DejaVuSans-35" x="381.591797"/>
     </g>
    </g>
    <g id="patch_31">
     <path d="M 403.51125 72 
L 491.600625 72 
L 491.600625 54 
L 403.51125 54 
z
" style="fill: #8080ff; stroke: #000000; stroke-linejoin: miter"/>
    </g>
    <g id="text_29">
     <!-- M0123 -->
     <g transform="translate(430.516875 65.759375) scale(0.1 -0.1)">
      <use xlink:href="#DejaVuSans-4d"/>
      <use xlink:href="#DejaVuSans-30" x="86.279297"/>
      <use xlink:href="#DejaVuSans-31" x="149.902344"/>
      <use xlink:href="#DejaVuSans-32" x="213.525391"/>
      <use xlink:href="#DejaVuSans-33" x="277.148438"/>
     </g>
    </g>
    <g id="patch_32">
     <path d="M 491.600625 72 
L 580.6875 72 
L 580.6875 54 
L 491.600625 54 
z
" style="fill: #8099f2; stroke: #000000; stroke-linejoin: miter"/>
    </g>
    <g id="text_30">
     <!-- N1234 -->
     <g transform="translate(519.678438 65.759375) scale(0.1 -0.1)">
      <use xlink:href="#DejaVuSans-4e"/>
      <use xlink:href="#DejaVuSans-31" x="74.804688"/>
      <use xlink:href="#DejaVuSans-32" x="138.427734"/>
      <use xlink:href="#DejaVuSans-33" x="202.050781"/>
      <use xlink:href="#DejaVuSans-34" x="265.673828"/>
     </g>
    </g>
    <g id="patch_33">
     <path d="M 580.6875 72 
L 620.7075 72 
L 620.7075 54 
L 580.6875 54 
z
" style="fill: #c0df80; stroke: #000000; stroke-linejoin: miter"/>
    </g>
    <g id="text_31">
     <!-- 57 -->
     <g transform="translate(594.335 65.759375) scale(0.1 -0.1)">
      <defs>
       <path id="DejaVuSans-37" d="M 525 4666 
L 3525 4666 
L 3525 4397 
L 1831 0 
L 1172 0 
L 2766 4134 
L 525 4134 
L 525 4666 
z
" transform="scale(0.015625)"/>
      </defs>
      <use xlink:href="#DejaVuSans-35"/>
      <use xlink:href="#DejaVuSans-37" x="63.623047"/>
     </g>
    </g>
    <g id="patch_34">
     <path d="M 0 90 
L 61.1025 90 
L 61.1025 72 
L 0 72 
z
" style="fill: #ffffff; stroke: #000000; stroke-linejoin: miter"/>
    </g>
    <g id="text_32">
     <!-- P18L0H3 -->
     <g transform="translate(8.265313 83.759375) scale(0.1 -0.1)">
      <use xlink:href="#DejaVuSans-50"/>
      <use xlink:href="#DejaVuSans-31" x="60.302734"/>
      <use xlink:href="#DejaVuSans-38" x="123.925781"/>
      <use xlink:href="#DejaVuSans-4c" x="187.548828"/>
      <use xlink:href="#DejaVuSans-30" x="243.261719"/>
      <use xlink:href="#DejaVuSans-48" x="306.884766"/>
      <use xlink:href="#DejaVuSans-33" x="382.080078"/>
     </g>
    </g>
    <g id="patch_35">
     <path d="M 61.1025 90 
L 107.608125 90 
L 107.608125 72 
L 61.1025 72 
z
" style="fill: #ffffff; stroke: #000000; stroke-linejoin: miter"/>
    </g>
    <g id="text_33">
     <!-- A2 -->
     <g transform="translate(77.75375 83.759375) scale(0.1 -0.1)">
      <use xlink:href="#DejaVuSans-41"/>
      <use xlink:href="#DejaVuSans-32" x="68.408203"/>
     </g>
    </g>
    <g id="patch_36">
     <path d="M 107.608125 90 
L 237.043125 90 
L 237.043125 72 
L 107.608125 72 
z
" style="fill: #c0df80; stroke: #000000; stroke-linejoin: miter"/>
    </g>
    <g id="text_34">
     <!-- OPR SGN  -->
     <g transform="translate(147.933437 83.759375) scale(0.1 -0.1)">
      <defs>
       <path id="DejaVuSans-4f" d="M 2522 4238 
Q 1834 4238 1429 3725 
Q 1025 3213 1025 2328 
Q 1025 1447 1429 934 
Q 1834 422 2522 422 
Q 3209 422 3611 934 
Q 4013 1447 4013 2328 
Q 4013 3213 3611 3725 
Q 3209 4238 2522 4238 
z
M 2522 4750 
Q 3503 4750 4090 4092 
Q 4678 3434 4678 2328 
Q 4678 1225 4090 567 
Q 3503 -91 2522 -91 
Q 1538 -91 948 565 
Q 359 1222 359 2328 
Q 359 3434 948 4092 
Q 1538 4750 2522 4750 
z
" transform="scale(0.015625)"/>
       <path id="DejaVuSans-52" d="M 2841 2188 
Q 3044 2119 3236 1894 
Q 3428 1669 3622 1275 
L 4263 0 
L 3584 0 
L 2988 1197 
Q 2756 1666 2539 1819 
Q 2322 1972 1947 1972 
L 1259 1972 
L 1259 0 
L 628 0 
L 628 4666 
L 2053 4666 
Q 2853 4666 3247 4331 
Q 3641 3997 3641 3322 
Q 3641 2881 3436 2590 
Q 3231 2300 2841 2188 
z
M 1259 4147 
L 1259 2491 
L 2053 2491 
Q 2509 2491 2742 2702 
Q 2975 2913 2975 3322 
Q 2975 3731 2742 3939 
Q 2509 4147 2053 4147 
L 1259 4147 
z
" transform="scale(0.015625)"/>
       <path id="DejaVuSans-47" d="M 3809 666 
L 3809 1919 
L 2778 1919 
L 2778 2438 
L 4434 2438 
L 4434 434 
Q 4069 175 3628 42 
Q 3188 -91 2688 -91 
Q 1594 -91 976 548 
Q 359 1188 359 2328 
Q 359 3472 976 4111 
Q 1594 4750 2688 4750 
Q 3144 4750 3555 4637 
Q 3966 4525 4313 4306 
L 4313 3634 
Q 3963 3931 3569 4081 
Q 3175 4231 2741 4231 
Q 1884 4231 1454 3753 
Q 1025 3275 1025 2328 
Q 1025 1384 1454 906 
Q 1884 428 2741 428 
Q 3075 428 3337 486 
Q 3600 544 3809 666 
z
" transform="scale(0.015625)"/>
      </defs>
      <use xlink:href="#DejaVuSans-4f"/>
      <use xlink:href="#DejaVuSans-50" x="78.710938"/>
      <use xlink:href="#DejaVuSans-52" x="139.013672"/>
      <use xlink:href="#DejaVuSans-20" x="208.496094"/>
      <use xlink:href="#DejaVuSans-53" x="240.283203"/>
      <use xlink:href="#DejaVuSans-47" x="303.759766"/>
      <use xlink:href="#DejaVuSans-4e" x="381.25"/>
      <use xlink:href="#DejaVuSans-20" x="456.054688"/>
     </g>
    </g>
    <g id="patch_37">
     <path d="M 237.043125 90 
L 314.73 90 
L 314.73 72 
L 237.043125 72 
z
" style="fill: #99cc80; stroke: #000000; stroke-linejoin: miter"/>
    </g>
    <g id="text_35">
     <!-- OPR -->
     <g transform="translate(265.461563 83.759375) scale(0.1 -0.1)">
      <use xlink:href="#DejaVuSans-4f"/>
      <use xlink:href="#DejaVuSans-50" x="78.710938"/>
      <use xlink:href="#DejaVuSans-52" x="139.013672"/>
     </g>
    </g>
    <g id="patch_38">
     <path d="M 314.73 90 
L 403.51125 90 
L 403.51125 72 
L 314.73 72 
z
" style="fill: #ffffff; stroke: #000000; stroke-linejoin: miter"/>
    </g>
    <g id="patch_39">
     <path d="M 403.51125 90 
L 491.600625 90 
L 491.600625 72 
L 403.51125 72 
z
" style="fill: #8080ff; stroke: #000000; stroke-linejoin: miter"/>
    </g>
    <g id="text_36">
     <!-- M0123 -->
     <g transform="translate(430.516875 83.759375) scale(0.1 -0.1)">
      <use xlink:href="#DejaVuSans-4d"/>
      <use xlink:href="#DejaVuSans-30" x="86.279297"/>
      <use xlink:href="#DejaVuSans-31" x="149.902344"/>
      <use xlink:href="#DejaVuSans-32" x="213.525391"/>
      <use xlink:href="#DejaVuSans-33" x="277.148438"/>
     </g>
    </g>
    <g id="patch_40">
     <path d="M 491.600625 90 
L 580.6875 90 
L 580.6875 72 
L 491.600625 72 
z
" style="fill: #8099f2; stroke: #000000; stroke-linejoin: miter"/>
    </g>
    <g id="text_37">
     <!-- N1234 -->
     <g transform="translate(519.678438 83.759375) scale(0.1 -0.1)">
      <use xlink:href="#DejaVuSans-4e"/>
      <use xlink:href="#DejaVuSans-31" x="74.804688"/>
      <use xlink:href="#DejaVuSans-32" x="138.427734"/>
      <use xlink:href="#DejaVuSans-33" x="202.050781"/>
      <use xlink:href="#DejaVuSans-34" x="265.673828"/>
     </g>
    </g>
    <g id="patch_41">
     <path d="M 580.6875 90 
L 620.7075 90 
L 620.7075 72 
L 580.6875 72 
z
" style="fill: #8cc680; stroke: #000000; stroke-linejoin: miter"/>
    </g>
    <g id="text_38">
     <!-- 11 -->
     <g transform="translate(594.335 83.759375) scale(0.1 -0.1)">
      <use xlink:href="#DejaVuSans-31"/>
      <use xlink:href="#DejaVuSans-31" x="63.623047"/>
     </g>
    </g>
    <g id="patch_42">
     <path d="M 0 108 
L 61.1025 108 
L 61.1025 90 
L 0 90 
z
" style="fill: #ffffff; stroke: #000000; stroke-linejoin: miter"/>
    </g>
    <g id="text_39">
     <!-- P18L0MLP -->
     <g transform="translate(5.091875 101.759375) scale(0.1 -0.1)">
      <use xlink:href="#DejaVuSans-50"/>
      <use xlink:href="#DejaVuSans-31" x="60.302734"/>
      <use xlink:href="#DejaVuSans-38" x="123.925781"/>
      <use xlink:href="#DejaVuSans-4c" x="187.548828"/>
      <use xlink:href="#DejaVuSans-30" x="243.261719"/>
      <use xlink:href="#DejaVuSans-4d" x="306.884766"/>
      <use xlink:href="#DejaVuSans-4c" x="393.164062"/>
      <use xlink:href="#DejaVuSans-50" x="448.876953"/>
     </g>
    </g>
    <g id="patch_43">
     <path d="M 61.1025 108 
L 107.608125 108 
L 107.608125 90 
L 61.1025 90 
z
" style="fill: #ffffff; stroke: #000000; stroke-linejoin: miter"/>
    </g>
    <g id="text_40">
     <!-- A2 -->
     <g transform="translate(77.75375 101.759375) scale(0.1 -0.1)">
      <use xlink:href="#DejaVuSans-41"/>
      <use xlink:href="#DejaVuSans-32" x="68.408203"/>
     </g>
    </g>
    <g id="patch_44">
     <path d="M 107.608125 108 
L 237.043125 108 
L 237.043125 90 
L 107.608125 90 
z
" style="fill: #ffffff; stroke: #000000; stroke-linejoin: miter"/>
    </g>
    <g id="patch_45">
     <path d="M 237.043125 108 
L 314.73 108 
L 314.73 90 
L 237.043125 90 
z
" style="fill: #ffffff; stroke: #000000; stroke-linejoin: miter"/>
    </g>
    <g id="patch_46">
     <path d="M 314.73 108 
L 403.51125 108 
L 403.51125 90 
L 314.73 90 
z
" style="fill: #8080ff; stroke: #000000; stroke-linejoin: miter"/>
    </g>
    <g id="text_41">
     <!-- S01234 -->
     <g transform="translate(340.040156 101.759375) scale(0.1 -0.1)">
      <use xlink:href="#DejaVuSans-53"/>
      <use xlink:href="#DejaVuSans-30" x="63.476562"/>
      <use xlink:href="#DejaVuSans-31" x="127.099609"/>
      <use xlink:href="#DejaVuSans-32" x="190.722656"/>
      <use xlink:href="#DejaVuSans-33" x="254.345703"/>
      <use xlink:href="#DejaVuSans-34" x="317.96875"/>
     </g>
    </g>
    <g id="patch_47">
     <path d="M 403.51125 108 
L 491.600625 108 
L 491.600625 90 
L 403.51125 90 
z
" style="fill: #8080ff; stroke: #000000; stroke-linejoin: miter"/>
    </g>
    <g id="text_42">
     <!-- M0123 -->
     <g transform="translate(430.516875 101.759375) scale(0.1 -0.1)">
      <use xlink:href="#DejaVuSans-4d"/>
      <use xlink:href="#DejaVuSans-30" x="86.279297"/>
      <use xlink:href="#DejaVuSans-31" x="149.902344"/>
      <use xlink:href="#DejaVuSans-32" x="213.525391"/>
      <use xlink:href="#DejaVuSans-33" x="277.148438"/>
     </g>
    </g>
    <g id="patch_48">
     <path d="M 491.600625 108 
L 580.6875 108 
L 580.6875 90 
L 491.600625 90 
z
" style="fill: #8099f2; stroke: #000000; stroke-linejoin: miter"/>
    </g>
    <g id="text_43">
     <!-- N1234 -->
     <g transform="translate(519.678438 101.759375) scale(0.1 -0.1)">
      <use xlink:href="#DejaVuSans-4e"/>
      <use xlink:href="#DejaVuSans-31" x="74.804688"/>
      <use xlink:href="#DejaVuSans-32" x="138.427734"/>
      <use xlink:href="#DejaVuSans-33" x="202.050781"/>
      <use xlink:href="#DejaVuSans-34" x="265.673828"/>
     </g>
    </g>
    <g id="patch_49">
     <path d="M 580.6875 108 
L 620.7075 108 
L 620.7075 90 
L 580.6875 90 
z
" style="fill: #c0df80; stroke: #000000; stroke-linejoin: miter"/>
    </g>
    <g id="text_44">
     <!-- 50 -->
     <g transform="translate(594.335 101.759375) scale(0.1 -0.1)">
      <use xlink:href="#DejaVuSans-35"/>
      <use xlink:href="#DejaVuSans-30" x="63.623047"/>
     </g>
    </g>
    <g id="patch_50">
     <path d="M 0 126 
L 61.1025 126 
L 61.1025 108 
L 0 108 
z
" style="fill: #ffffff; stroke: #000000; stroke-linejoin: miter"/>
    </g>
    <g id="text_45">
     <!-- P18L1H0 -->
     <g transform="translate(8.265313 119.759375) scale(0.1 -0.1)">
      <use xlink:href="#DejaVuSans-50"/>
      <use xlink:href="#DejaVuSans-31" x="60.302734"/>
      <use xlink:href="#DejaVuSans-38" x="123.925781"/>
      <use xlink:href="#DejaVuSans-4c" x="187.548828"/>
      <use xlink:href="#DejaVuSans-31" x="243.261719"/>
      <use xlink:href="#DejaVuSans-48" x="306.884766"/>
      <use xlink:href="#DejaVuSans-30" x="382.080078"/>
     </g>
    </g>
    <g id="patch_51">
     <path d="M 61.1025 126 
L 107.608125 126 
L 107.608125 108 
L 61.1025 108 
z
" style="fill: #ffffff; stroke: #000000; stroke-linejoin: miter"/>
    </g>
    <g id="text_46">
     <!-- A2 -->
     <g transform="translate(77.75375 119.759375) scale(0.1 -0.1)">
      <use xlink:href="#DejaVuSans-41"/>
      <use xlink:href="#DejaVuSans-32" x="68.408203"/>
     </g>
    </g>
    <g id="patch_52">
     <path d="M 107.608125 126 
L 237.043125 126 
L 237.043125 108 
L 107.608125 108 
z
" style="fill: #ffffff; stroke: #000000; stroke-linejoin: miter"/>
    </g>
    <g id="patch_53">
     <path d="M 237.043125 126 
L 314.73 126 
L 314.73 108 
L 237.043125 108 
z
" style="fill: #c0df80; stroke: #000000; stroke-linejoin: miter"/>
    </g>
    <g id="text_47">
     <!-- A3 D'2 D'1 -->
     <g transform="translate(249.295938 119.759375) scale(0.1 -0.1)">
      <use xlink:href="#DejaVuSans-41"/>
      <use xlink:href="#DejaVuSans-33" x="68.408203"/>
      <use xlink:href="#DejaVuSans-20" x="132.03125"/>
      <use xlink:href="#DejaVuSans-44" x="163.818359"/>
      <use xlink:href="#DejaVuSans-27" x="240.820312"/>
      <use xlink:href="#DejaVuSans-32" x="268.310547"/>
      <use xlink:href="#DejaVuSans-20" x="331.933594"/>
      <use xlink:href="#DejaVuSans-44" x="363.720703"/>
      <use xlink:href="#DejaVuSans-27" x="440.722656"/>
      <use xlink:href="#DejaVuSans-31" x="468.212891"/>
     </g>
    </g>
    <g id="patch_54">
     <path d="M 314.73 126 
L 403.51125 126 
L 403.51125 108 
L 314.73 108 
z
" style="fill: #ffffff; stroke: #000000; stroke-linejoin: miter"/>
    </g>
    <g id="patch_55">
     <path d="M 403.51125 126 
L 491.600625 126 
L 491.600625 108 
L 403.51125 108 
z
" style="fill: #8099f2; stroke: #000000; stroke-linejoin: miter"/>
    </g>
    <g id="text_48">
     <!-- M123 -->
     <g transform="translate(433.698125 119.759375) scale(0.1 -0.1)">
      <use xlink:href="#DejaVuSans-4d"/>
      <use xlink:href="#DejaVuSans-31" x="86.279297"/>
      <use xlink:href="#DejaVuSans-32" x="149.902344"/>
      <use xlink:href="#DejaVuSans-33" x="213.525391"/>
     </g>
    </g>
    <g id="patch_56">
     <path d="M 491.600625 126 
L 580.6875 126 
L 580.6875 108 
L 491.600625 108 
z
" style="fill: #ffffff; stroke: #000000; stroke-linejoin: miter"/>
    </g>
    <g id="patch_57">
     <path d="M 580.6875 126 
L 620.7075 126 
L 620.7075 108 
L 580.6875 108 
z
" style="fill: #80c080; stroke: #000000; stroke-linejoin: miter"/>
    </g>
    <g id="text_49">
     <!-- 2 -->
     <g transform="translate(597.51625 119.759375) scale(0.1 -0.1)">
      <use xlink:href="#DejaVuSans-32"/>
     </g>
    </g>
    <g id="patch_58">
     <path d="M 0 144 
L 61.1025 144 
L 61.1025 126 
L 0 126 
z
" style="fill: #ffffff; stroke: #000000; stroke-linejoin: miter"/>
    </g>
    <g id="text_50">
     <!-- P18L1H1 -->
     <g transform="translate(8.265313 137.759375) scale(0.1 -0.1)">
      <use xlink:href="#DejaVuSans-50"/>
      <use xlink:href="#DejaVuSans-31" x="60.302734"/>
      <use xlink:href="#DejaVuSans-38" x="123.925781"/>
      <use xlink:href="#DejaVuSans-4c" x="187.548828"/>
      <use xlink:href="#DejaVuSans-31" x="243.261719"/>
      <use xlink:href="#DejaVuSans-48" x="306.884766"/>
      <use xlink:href="#DejaVuSans-31" x="382.080078"/>
     </g>
    </g>
    <g id="patch_59">
     <path d="M 61.1025 144 
L 107.608125 144 
L 107.608125 126 
L 61.1025 126 
z
" style="fill: #ffffff; stroke: #000000; stroke-linejoin: miter"/>
    </g>
    <g id="text_51">
     <!-- A2 -->
     <g transform="translate(77.75375 137.759375) scale(0.1 -0.1)">
      <use xlink:href="#DejaVuSans-41"/>
      <use xlink:href="#DejaVuSans-32" x="68.408203"/>
     </g>
    </g>
    <g id="patch_60">
     <path d="M 107.608125 144 
L 237.043125 144 
L 237.043125 126 
L 107.608125 126 
z
" style="fill: #ffffff; stroke: #000000; stroke-linejoin: miter"/>
    </g>
    <g id="patch_61">
     <path d="M 237.043125 144 
L 314.73 144 
L 314.73 126 
L 237.043125 126 
z
" style="fill: #a6d280; stroke: #000000; stroke-linejoin: miter"/>
    </g>
    <g id="text_52">
     <!-- = D'1 A3 D'2 -->
     <g transform="translate(243.517031 137.759375) scale(0.1 -0.1)">
      <defs>
       <path id="DejaVuSans-3d" d="M 678 2906 
L 4684 2906 
L 4684 2381 
L 678 2381 
L 678 2906 
z
M 678 1631 
L 4684 1631 
L 4684 1100 
L 678 1100 
L 678 1631 
z
" transform="scale(0.015625)"/>
      </defs>
      <use xlink:href="#DejaVuSans-3d"/>
      <use xlink:href="#DejaVuSans-20" x="83.789062"/>
      <use xlink:href="#DejaVuSans-44" x="115.576172"/>
      <use xlink:href="#DejaVuSans-27" x="192.578125"/>
      <use xlink:href="#DejaVuSans-31" x="220.068359"/>
      <use xlink:href="#DejaVuSans-20" x="283.691406"/>
      <use xlink:href="#DejaVuSans-41" x="315.478516"/>
      <use xlink:href="#DejaVuSans-33" x="383.886719"/>
      <use xlink:href="#DejaVuSans-20" x="447.509766"/>
      <use xlink:href="#DejaVuSans-44" x="479.296875"/>
      <use xlink:href="#DejaVuSans-27" x="556.298828"/>
      <use xlink:href="#DejaVuSans-32" x="583.789062"/>
     </g>
    </g>
    <g id="patch_62">
     <path d="M 314.73 144 
L 403.51125 144 
L 403.51125 126 
L 314.73 126 
z
" style="fill: #ffffff; stroke: #000000; stroke-linejoin: miter"/>
    </g>
    <g id="patch_63">
     <path d="M 403.51125 144 
L 491.600625 144 
L 491.600625 126 
L 403.51125 126 
z
" style="fill: #8080ff; stroke: #000000; stroke-linejoin: miter"/>
    </g>
    <g id="text_53">
     <!-- M012 -->
     <g transform="translate(433.698125 137.759375) scale(0.1 -0.1)">
      <use xlink:href="#DejaVuSans-4d"/>
      <use xlink:href="#DejaVuSans-30" x="86.279297"/>
      <use xlink:href="#DejaVuSans-31" x="149.902344"/>
      <use xlink:href="#DejaVuSans-32" x="213.525391"/>
     </g>
    </g>
    <g id="patch_64">
     <path d="M 491.600625 144 
L 580.6875 144 
L 580.6875 126 
L 491.600625 126 
z
" style="fill: #80ccd9; stroke: #000000; stroke-linejoin: miter"/>
    </g>
    <g id="text_54">
     <!-- N34 -->
     <g transform="translate(526.040938 137.759375) scale(0.1 -0.1)">
      <use xlink:href="#DejaVuSans-4e"/>
      <use xlink:href="#DejaVuSans-33" x="74.804688"/>
      <use xlink:href="#DejaVuSans-34" x="138.427734"/>
     </g>
    </g>
    <g id="patch_65">
     <path d="M 580.6875 144 
L 620.7075 144 
L 620.7075 126 
L 580.6875 126 
z
" style="fill: #80c080; stroke: #000000; stroke-linejoin: miter"/>
    </g>
    <g id="text_55">
     <!-- 2 -->
     <g transform="translate(597.51625 137.759375) scale(0.1 -0.1)">
      <use xlink:href="#DejaVuSans-32"/>
     </g>
    </g>
    <g id="patch_66">
     <path d="M 0 162 
L 61.1025 162 
L 61.1025 144 
L 0 144 
z
" style="fill: #ffffff; stroke: #000000; stroke-linejoin: miter"/>
    </g>
    <g id="text_56">
     <!-- P18L1H2 -->
     <g transform="translate(8.265313 155.759375) scale(0.1 -0.1)">
      <use xlink:href="#DejaVuSans-50"/>
      <use xlink:href="#DejaVuSans-31" x="60.302734"/>
      <use xlink:href="#DejaVuSans-38" x="123.925781"/>
      <use xlink:href="#DejaVuSans-4c" x="187.548828"/>
      <use xlink:href="#DejaVuSans-31" x="243.261719"/>
      <use xlink:href="#DejaVuSans-48" x="306.884766"/>
      <use xlink:href="#DejaVuSans-32" x="382.080078"/>
     </g>
    </g>
    <g id="patch_67">
     <path d="M 61.1025 162 
L 107.608125 162 
L 107.608125 144 
L 61.1025 144 
z
" style="fill: #ffffff; stroke: #000000; stroke-linejoin: miter"/>
    </g>
    <g id="text_57">
     <!-- A2 -->
     <g transform="translate(77.75375 155.759375) scale(0.1 -0.1)">
      <use xlink:href="#DejaVuSans-41"/>
      <use xlink:href="#DejaVuSans-32" x="68.408203"/>
     </g>
    </g>
    <g id="patch_68">
     <path d="M 107.608125 162 
L 237.043125 162 
L 237.043125 144 
L 107.608125 144 
z
" style="fill: #c0df80; stroke: #000000; stroke-linejoin: miter"/>
    </g>
    <g id="text_58">
     <!-- OPR  -->
     <g transform="translate(160.311563 155.759375) scale(0.1 -0.1)">
      <use xlink:href="#DejaVuSans-4f"/>
      <use xlink:href="#DejaVuSans-50" x="78.710938"/>
      <use xlink:href="#DejaVuSans-52" x="139.013672"/>
      <use xlink:href="#DejaVuSans-20" x="208.496094"/>
     </g>
    </g>
    <g id="patch_69">
     <path d="M 237.043125 162 
L 314.73 162 
L 314.73 144 
L 237.043125 144 
z
" style="fill: #99cc80; stroke: #000000; stroke-linejoin: miter"/>
    </g>
    <g id="text_59">
     <!-- = D'1 -->
     <g transform="translate(261.702188 155.759375) scale(0.1 -0.1)">
      <use xlink:href="#DejaVuSans-3d"/>
      <use xlink:href="#DejaVuSans-20" x="83.789062"/>
      <use xlink:href="#DejaVuSans-44" x="115.576172"/>
      <use xlink:href="#DejaVuSans-27" x="192.578125"/>
      <use xlink:href="#DejaVuSans-31" x="220.068359"/>
     </g>
    </g>
    <g id="patch_70">
     <path d="M 314.73 162 
L 403.51125 162 
L 403.51125 144 
L 314.73 144 
z
" style="fill: #8080ff; stroke: #000000; stroke-linejoin: miter"/>
    </g>
    <g id="text_60">
     <!-- S01234 -->
     <g transform="translate(340.040156 155.759375) scale(0.1 -0.1)">
      <use xlink:href="#DejaVuSans-53"/>
      <use xlink:href="#DejaVuSans-30" x="63.476562"/>
      <use xlink:href="#DejaVuSans-31" x="127.099609"/>
      <use xlink:href="#DejaVuSans-32" x="190.722656"/>
      <use xlink:href="#DejaVuSans-33" x="254.345703"/>
      <use xlink:href="#DejaVuSans-34" x="317.96875"/>
     </g>
    </g>
    <g id="patch_71">
     <path d="M 403.51125 162 
L 491.600625 162 
L 491.600625 144 
L 403.51125 144 
z
" style="fill: #ffffff; stroke: #000000; stroke-linejoin: miter"/>
    </g>
    <g id="patch_72">
     <path d="M 491.600625 162 
L 580.6875 162 
L 580.6875 144 
L 491.600625 144 
z
" style="fill: #ffffff; stroke: #000000; stroke-linejoin: miter"/>
    </g>
    <g id="patch_73">
     <path d="M 580.6875 162 
L 620.7075 162 
L 620.7075 144 
L 580.6875 144 
z
" style="fill: #8cc680; stroke: #000000; stroke-linejoin: miter"/>
    </g>
    <g id="text_61">
     <!-- 11 -->
     <g transform="translate(594.335 155.759375) scale(0.1 -0.1)">
      <use xlink:href="#DejaVuSans-31"/>
      <use xlink:href="#DejaVuSans-31" x="63.623047"/>
     </g>
    </g>
    <g id="patch_74">
     <path d="M 0 180 
L 61.1025 180 
L 61.1025 162 
L 0 162 
z
" style="fill: #ffffff; stroke: #000000; stroke-linejoin: miter"/>
    </g>
    <g id="text_62">
     <!-- P18L1H3 -->
     <g transform="translate(8.265313 173.759375) scale(0.1 -0.1)">
      <use xlink:href="#DejaVuSans-50"/>
      <use xlink:href="#DejaVuSans-31" x="60.302734"/>
      <use xlink:href="#DejaVuSans-38" x="123.925781"/>
      <use xlink:href="#DejaVuSans-4c" x="187.548828"/>
      <use xlink:href="#DejaVuSans-31" x="243.261719"/>
      <use xlink:href="#DejaVuSans-48" x="306.884766"/>
      <use xlink:href="#DejaVuSans-33" x="382.080078"/>
     </g>
    </g>
    <g id="patch_75">
     <path d="M 61.1025 180 
L 107.608125 180 
L 107.608125 162 
L 61.1025 162 
z
" style="fill: #ffffff; stroke: #000000; stroke-linejoin: miter"/>
    </g>
    <g id="text_63">
     <!-- A2 -->
     <g transform="translate(77.75375 173.759375) scale(0.1 -0.1)">
      <use xlink:href="#DejaVuSans-41"/>
      <use xlink:href="#DejaVuSans-32" x="68.408203"/>
     </g>
    </g>
    <g id="patch_76">
     <path d="M 107.608125 180 
L 237.043125 180 
L 237.043125 162 
L 107.608125 162 
z
" style="fill: #c0df80; stroke: #000000; stroke-linejoin: miter"/>
    </g>
    <g id="text_64">
     <!-- SGN  -->
     <g transform="translate(159.9475 173.759375) scale(0.1 -0.1)">
      <use xlink:href="#DejaVuSans-53"/>
      <use xlink:href="#DejaVuSans-47" x="63.476562"/>
      <use xlink:href="#DejaVuSans-4e" x="140.966797"/>
      <use xlink:href="#DejaVuSans-20" x="215.771484"/>
     </g>
    </g>
    <g id="patch_77">
     <path d="M 237.043125 180 
L 314.73 180 
L 314.73 162 
L 237.043125 162 
z
" style="fill: #a6d280; stroke: #000000; stroke-linejoin: miter"/>
    </g>
    <g id="text_65">
     <!-- = A3 -->
     <g transform="translate(263.506094 173.759375) scale(0.1 -0.1)">
      <use xlink:href="#DejaVuSans-3d"/>
      <use xlink:href="#DejaVuSans-20" x="83.789062"/>
      <use xlink:href="#DejaVuSans-41" x="115.576172"/>
      <use xlink:href="#DejaVuSans-33" x="183.984375"/>
     </g>
    </g>
    <g id="patch_78">
     <path d="M 314.73 180 
L 403.51125 180 
L 403.51125 162 
L 314.73 162 
z
" style="fill: #8094f4; stroke: #000000; stroke-linejoin: miter"/>
    </g>
    <g id="text_66">
     <!-- S12345 -->
     <g transform="translate(340.040156 173.759375) scale(0.1 -0.1)">
      <use xlink:href="#DejaVuSans-53"/>
      <use xlink:href="#DejaVuSans-31" x="63.476562"/>
      <use xlink:href="#DejaVuSans-32" x="127.099609"/>
      <use xlink:href="#DejaVuSans-33" x="190.722656"/>
      <use xlink:href="#DejaVuSans-34" x="254.345703"/>
      <use xlink:href="#DejaVuSans-35" x="317.96875"/>
     </g>
    </g>
    <g id="patch_79">
     <path d="M 403.51125 180 
L 491.600625 180 
L 491.600625 162 
L 403.51125 162 
z
" style="fill: #ffffff; stroke: #000000; stroke-linejoin: miter"/>
    </g>
    <g id="patch_80">
     <path d="M 491.600625 180 
L 580.6875 180 
L 580.6875 162 
L 491.600625 162 
z
" style="fill: #ffffff; stroke: #000000; stroke-linejoin: miter"/>
    </g>
    <g id="patch_81">
     <path d="M 580.6875 180 
L 620.7075 180 
L 620.7075 162 
L 580.6875 162 
z
" style="fill: #80c080; stroke: #000000; stroke-linejoin: miter"/>
    </g>
    <g id="text_67">
     <!-- 3 -->
     <g transform="translate(597.51625 173.759375) scale(0.1 -0.1)">
      <use xlink:href="#DejaVuSans-33"/>
     </g>
    </g>
    <g id="patch_82">
     <path d="M 0 198 
L 61.1025 198 
L 61.1025 180 
L 0 180 
z
" style="fill: #ffffff; stroke: #000000; stroke-linejoin: miter"/>
    </g>
    <g id="text_68">
     <!-- P18L1MLP -->
     <g transform="translate(5.091875 191.759375) scale(0.1 -0.1)">
      <use xlink:href="#DejaVuSans-50"/>
      <use xlink:href="#DejaVuSans-31" x="60.302734"/>
      <use xlink:href="#DejaVuSans-38" x="123.925781"/>
      <use xlink:href="#DejaVuSans-4c" x="187.548828"/>
      <use xlink:href="#DejaVuSans-31" x="243.261719"/>
      <use xlink:href="#DejaVuSans-4d" x="306.884766"/>
      <use xlink:href="#DejaVuSans-4c" x="393.164062"/>
      <use xlink:href="#DejaVuSans-50" x="448.876953"/>
     </g>
    </g>
    <g id="patch_83">
     <path d="M 61.1025 198 
L 107.608125 198 
L 107.608125 180 
L 61.1025 180 
z
" style="fill: #ffffff; stroke: #000000; stroke-linejoin: miter"/>
    </g>
    <g id="text_69">
     <!-- A2 -->
     <g transform="translate(77.75375 191.759375) scale(0.1 -0.1)">
      <use xlink:href="#DejaVuSans-41"/>
      <use xlink:href="#DejaVuSans-32" x="68.408203"/>
     </g>
    </g>
    <g id="patch_84">
     <path d="M 107.608125 198 
L 237.043125 198 
L 237.043125 180 
L 107.608125 180 
z
" style="fill: #ffffff; stroke: #000000; stroke-linejoin: miter"/>
    </g>
    <g id="patch_85">
     <path d="M 237.043125 198 
L 314.73 198 
L 314.73 180 
L 237.043125 180 
z
" style="fill: #ffffff; stroke: #000000; stroke-linejoin: miter"/>
    </g>
    <g id="patch_86">
     <path d="M 314.73 198 
L 403.51125 198 
L 403.51125 180 
L 314.73 180 
z
" style="fill: #8080ff; stroke: #000000; stroke-linejoin: miter"/>
    </g>
    <g id="text_70">
     <!-- S01234 -->
     <g transform="translate(340.040156 191.759375) scale(0.1 -0.1)">
      <use xlink:href="#DejaVuSans-53"/>
      <use xlink:href="#DejaVuSans-30" x="63.476562"/>
      <use xlink:href="#DejaVuSans-31" x="127.099609"/>
      <use xlink:href="#DejaVuSans-32" x="190.722656"/>
      <use xlink:href="#DejaVuSans-33" x="254.345703"/>
      <use xlink:href="#DejaVuSans-34" x="317.96875"/>
     </g>
    </g>
    <g id="patch_87">
     <path d="M 403.51125 198 
L 491.600625 198 
L 491.600625 180 
L 403.51125 180 
z
" style="fill: #8080ff; stroke: #000000; stroke-linejoin: miter"/>
    </g>
    <g id="text_71">
     <!-- M0123 -->
     <g transform="translate(430.516875 191.759375) scale(0.1 -0.1)">
      <use xlink:href="#DejaVuSans-4d"/>
      <use xlink:href="#DejaVuSans-30" x="86.279297"/>
      <use xlink:href="#DejaVuSans-31" x="149.902344"/>
      <use xlink:href="#DejaVuSans-32" x="213.525391"/>
      <use xlink:href="#DejaVuSans-33" x="277.148438"/>
     </g>
    </g>
    <g id="patch_88">
     <path d="M 491.600625 198 
L 580.6875 198 
L 580.6875 180 
L 491.600625 180 
z
" style="fill: #80b2e6; stroke: #000000; stroke-linejoin: miter"/>
    </g>
    <g id="text_72">
     <!-- N2 -->
     <g transform="translate(529.222188 191.759375) scale(0.1 -0.1)">
      <use xlink:href="#DejaVuSans-4e"/>
      <use xlink:href="#DejaVuSans-32" x="74.804688"/>
     </g>
    </g>
    <g id="patch_89">
     <path d="M 580.6875 198 
L 620.7075 198 
L 620.7075 180 
L 580.6875 180 
z
" style="fill: #99cc80; stroke: #000000; stroke-linejoin: miter"/>
    </g>
    <g id="text_73">
     <!-- 23 -->
     <g transform="translate(594.335 191.759375) scale(0.1 -0.1)">
      <use xlink:href="#DejaVuSans-32"/>
      <use xlink:href="#DejaVuSans-33" x="63.623047"/>
     </g>
    </g>
    <g id="patch_90">
     <path d="M 0 216 
L 61.1025 216 
L 61.1025 198 
L 0 198 
z
" style="fill: #ffffff; stroke: #000000; stroke-linejoin: miter"/>
    </g>
    <g id="text_74">
     <!-- P18L2MLP -->
     <g transform="translate(5.091875 209.759375) scale(0.1 -0.1)">
      <use xlink:href="#DejaVuSans-50"/>
      <use xlink:href="#DejaVuSans-31" x="60.302734"/>
      <use xlink:href="#DejaVuSans-38" x="123.925781"/>
      <use xlink:href="#DejaVuSans-4c" x="187.548828"/>
      <use xlink:href="#DejaVuSans-32" x="243.261719"/>
      <use xlink:href="#DejaVuSans-4d" x="306.884766"/>
      <use xlink:href="#DejaVuSans-4c" x="393.164062"/>
      <use xlink:href="#DejaVuSans-50" x="448.876953"/>
     </g>
    </g>
    <g id="patch_91">
     <path d="M 61.1025 216 
L 107.608125 216 
L 107.608125 198 
L 61.1025 198 
z
" style="fill: #ffffff; stroke: #000000; stroke-linejoin: miter"/>
    </g>
    <g id="text_75">
     <!-- A2 -->
     <g transform="translate(77.75375 209.759375) scale(0.1 -0.1)">
      <use xlink:href="#DejaVuSans-41"/>
      <use xlink:href="#DejaVuSans-32" x="68.408203"/>
     </g>
    </g>
    <g id="patch_92">
     <path d="M 107.608125 216 
L 237.043125 216 
L 237.043125 198 
L 107.608125 198 
z
" style="fill: #ffffff; stroke: #000000; stroke-linejoin: miter"/>
    </g>
    <g id="patch_93">
     <path d="M 237.043125 216 
L 314.73 216 
L 314.73 198 
L 237.043125 198 
z
" style="fill: #ffffff; stroke: #000000; stroke-linejoin: miter"/>
    </g>
    <g id="patch_94">
     <path d="M 314.73 216 
L 403.51125 216 
L 403.51125 198 
L 314.73 198 
z
" style="fill: #80aaea; stroke: #000000; stroke-linejoin: miter"/>
    </g>
    <g id="text_76">
     <!-- S2 -->
     <g transform="translate(352.765156 209.759375) scale(0.1 -0.1)">
      <use xlink:href="#DejaVuSans-53"/>
      <use xlink:href="#DejaVuSans-32" x="63.476562"/>
     </g>
    </g>
    <g id="patch_95">
     <path d="M 403.51125 216 
L 491.600625 216 
L 491.600625 198 
L 403.51125 198 
z
" style="fill: #8080ff; stroke: #000000; stroke-linejoin: miter"/>
    </g>
    <g id="text_77">
     <!-- M0123 -->
     <g transform="translate(430.516875 209.759375) scale(0.1 -0.1)">
      <use xlink:href="#DejaVuSans-4d"/>
      <use xlink:href="#DejaVuSans-30" x="86.279297"/>
      <use xlink:href="#DejaVuSans-31" x="149.902344"/>
      <use xlink:href="#DejaVuSans-32" x="213.525391"/>
      <use xlink:href="#DejaVuSans-33" x="277.148438"/>
     </g>
    </g>
    <g id="patch_96">
     <path d="M 491.600625 216 
L 580.6875 216 
L 580.6875 198 
L 491.600625 198 
z
" style="fill: #ffffff; stroke: #000000; stroke-linejoin: miter"/>
    </g>
    <g id="patch_97">
     <path d="M 580.6875 216 
L 620.7075 216 
L 620.7075 198 
L 580.6875 198 
z
" style="fill: #80c080; stroke: #000000; stroke-linejoin: miter"/>
    </g>
    <g id="text_78">
     <!-- 7 -->
     <g transform="translate(597.51625 209.759375) scale(0.1 -0.1)">
      <use xlink:href="#DejaVuSans-37"/>
     </g>
    </g>
   </g>
  </g>
 </g>
</svg>
